<?xml version="1.0" encoding="utf-8"?>
<!-- Generator: Adobe Illustrator 16.0.0, SVG Export Plug-In . SVG Version: 6.00 Build 0)  -->
<!DOCTYPE svg PUBLIC "-//W3C//DTD SVG 1.1//EN" "http://www.w3.org/Graphics/SVG/1.1/DTD/svg11.dtd">
<svg version="1.1" xmlns="http://www.w3.org/2000/svg" xmlns:xlink="http://www.w3.org/1999/xlink" x="0px" y="0px" width="650px"
	 height="400px" viewBox="0 0 650 400" enable-background="new 0 0 650 400" xml:space="preserve">
<g id="Layer_1" display="none">
	
		<image display="inline" overflow="visible" width="936" height="674" xlink:href="../global-footwear-sales-forecast-2013-2018.png"  transform="matrix(0.8024 0 0 0.6958 -55 -34.5)">
	</image>
</g>
<g id="Layer_2">
	<rect x="114.5" y="150.5" fill="#0B98D5" width="35" height="186.5"/>
	<rect x="200.5" y="141.167" fill="#0B98D5" width="35" height="195"/>
	<rect x="285.5" y="130.501" fill="#0B98D5" width="35" height="205.666"/>
	<rect x="372.166" y="120.501" fill="#0B98D5" width="35" height="215.666"/>
	<rect x="457.499" y="111.168" fill="#0B98D5" width="35" height="224.999"/>
	<rect x="542.833" y="99.835" fill="#0B98D5" width="35" height="236.332"/>
	<line fill="#606161" stroke="#515251" stroke-width="2" stroke-miterlimit="10" x1="85.333" y1="337" x2="603.438" y2="337"/>
	<line fill="#606161" stroke="#515251" stroke-width="2" stroke-miterlimit="10" x1="80.708" y1="86.458" x2="89.583" y2="86.458"/>
	
		<line fill="#606161" stroke="#515251" stroke-width="2" stroke-miterlimit="10" x1="80.708" y1="121.458" x2="89.583" y2="121.458"/>
	
		<line fill="#606161" stroke="#515251" stroke-width="2" stroke-miterlimit="10" x1="80.708" y1="156.458" x2="89.583" y2="156.458"/>
	
		<line fill="#606161" stroke="#515251" stroke-width="2" stroke-miterlimit="10" x1="80.708" y1="192.458" x2="89.583" y2="192.458"/>
	
		<line fill="#606161" stroke="#515251" stroke-width="2" stroke-miterlimit="10" x1="80.708" y1="228.459" x2="89.583" y2="228.459"/>
	
		<line fill="#606161" stroke="#515251" stroke-width="2" stroke-miterlimit="10" x1="80.708" y1="265.459" x2="89.583" y2="265.459"/>
	
		<line fill="#606161" stroke="#515251" stroke-width="2" stroke-miterlimit="10" x1="80.708" y1="300.459" x2="89.583" y2="300.459"/>
	<line fill="#606161" stroke="#515251" stroke-width="2" stroke-miterlimit="10" x1="174.5" y1="337.459" x2="174.5" y2="346.334"/>
	<line fill="#606161" stroke="#515251" stroke-width="2" stroke-miterlimit="10" x1="260.5" y1="337.459" x2="260.5" y2="346.334"/>
	<line fill="#606161" stroke="#515251" stroke-width="2" stroke-miterlimit="10" x1="346.5" y1="337.459" x2="346.5" y2="346.334"/>
	<line fill="#606161" stroke="#515251" stroke-width="2" stroke-miterlimit="10" x1="431.5" y1="337.459" x2="431.5" y2="346.334"/>
	<line fill="#606161" stroke="#515251" stroke-width="2" stroke-miterlimit="10" x1="517.5" y1="337.459" x2="517.5" y2="346.334"/>
	<line fill="#606161" stroke="#515251" stroke-width="2" stroke-miterlimit="10" x1="602.5" y1="337.459" x2="602.5" y2="346.334"/>
	<line fill="#606161" stroke="#515251" stroke-width="2" stroke-miterlimit="10" x1="89.5" y1="85.375" x2="89.5" y2="340.708"/>
	<rect x="111" y="347" fill="none" width="37" height="20"/>
	<text transform="matrix(1 0 0 1 114.1079 356.8281)" font-family="'AvenirLTStd-Black'" font-size="13">2013</text>
	<rect x="41" y="330.708" fill="none" width="37" height="20"/>
	<text transform="matrix(1 0 0 1 70.3042 340.5361)" font-family="'AvenirLTStd-Black'" font-size="13">0</text>
	<rect x="41" y="295.208" fill="none" width="37" height="20"/>
	<text transform="matrix(1 0 0 1 62.6079 305.0361)" font-family="'AvenirLTStd-Black'" font-size="13">50</text>
	<rect x="41" y="259.958" fill="none" width="37" height="20"/>
	<text transform="matrix(1 0 0 1 54.9121 269.7861)" font-family="'AvenirLTStd-Black'" font-size="13">100</text>
	<rect x="41" y="223.75" fill="none" width="37" height="20"/>
	<text transform="matrix(1 0 0 1 54.9121 233.5781)" font-family="'AvenirLTStd-Black'" font-size="13">150</text>
	<rect x="41" y="187.25" fill="none" width="37" height="20"/>
	<text transform="matrix(1 0 0 1 54.9121 197.0781)" font-family="'AvenirLTStd-Black'" font-size="13">200</text>
	<rect x="41" y="151" fill="none" width="37" height="20"/>
	<text transform="matrix(1 0 0 1 54.9121 160.8281)" font-family="'AvenirLTStd-Black'" font-size="13">250</text>
	<rect x="41" y="116.5" fill="none" width="37" height="20"/>
	<text transform="matrix(1 0 0 1 54.9121 126.3281)" font-family="'AvenirLTStd-Black'" font-size="13">300</text>
	<rect x="41" y="80" fill="none" width="37" height="20"/>
	<text transform="matrix(1 0 0 1 54.9121 89.8281)" font-family="'AvenirLTStd-Black'" font-size="13">350</text>
	<rect x="42.167" y="46.5" fill="none" width="49.167" height="29.667"/>
	<text transform="matrix(1 0 0 1 65.8687 54.8164)"><tspan x="0" y="0" font-family="'AvenirLTStd-Medium'" font-size="11">Sales</tspan><tspan x="-18.523" y="13.199" font-family="'AvenirLTStd-Medium'" font-size="11">$ billions</tspan></text>
	<rect x="202" y="347" fill="none" width="37" height="20"/>
	<text transform="matrix(1 0 0 1 205.1079 356.8281)" font-family="'AvenirLTStd-Black'" font-size="13">2014</text>
	<rect x="284.5" y="347" fill="none" width="37" height="20"/>
	<text transform="matrix(1 0 0 1 287.6079 356.8281)" font-family="'AvenirLTStd-Black'" font-size="13">2015</text>
	<rect x="371.166" y="347.334" fill="none" width="37" height="20"/>
	<text transform="matrix(1 0 0 1 374.2734 357.1621)" font-family="'AvenirLTStd-Black'" font-size="13">2016</text>
	<rect x="454.166" y="347.334" fill="none" width="37" height="20"/>
	<text transform="matrix(1 0 0 1 457.2734 357.1621)" font-family="'AvenirLTStd-Black'" font-size="13">2017</text>
	<rect x="541.833" y="347" fill="none" width="37" height="20"/>
	<text transform="matrix(1 0 0 1 544.9414 356.8281)" font-family="'AvenirLTStd-Black'" font-size="13">2018</text>
</g>
</svg>
