<?xml version="1.0" encoding="utf-8"?>
<!-- Generator: Adobe Illustrator 16.0.0, SVG Export Plug-In . SVG Version: 6.00 Build 0)  -->
<!DOCTYPE svg PUBLIC "-//W3C//DTD SVG 1.1//EN" "http://www.w3.org/Graphics/SVG/1.1/DTD/svg11.dtd">
<svg version="1.1" xmlns="http://www.w3.org/2000/svg" xmlns:xlink="http://www.w3.org/1999/xlink" x="0px" y="0px" width="55px"
	 height="54px" viewBox="0 0 55 54" enable-background="new 0 0 55 54" xml:space="preserve">
<g id="base" xmlns:sketch="http://www.bohemiancoding.com/sketch/ns">
	<title>Shopkick Icon</title>
	<desc>Created with Sketch.</desc>
	<path id="Fill-1" fill="none" stroke="#0098D6" stroke-width="2" d="M53.244,27.068c0,14.165-11.486,25.647-25.654,25.647
		c-14.168,0-25.654-11.482-25.654-25.647c0-14.164,11.486-25.646,25.654-25.646C41.758,1.422,53.244,12.904,53.244,27.068"/>
</g>
<g id="sheet" display="none">
	<path display="inline" fill="#0098D6" d="M28.187,41.73c0.021,0.004,0.041,0.006,0.063,0.006c0.07,0,0.141-0.018,0.206-0.047
		l10.2-4.65c0.211-0.096,0.326-0.326,0.278-0.553c-0.049-0.229-0.247-0.393-0.479-0.395c-0.085,0-8.342-0.176-12.007-7.502
		c-0.346-0.688-1.198-1.101-1.934-0.926l-8.514,2.051c-0.411,0.1-0.739,0.363-0.899,0.719c-0.154,0.35-0.133,0.756,0.061,1.113
		C16.643,34.293,20.872,40.781,28.187,41.73L28.187,41.73z M16.006,30.836c0.034-0.072,0.116-0.131,0.227-0.156l8.514-2.053
		c0.041-0.01,0.088-0.014,0.134-0.014c0.272,0,0.561,0.178,0.682,0.422c2.843,5.676,8.235,7.352,11.057,7.844l-8.443,3.852
		c-6.778-0.955-10.745-7.059-12.143-9.652C16.001,31.016,15.967,30.924,16.006,30.836L16.006,30.836z M16.006,30.836"/>
	<g display="inline">
		<path d="M37.572,25.467l-1.271-0.312c-1.138-0.278-2.149-1.63-2.553-2.732c-1.104-3.038,0.445-6.192,1.033-7.219
			c0.052-0.092,0.065-0.202,0.036-0.304c-0.028-0.102-0.099-0.187-0.191-0.238l-5.161-2.775c-0.059-0.031-0.123-0.046-0.188-0.046
			c-0.06,0-0.119,0.014-0.174,0.04c-0.115,0.057-0.194,0.165-0.215,0.289c-0.294,1.779-1.109,3.198-1.89,4.202
			c1.234,0.98,2.026,2.493,2.026,4.189c0,1.354-0.506,2.594-1.341,3.537l1.055,0.665c0.907,0.573,1.599,1.433,1.959,2.444
			c0.29,0.806,0.897,1.458,1.681,1.806c0.401,0.176,0.831,0.266,1.262,0.266c0.781,0,1.644-0.184,4.158-0.924
			c0.566-0.174,0.776-0.561,0.894-1.045C38.893,26.491,38.391,25.667,37.572,25.467L37.572,25.467z M37.572,25.467"/>
		<path d="M27.102,16.246c-0.32,0.322-0.592,0.616-0.771,0.763c-0.079,0.059-0.156,0.12-0.232,0.184
			c-0.84,0.727-1.528,1.893-1.445,2.999c0.083,1.109,0.637,2.344,1.576,2.936l1.456,0.971c0.854-0.871,1.56-2.556,1.56-3.869
			c0-1.557-0.992-3.046-2.141-3.928L27.102,16.246z M27.102,16.246"/>
	</g>
</g>
<g id="still">
	<path fill="#0098D6" d="M16.563,17.61c-0.329-0.393-0.863-0.393-1.191,0l-2.381,2.815c-0.17,0.201-0.245,0.468-0.241,0.733
		c-0.003,0.263,0.071,0.525,0.241,0.726l1.815,2.149l-1.815,2.146c-0.17,0.201-0.245,0.469-0.241,0.731
		c-0.003,0.262,0.071,0.527,0.241,0.729l1.815,2.147l-1.815,2.152c-0.17,0.198-0.245,0.466-0.241,0.726
		c-0.003,0.264,0.071,0.531,0.241,0.728l2.365,2.802c0.329,0.388,0.858,0.388,1.183,0c0.328-0.385,0.328-1.011,0-1.399l-1.788-2.118
		l1.812-2.151c0.253-0.3,0.304-0.738,0.17-1.108c-0.04-0.135-0.1-0.267-0.194-0.376l-1.788-2.121l1.812-2.146
		c0.253-0.299,0.304-0.742,0.17-1.113c-0.04-0.137-0.1-0.269-0.194-0.375l-1.788-2.123l1.812-2.146
		C16.891,18.63,16.891,17.999,16.563,17.61L16.563,17.61z M41.917,26.898c0.007-0.264-0.073-0.529-0.242-0.73l-1.815-2.146
		l1.815-2.142c0.169-0.202,0.249-0.463,0.242-0.729c0.007-0.261-0.073-0.527-0.242-0.729l-2.381-2.812
		c-0.328-0.388-0.862-0.388-1.19,0c-0.328,0.389-0.328,1.014,0,1.408l1.814,2.141l-1.791,2.119c-0.094,0.108-0.15,0.239-0.189,0.379
		c-0.138,0.365-0.087,0.805,0.166,1.104l1.814,2.146l-1.791,2.117c-0.094,0.109-0.15,0.241-0.189,0.376
		c-0.138,0.367-0.087,0.809,0.166,1.108l1.814,2.147l-1.791,2.111c-0.324,0.388-0.324,1.015,0,1.4c0.328,0.388,0.859,0.388,1.182,0
		l2.366-2.8c0.169-0.196,0.249-0.463,0.242-0.724c0.003-0.263-0.073-0.53-0.242-0.729l-1.815-2.147l1.815-2.146
		C41.844,27.426,41.924,27.158,41.917,26.898L41.917,26.898z M41.917,26.898"/>
	<rect x="20" y="23" fill="none" width="28.8" height="17.76"/>
	<g>
		<ellipse fill="#0098D6" cx="23.452" cy="15.008" rx="1.515" ry="1.934"/>
		
			<ellipse transform="matrix(0.9883 0.1524 -0.1524 0.9883 2.6501 -3.8887)" fill="#0098D6" cx="26.697" cy="15.347" rx="1.232" ry="1.538"/>
		
			<ellipse transform="matrix(0.9669 0.2551 -0.2551 0.9669 5.2073 -6.8911)" fill="#0098D6" cx="29.168" cy="16.628" rx="1.122" ry="1.4"/>
		
			<ellipse transform="matrix(0.9669 0.2551 -0.2551 0.9669 6.2929 -7.7496)" fill="#0098D6" cx="33.023" cy="20.385" rx="1.014" ry="1.169"/>
		
			<ellipse transform="matrix(0.9632 0.2687 -0.2687 0.9632 6.0523 -7.739)" fill="#0098D6" cx="31.304" cy="18.245" rx="1.026" ry="1.335"/>
		<g>
			<path fill-rule="evenodd" clip-rule="evenodd" fill="#0098D6" d="M32.498,25.129c-0.097,0.551-0.177,1.106-0.298,1.653
				c-0.176,0.804-0.461,1.571-0.792,2.319c-0.399,0.904-0.532,1.87-0.709,2.823c-0.243,1.315-0.258,2.647-0.285,3.982
				c-0.024,1.14-0.228,2.262-0.874,3.241c-0.568,0.866-1.352,1.422-2.413,1.526c-0.063,0.007-0.094,0.007-0.186,0.025
				c-0.329,0.032-0.669,0.036-0.998,0.011c-0.737-0.208-1.417-0.514-1.98-1.041c-0.986-0.924-1.291-2.089-1.075-3.384
				c0.217-1.32,0.744-2.55,1.231-3.788c0.331-0.843,0.711-1.67,0.843-2.584c0.077-0.537-0.031-1.041-0.157-1.537
				c-0.215-0.844-0.638-1.603-1.025-2.379c-0.612-1.223-1.448-2.318-1.968-3.588c-0.625-1.53,0-3.705,1.325-4.566
				c0.607-0.394,1.29-0.399,1.967-0.329c1.619,0.165,3.123,0.718,4.462,1.615c1.496,1.001,2.452,2.418,2.808,4.216
				c0.055,0.281,0,0.576,0.124,0.846C32.498,24.503,32.498,24.817,32.498,25.129z"/>
		</g>
	</g>
</g>
</svg>
