<?xml version="1.0" encoding="utf-8"?>
<!-- Generator: Adobe Illustrator 16.0.0, SVG Export Plug-In . SVG Version: 6.00 Build 0)  -->
<!DOCTYPE svg PUBLIC "-//W3C//DTD SVG 1.1//EN" "http://www.w3.org/Graphics/SVG/1.1/DTD/svg11.dtd">
<svg version="1.1" xmlns="http://www.w3.org/2000/svg" xmlns:xlink="http://www.w3.org/1999/xlink" x="0px" y="0px" width="55px"
	 height="54px" viewBox="0 0 55 54" enable-background="new 0 0 55 54" xml:space="preserve">
<g id="base" xmlns:sketch="http://www.bohemiancoding.com/sketch/ns">
	<title>Shopkick Icon</title>
	<desc>Created with Sketch.</desc>
	<path id="Fill-1" fill="none" stroke="#0098D6" stroke-width="2" d="M53.244,27.068c0,14.165-11.486,25.647-25.654,25.647
		c-14.168,0-25.654-11.482-25.654-25.647c0-14.164,11.486-25.646,25.654-25.646C41.758,1.422,53.244,12.904,53.244,27.068"/>
</g>
<g id="sheet" display="none">
	<path display="inline" fill="#0098D6" d="M28.187,41.73c0.021,0.004,0.041,0.006,0.063,0.006c0.07,0,0.141-0.018,0.206-0.047
		l10.2-4.65c0.211-0.096,0.326-0.326,0.278-0.553c-0.049-0.229-0.247-0.393-0.479-0.395c-0.085,0-8.342-0.176-12.007-7.502
		c-0.346-0.688-1.198-1.101-1.934-0.926l-8.514,2.051c-0.411,0.1-0.739,0.363-0.899,0.719c-0.154,0.35-0.133,0.756,0.061,1.113
		C16.643,34.293,20.872,40.781,28.187,41.73L28.187,41.73z M16.006,30.836c0.034-0.072,0.116-0.131,0.227-0.156l8.514-2.053
		c0.041-0.01,0.088-0.014,0.134-0.014c0.272,0,0.561,0.178,0.682,0.422c2.843,5.676,8.235,7.352,11.057,7.844l-8.443,3.852
		c-6.778-0.955-10.745-7.059-12.143-9.652C16.001,31.016,15.967,30.924,16.006,30.836L16.006,30.836z M16.006,30.836"/>
	<g display="inline">
		<path d="M37.572,25.467l-1.271-0.312c-1.138-0.278-2.149-1.63-2.553-2.732c-1.104-3.038,0.445-6.192,1.033-7.219
			c0.052-0.092,0.065-0.202,0.036-0.304c-0.028-0.102-0.099-0.187-0.191-0.238l-5.161-2.775c-0.059-0.031-0.123-0.046-0.188-0.046
			c-0.06,0-0.119,0.014-0.174,0.04c-0.115,0.057-0.194,0.165-0.215,0.289c-0.294,1.779-1.109,3.198-1.89,4.202
			c1.234,0.98,2.026,2.493,2.026,4.189c0,1.354-0.506,2.594-1.341,3.537l1.055,0.665c0.907,0.573,1.599,1.433,1.959,2.444
			c0.29,0.806,0.897,1.458,1.681,1.806c0.401,0.176,0.831,0.266,1.262,0.266c0.781,0,1.644-0.184,4.158-0.924
			c0.566-0.174,0.776-0.561,0.894-1.045C38.893,26.491,38.391,25.667,37.572,25.467L37.572,25.467z M37.572,25.467"/>
		<path d="M27.102,16.246c-0.32,0.322-0.592,0.616-0.771,0.763c-0.079,0.059-0.156,0.12-0.232,0.184
			c-0.84,0.727-1.528,1.893-1.445,2.999c0.083,1.109,0.637,2.344,1.576,2.936l1.456,0.971c0.854-0.871,1.56-2.556,1.56-3.869
			c0-1.557-0.992-3.046-2.141-3.928L27.102,16.246z M27.102,16.246"/>
	</g>
</g>
<g id="still" display="none">
	<path display="inline" fill="#0098D6" d="M16.563,17.61c-0.329-0.393-0.863-0.393-1.191,0l-2.381,2.815
		c-0.17,0.201-0.245,0.468-0.241,0.733c-0.003,0.263,0.071,0.525,0.241,0.726l1.815,2.149l-1.815,2.146
		c-0.17,0.201-0.245,0.469-0.241,0.731c-0.003,0.262,0.071,0.527,0.241,0.729l1.815,2.147l-1.815,2.152
		c-0.17,0.198-0.245,0.466-0.241,0.726c-0.003,0.264,0.071,0.531,0.241,0.728l2.365,2.802c0.329,0.388,0.858,0.388,1.183,0
		c0.328-0.385,0.328-1.011,0-1.399l-1.788-2.118l1.812-2.151c0.253-0.3,0.304-0.738,0.17-1.108c-0.04-0.135-0.1-0.267-0.194-0.376
		l-1.788-2.121l1.812-2.146c0.253-0.299,0.304-0.742,0.17-1.113c-0.04-0.137-0.1-0.269-0.194-0.375l-1.788-2.123l1.812-2.146
		C16.891,18.63,16.891,17.999,16.563,17.61L16.563,17.61z M41.917,26.898c0.007-0.264-0.073-0.529-0.242-0.73l-1.815-2.146
		l1.815-2.142c0.169-0.202,0.249-0.463,0.242-0.729c0.007-0.261-0.073-0.527-0.242-0.729l-2.381-2.812
		c-0.328-0.388-0.862-0.388-1.19,0c-0.328,0.389-0.328,1.014,0,1.408l1.814,2.141l-1.791,2.119c-0.094,0.108-0.15,0.239-0.189,0.379
		c-0.138,0.365-0.087,0.805,0.166,1.104l1.814,2.146l-1.791,2.117c-0.094,0.109-0.15,0.241-0.189,0.376
		c-0.138,0.367-0.087,0.809,0.166,1.108l1.814,2.147l-1.791,2.111c-0.324,0.388-0.324,1.015,0,1.4c0.328,0.388,0.859,0.388,1.182,0
		l2.366-2.8c0.169-0.196,0.249-0.463,0.242-0.724c0.003-0.263-0.073-0.53-0.242-0.729l-1.815-2.147l1.815-2.146
		C41.844,27.426,41.924,27.158,41.917,26.898L41.917,26.898z M41.917,26.898"/>
	<rect x="20" y="23" display="inline" fill="none" width="28.8" height="17.76"/>
	<g display="inline">
		<ellipse fill="#0098D6" cx="23.452" cy="15.008" rx="1.515" ry="1.934"/>
		
			<ellipse transform="matrix(0.9883 0.1524 -0.1524 0.9883 2.6501 -3.8887)" fill="#0098D6" cx="26.697" cy="15.347" rx="1.232" ry="1.538"/>
		
			<ellipse transform="matrix(0.9669 0.2551 -0.2551 0.9669 5.2073 -6.8911)" fill="#0098D6" cx="29.168" cy="16.628" rx="1.122" ry="1.4"/>
		
			<ellipse transform="matrix(0.9669 0.2551 -0.2551 0.9669 6.2929 -7.7496)" fill="#0098D6" cx="33.023" cy="20.385" rx="1.014" ry="1.169"/>
		
			<ellipse transform="matrix(0.9632 0.2687 -0.2687 0.9632 6.0523 -7.739)" fill="#0098D6" cx="31.304" cy="18.245" rx="1.026" ry="1.335"/>
		<g>
			<path fill-rule="evenodd" clip-rule="evenodd" fill="#0098D6" d="M32.498,25.129c-0.097,0.551-0.177,1.106-0.298,1.653
				c-0.176,0.804-0.461,1.571-0.792,2.319c-0.399,0.904-0.532,1.87-0.709,2.823c-0.243,1.315-0.258,2.647-0.285,3.982
				c-0.024,1.14-0.228,2.262-0.874,3.241c-0.568,0.866-1.352,1.422-2.413,1.526c-0.063,0.007-0.094,0.007-0.186,0.025
				c-0.329,0.032-0.669,0.036-0.998,0.011c-0.737-0.208-1.417-0.514-1.98-1.041c-0.986-0.924-1.291-2.089-1.075-3.384
				c0.217-1.32,0.744-2.55,1.231-3.788c0.331-0.843,0.711-1.67,0.843-2.584c0.077-0.537-0.031-1.041-0.157-1.537
				c-0.215-0.844-0.638-1.603-1.025-2.379c-0.612-1.223-1.448-2.318-1.968-3.588c-0.625-1.53,0-3.705,1.325-4.566
				c0.607-0.394,1.29-0.399,1.967-0.329c1.619,0.165,3.123,0.718,4.462,1.615c1.496,1.001,2.452,2.418,2.808,4.216
				c0.055,0.281,0,0.576,0.124,0.846C32.498,24.503,32.498,24.817,32.498,25.129z"/>
		</g>
	</g>
</g>
<g id="Layer_4" display="none">
	<g display="inline">
		<path fill="#0098D6" d="M34.247,12.139H20.933c-1.108,0-2.017,0.909-2.017,2.017v25.828c0,1.108,0.909,2.017,2.017,2.017h13.314
			c1.108,0,2.017-0.908,2.017-2.017V14.155C36.264,13.047,35.355,12.139,34.247,12.139L34.247,12.139z M25.461,13.592h4.257
			c0.138,0,0.246,0.108,0.246,0.246c0,0.133-0.108,0.241-0.246,0.241h-4.257c-0.138,0-0.247-0.108-0.247-0.241
			C25.215,13.701,25.324,13.592,25.461,13.592L25.461,13.592z M27.59,40.992c-0.559,0-1.008-0.45-1.008-1.009
			c0-0.558,0.449-1.008,1.008-1.008c0.558,0,1.008,0.45,1.008,1.008C28.598,40.542,28.147,40.992,27.59,40.992L27.59,40.992z
			 M34.859,38.268H20.32v-22.93h14.54V38.268z M34.859,38.268"/>
	</g>
	<g display="inline">
		<ellipse fill="#9E9E9E" cx="25.75" cy="21.151" rx="0.754" ry="0.962"/>
		
			<ellipse transform="matrix(0.9883 0.1525 -0.1525 0.9883 3.5714 -3.9241)" fill="#9E9E9E" cx="27.366" cy="21.319" rx="0.613" ry="0.765"/>
		
			<ellipse transform="matrix(0.967 0.2549 -0.2549 0.967 6.5401 -6.5626)" fill="#9E9E9E" cx="28.595" cy="21.957" rx="0.558" ry="0.696"/>
		
			<ellipse transform="matrix(0.9669 0.255 -0.255 0.9669 7.0859 -6.9944)" fill="#9E9E9E" cx="30.514" cy="23.827" rx="0.504" ry="0.581"/>
		
			<ellipse transform="matrix(0.9631 0.269 -0.269 0.9631 7.2169 -7.1397)" fill="#9E9E9E" cx="29.658" cy="22.762" rx="0.51" ry="0.664"/>
		<g>
			<path fill-rule="evenodd" clip-rule="evenodd" fill="#9E9E9E" d="M30.253,26.188c-0.049,0.273-0.089,0.55-0.148,0.823
				c-0.088,0.4-0.229,0.781-0.394,1.153c-0.199,0.45-0.266,0.933-0.353,1.404c-0.121,0.655-0.129,1.318-0.144,1.983
				c-0.011,0.566-0.113,1.126-0.434,1.613c-0.284,0.431-0.674,0.708-1.202,0.759c-0.031,0.005-0.046,0.005-0.092,0.013
				c-0.164,0.017-0.333,0.019-0.497,0.006c-0.367-0.104-0.706-0.255-0.985-0.518c-0.491-0.46-0.643-1.04-0.535-1.684
				c0.107-0.658,0.37-1.27,0.612-1.887c0.165-0.419,0.354-0.831,0.42-1.285c0.038-0.268-0.016-0.518-0.079-0.767
				c-0.106-0.419-0.317-0.796-0.509-1.183c-0.305-0.608-0.721-1.153-0.979-1.786c-0.311-0.761,0-1.843,0.659-2.272
				c0.303-0.196,0.642-0.199,0.979-0.164c0.806,0.082,1.555,0.357,2.22,0.804c0.745,0.499,1.222,1.203,1.398,2.099
				c0.026,0.14,0,0.287,0.062,0.42C30.253,25.877,30.253,26.033,30.253,26.188z"/>
		</g>
	</g>
</g>
<g id="Layer_5">
	<g>
		<path fill="#0098D6" d="M42.431,33.727V20.412c0-1.107-0.908-2.017-2.017-2.017H14.586c-1.108,0-2.017,0.909-2.017,2.017v13.314
			c0,1.108,0.908,2.017,2.017,2.017h25.828C41.522,35.743,42.431,34.835,42.431,33.727L42.431,33.727z M40.978,24.94v4.258
			c0,0.138-0.108,0.246-0.246,0.246c-0.134,0-0.241-0.108-0.241-0.246V24.94c0-0.138,0.107-0.246,0.241-0.246
			C40.869,24.694,40.978,24.803,40.978,24.94L40.978,24.94z M13.577,27.069c0-0.559,0.45-1.008,1.009-1.008
			c0.558,0,1.008,0.449,1.008,1.008c0,0.558-0.45,1.008-1.008,1.008C14.027,28.077,13.577,27.627,13.577,27.069L13.577,27.069z
			 M16.302,34.339v-14.54h22.93v14.54H16.302z M16.302,34.339"/>
	</g>
	<g>
		<ellipse fill="#9E9E9E" cx="25.762" cy="21.536" rx="0.704" ry="0.898"/>
		
			<ellipse transform="matrix(0.9884 0.1522 -0.1522 0.9884 3.6183 -3.8967)" fill="#9E9E9E" cx="27.27" cy="21.694" rx="0.573" ry="0.714"/>
		
			<ellipse transform="matrix(0.9669 0.2551 -0.2551 0.9669 6.6252 -6.5114)" fill="#9E9E9E" cx="28.418" cy="22.289" rx="0.522" ry="0.65"/>
		
			<ellipse transform="matrix(0.9669 0.2552 -0.2552 0.9669 7.1336 -6.9135)" fill="#9E9E9E" cx="30.211" cy="24.035" rx="0.472" ry="0.543"/>
		
			<ellipse transform="matrix(0.9629 0.2697 -0.2697 0.9629 7.3041 -7.0787)" fill="#9E9E9E" cx="29.412" cy="23.041" rx="0.476" ry="0.62"/>
		<g>
			<path fill-rule="evenodd" clip-rule="evenodd" fill="#9E9E9E" d="M29.967,26.24c-0.045,0.255-0.082,0.515-0.138,0.769
				c-0.083,0.373-0.214,0.73-0.368,1.077c-0.187,0.42-0.248,0.871-0.329,1.312c-0.113,0.612-0.121,1.231-0.135,1.852
				c-0.01,0.53-0.105,1.053-0.404,1.508c-0.267,0.401-0.63,0.662-1.123,0.708c-0.029,0.005-0.043,0.005-0.086,0.014
				c-0.153,0.014-0.311,0.017-0.463,0.005C26.578,33.387,26.262,33.244,26,33c-0.458-0.43-0.6-0.972-0.499-1.573
				c0.1-0.614,0.345-1.185,0.572-1.762c0.154-0.391,0.331-0.776,0.392-1.2c0.035-0.25-0.015-0.483-0.074-0.717
				c-0.099-0.391-0.296-0.744-0.476-1.104c-0.285-0.568-0.673-1.077-0.914-1.667c-0.291-0.711,0-1.722,0.614-2.122
				c0.284-0.184,0.6-0.187,0.915-0.153c0.753,0.076,1.453,0.333,2.075,0.75c0.694,0.466,1.141,1.124,1.306,1.96
				c0.023,0.13,0,0.269,0.057,0.393C29.967,25.95,29.967,26.096,29.967,26.24z"/>
		</g>
	</g>
</g>
<g id="brand" display="none">
	<g display="inline">
		<path fill="#0098D6" d="M35.988,29.054c0-0.514-0.184-0.965-0.55-1.352L24.82,17.099c-0.376-0.376-0.882-0.695-1.514-0.958
			c-0.634-0.262-1.213-0.394-1.739-0.394H15.39c-0.515,0-0.961,0.189-1.337,0.564c-0.376,0.377-0.564,0.821-0.564,1.337v6.178
			c0,0.524,0.13,1.103,0.394,1.737c0.262,0.634,0.582,1.134,0.957,1.501l10.62,10.633c0.366,0.366,0.812,0.551,1.336,0.551
			c0.516,0,0.965-0.185,1.352-0.551l7.292-7.306C35.805,30.023,35.988,29.579,35.988,29.054L35.988,29.054z M19.585,21.844
			c-0.372,0.373-0.82,0.557-1.345,0.557c-0.524,0-0.972-0.185-1.343-0.557c-0.372-0.372-0.557-0.819-0.557-1.343
			c0-0.525,0.185-0.973,0.557-1.344c0.371-0.373,0.819-0.557,1.343-0.557c0.525,0,0.973,0.185,1.345,0.557
			c0.371,0.372,0.557,0.819,0.557,1.344C20.142,21.025,19.957,21.473,19.585,21.844L19.585,21.844z M19.585,21.844"/>
		<path fill="#0098D6" d="M41.142,27.702L30.523,17.1c-0.377-0.376-0.881-0.695-1.516-0.958c-0.633-0.262-1.213-0.394-1.738-0.394
			h-3.326c0.525,0,1.104,0.132,1.738,0.394c0.633,0.263,1.139,0.582,1.515,0.958l10.617,10.603c0.368,0.387,0.551,0.838,0.551,1.352
			c0,0.525-0.183,0.97-0.551,1.339l-6.979,6.98c0.297,0.305,0.56,0.527,0.786,0.668c0.229,0.139,0.52,0.208,0.878,0.208
			c0.513,0,0.965-0.185,1.35-0.551l7.293-7.306c0.366-0.369,0.55-0.813,0.55-1.339C41.69,28.54,41.508,28.089,41.142,27.702
			L41.142,27.702z M41.142,27.702"/>
	</g>
</g>
<g id="desig-shoes" display="none">
	<g display="inline">
		<g>
			<defs>
				<rect id="SVGID_1_" x="13.39" y="13.728" width="28.4" height="26.683"/>
			</defs>
			<clipPath id="SVGID_2_">
				<use xlink:href="#SVGID_1_"  overflow="visible"/>
			</clipPath>
			<path clip-path="url(#SVGID_2_)" fill="#0098D6" d="M41.219,34.467l-2.729-0.063v-2.212c-3.511-3.639-10.529-1.234-11.504-1.493
				s-0.584-1.234-0.584-1.234c2.081-1.171,6.498-6.294,6.498-6.294c0.132-4.15-2.014-3.557-2.014-3.557
				c-4.821-0.098-12.963-6.791-13.985-5.765c-0.062-0.061-0.14-0.106-0.249-0.112c-3.347-0.209-2.509,4.638-3.236,6.654
				c-0.17,0.476,0.583,0.678,0.752,0.209c0.587-1.627-0.072-6.172,2.429-6.084c-0.791,1.537-2.879,3.293-1.831,7.67
				c1.172,4.874,1.43,16.996,1.43,16.996s2.34,0.163,2.665,0c0,0-0.064-9.716-0.196-13.225c-0.129-3.511,5.134,1.04,7.346,7.864
				c2.209,6.823,4.613,6.303,7.084,6.303c2.469,0,5.85-0.846,7.54-3.185S41.219,34.467,41.219,34.467L41.219,34.467z M22.891,18.869
				c0,0,6.304,2.275,7.539,2.341c0.845,0.043,1.567,0.117,1.231,0.641c-4.033-0.326-8.138-0.852-11.589-3.095
				C20.367,18.289,21.206,18.228,22.891,18.869L22.891,18.869z M24.191,26.083c-0.732-0.603-4.056-4.711-4.237-6.662
				c3.331,2.094,7.252,2.671,11.125,3.005c-0.177,0.14-0.39,0.296-0.649,0.471C28.22,24.393,25.294,26.995,24.191,26.083
				L24.191,26.083z M24.191,26.083"/>
		</g>
	</g>
</g>
<g id="casualshoes" display="none">
	<g display="inline">
		<g>
			<defs>
				<rect id="SVGID_3_" x="9.408" y="20.69" width="36.362" height="12.759"/>
			</defs>
			<clipPath id="SVGID_4_">
				<use xlink:href="#SVGID_3_"  overflow="visible"/>
			</clipPath>
			<path clip-path="url(#SVGID_4_)" fill="#0098D6" d="M18.401,33.144c0,0,1.098-1.283,2.166-1.355
				c1.069-0.067,6.437,2.116,11.837,1.528c5.4-0.592,10.123-2.436,12.967-4.635c0,0,0.355-0.583,0.065-1.681l-0.243,0.021
				c-0.716,0.563-6.696,5.058-14.443,5.058c-0.551,0-1.107-0.023-1.651-0.071c-3.737-0.319-5.741-0.808-6.939-1.098
				c-0.646-0.157-1.071-0.261-1.42-0.261c-0.447,0-0.858,0.178-1.764,0.767l-0.169,0.109l-0.201-0.015L9.74,30.903
				c-0.16,0.568-0.293,1.388,0.059,1.919C10.378,33.694,18.401,33.144,18.401,33.144L18.401,33.144z M18.401,33.144"/>
			<path clip-path="url(#SVGID_4_)" fill="#0098D6" d="M9.94,30.31l8.703,0.597c0.977-0.633,1.495-0.863,2.096-0.863
				c1.169,0,2.657,0.87,8.413,1.361c0.539,0.048,1.071,0.067,1.599,0.067c6.185,0,11.286-3.001,13.254-4.34
				c0.565-0.386,0.876-0.634,0.876-0.634s-1.402-1.616-4.969-1.616c-1.621,0-2.991,0.064-4.045,0.064
				c-1.267,0-2.077-0.091-2.32-0.499c-0.446-0.746-3.376-1.612-3.376-1.612c-0.912-2.016-4.868-2.264-6.759-2.264
				c-0.612,0-1.009,0.027-1.009,0.027v2.047c-1.464,1.16-3.169,1.548-4.791,1.548c-3.246,0-6.161-1.548-6.161-1.548
				c-2.93,2.796-1.846,7.642-1.846,7.642L9.94,30.31z M24.491,24.634l1.27-2.16c0.089-0.151,0.23-0.261,0.402-0.306
				c0.172-0.044,0.349-0.017,0.5,0.072l0.885,0.521c0.095-0.101,0.248-0.133,0.373-0.06c0.124,0.074,0.172,0.222,0.127,0.353
				l0.885,0.521c0.316,0.187,0.42,0.592,0.237,0.905l-1.27,2.157c-0.092,0.154-0.233,0.263-0.406,0.306
				c-0.053,0.014-0.111,0.022-0.166,0.022c-0.117,0-0.229-0.032-0.334-0.092l0.154-0.261l0.153-0.262
				c0.021,0.014,0.063,0.003,0.074-0.019l1.27-2.16c0.015-0.026,0.006-0.059-0.018-0.073l-0.876-0.516l-0.541,0.92
				c-0.057,0.098-0.157,0.151-0.261,0.151c-0.054,0-0.106-0.015-0.154-0.041c-0.145-0.086-0.192-0.272-0.106-0.414l0.541-0.924
				l-0.875-0.512l-0.074,0.018l-1.27,2.159c-0.015,0.027-0.006,0.06,0.018,0.075l-0.15,0.261l-0.154,0.262
				C24.412,25.353,24.305,24.946,24.491,24.634L24.491,24.634z M24.491,24.634"/>
		</g>
	</g>
</g>
<g id="share-fot-id" display="none">
	<g display="inline">
		
			<ellipse transform="matrix(0.7069 0.7073 -0.7073 0.7069 28.9292 -19.2658)" fill="#0098D6" cx="37.71" cy="25.272" rx="1.083" ry="1.384"/>
		
			<ellipse transform="matrix(0.5909 0.8068 -0.8068 0.5909 37.8794 -20.5263)" fill="#0098D6" cx="39.178" cy="27.084" rx="0.881" ry="1.098"/>
		
			<ellipse transform="matrix(0.5026 0.8645 -0.8645 0.5026 44.8394 -19.9745)" fill="#0098D6" cx="39.779" cy="28.981" rx="0.801" ry="1"/>
		<path fill="#0098D6" d="M40.191,33.452c-0.397,0.231-0.884,0.14-1.084-0.205c-0.202-0.345-0.042-0.814,0.355-1.047
			c0.4-0.231,0.886-0.138,1.087,0.205C40.749,32.751,40.59,33.219,40.191,33.452z"/>
		<path fill="#0098D6" d="M40.401,31.514c-0.459,0.259-0.992,0.186-1.193-0.17c-0.197-0.354,0.015-0.85,0.474-1.109
			c0.46-0.256,0.991-0.182,1.19,0.173C41.072,30.761,40.859,31.256,40.401,31.514z"/>
		<g>
			<path fill-rule="evenodd" clip-rule="evenodd" fill="#0098D6" d="M37.166,34.959c-0.327,0.229-0.649,0.469-0.986,0.686
				c-0.494,0.317-1.026,0.56-1.572,0.772c-0.657,0.252-1.213,0.674-1.787,1.066c-0.784,0.541-1.465,1.208-2.153,1.868
				c-0.589,0.563-1.258,1.028-2.08,1.198c-0.726,0.146-1.401,0.033-1.989-0.448c-0.037-0.031-0.052-0.043-0.109-0.083
				c-0.182-0.148-0.354-0.318-0.51-0.498c-0.266-0.478-0.456-0.977-0.476-1.527c-0.029-0.965,0.407-1.708,1.169-2.252
				c0.776-0.558,1.663-0.911,2.536-1.292c0.594-0.26,1.203-0.484,1.73-0.88c0.313-0.233,0.512-0.543,0.7-0.856
				c0.315-0.535,0.486-1.133,0.682-1.722c0.311-0.925,0.441-1.902,0.822-2.808c0.456-1.088,1.869-1.872,2.976-1.636
				c0.505,0.106,0.854,0.45,1.158,0.827c0.737,0.901,1.216,1.941,1.44,3.07c0.249,1.263,0.017,2.462-0.713,3.551
				c-0.114,0.17-0.292,0.292-0.364,0.49C37.481,34.644,37.323,34.803,37.166,34.959z"/>
		</g>
		
			<ellipse transform="matrix(-0.707 -0.7072 0.7072 -0.707 43.0854 61.5806)" fill="#0098D6" cx="34.299" cy="21.865" rx="1.082" ry="1.382"/>
		
			<ellipse transform="matrix(-0.8065 -0.5912 0.5912 -0.8065 46.6307 56.0522)" fill="#0098D6" cx="32.487" cy="20.396" rx="0.881" ry="1.1"/>
		
			<ellipse transform="matrix(-0.8642 -0.5031 0.5031 -0.8642 47.069 52.2936)" fill="#0098D6" cx="30.59" cy="19.796" rx="0.802" ry="0.999"/>
		
			<ellipse transform="matrix(-0.8644 -0.5027 0.5027 -0.8644 39.9361 50.2627)" fill="#0098D6" cx="26.745" cy="19.747" rx="0.724" ry="0.834"/>
		
			<ellipse transform="matrix(-0.8708 -0.4916 0.4916 -0.8708 44.0818 50.6494)" fill="#0098D6" cx="28.696" cy="19.533" rx="0.734" ry="0.954"/>
		<path fill-rule="evenodd" clip-rule="evenodd" fill="#0098D6" d="M25.137,21.848c0.198-0.072,0.319-0.249,0.491-0.364
			c1.088-0.729,2.287-0.961,3.55-0.713c1.13,0.225,2.169,0.706,3.069,1.44c0.379,0.306,0.721,0.653,0.828,1.16
			c0.235,1.105-0.55,2.518-1.638,2.977c-0.904,0.379-1.881,0.509-2.807,0.818c-0.59,0.197-1.188,0.368-1.721,0.684
			c-0.315,0.188-0.624,0.387-0.857,0.698c-0.396,0.528-0.622,1.137-0.88,1.731c-0.38,0.873-0.735,1.76-1.291,2.537
			c-0.546,0.764-1.289,1.197-2.254,1.167c-0.549-0.02-1.048-0.209-1.527-0.475c-0.177-0.154-0.349-0.326-0.499-0.51
			c-0.037-0.057-0.05-0.072-0.08-0.108c-0.483-0.59-0.599-1.264-0.449-1.99c0.168-0.823,0.633-1.49,1.198-2.08
			c0.66-0.688,1.327-1.369,1.866-2.156c0.393-0.572,0.815-1.127,1.068-1.784c0.211-0.546,0.456-1.079,0.772-1.573
			c0.216-0.337,0.457-0.659,0.686-0.986C24.82,22.165,24.979,22.006,25.137,21.848z"/>
	</g>
	<path display="inline" fill="#0098D6" d="M18.133,12.919l-3.646,4.859c-0.156,0.215-0.07,0.387,0.195,0.387h1.695
		c0.263,0,0.523,0.211,0.578,0.473c0,0,0.156,0.594,0.34,1.141c1.082,3.257,4.156,3.618,4.156,3.618
		c0.242,0.104,0.305,0.018,0.141-0.185c0,0-0.741-0.937-1.077-1.769c-0.446-1.099-0.45-2.794-0.45-2.794
		c-0.004-0.266,0.215-0.48,0.477-0.48h1.813c0.266,0,0.348-0.168,0.184-0.379l-3.819-4.879
		C18.555,12.705,18.292,12.708,18.133,12.919L18.133,12.919z"/>
</g>
<g id="closet" display="none">
	<g display="inline">
		<path fill="#0098D6" d="M29.782,25.709h-6.525c-0.331,0-0.598,0.268-0.598,0.598v11.878c0,0.33,0.267,0.599,0.598,0.599h0.503
			v0.361c0,0.176,0.143,0.317,0.32,0.317H24.9c0.176,0,0.318-0.142,0.318-0.317v-0.361h4.563c0.33,0,0.598-0.269,0.598-0.599V26.307
			C30.38,25.977,30.112,25.709,29.782,25.709L29.782,25.709z M28.975,32.819c0,0.33-0.268,0.598-0.598,0.598
			s-0.599-0.268-0.599-0.598v-2.486c0-0.329,0.269-0.598,0.599-0.598s0.598,0.269,0.598,0.598V32.819z M28.975,32.819"/>
		<path fill="#0098D6" d="M38.64,25.709h-6.448c-0.329,0-0.597,0.268-0.597,0.598v11.878c0,0.33,0.268,0.599,0.597,0.599h4.486
			v0.361c0,0.176,0.143,0.317,0.318,0.317h0.821c0.176,0,0.319-0.142,0.319-0.317v-0.361h0.503c0.331,0,0.598-0.269,0.598-0.599
			V26.307C39.237,25.977,38.971,25.709,38.64,25.709L38.64,25.709z M34.113,32.819c0,0.33-0.267,0.598-0.596,0.598
			c-0.331,0-0.599-0.268-0.599-0.598v-2.486c0-0.329,0.268-0.598,0.599-0.598c0.329,0,0.596,0.269,0.596,0.598V32.819z
			 M34.113,32.819"/>
		<path fill="#0098D6" d="M29.823,21.155h-6.526c-0.331,0-0.598,0.268-0.598,0.598v2.181c0,0.33,0.267,0.598,0.598,0.598h6.526
			c0.33,0,0.597-0.269,0.597-0.598v-2.181C30.42,21.422,30.153,21.155,29.823,21.155L29.823,21.155z M29.823,21.155"/>
		<path fill="#0098D6" d="M38.68,21.155h-6.448c-0.329,0-0.598,0.268-0.598,0.598v2.181c0,0.33,0.269,0.598,0.598,0.598h6.448
			c0.329,0,0.598-0.269,0.598-0.598v-2.181C39.277,21.422,39.009,21.155,38.68,21.155L38.68,21.155z M38.68,21.155"/>
	</g>
	<path display="inline" fill="#0098D6" d="M18.133,12.919l-3.646,4.859c-0.156,0.215-0.07,0.387,0.195,0.387h1.695
		c0.263,0,0.523,0.211,0.578,0.473c0,0,0.156,0.594,0.34,1.141c1.082,3.256,4.156,3.617,4.156,3.617
		c0.242,0.105,0.305,0.018,0.141-0.184c0,0-0.741-0.938-1.077-1.77c-0.446-1.098-0.45-2.793-0.45-2.793
		c-0.004-0.266,0.215-0.48,0.477-0.48h1.813c0.266,0,0.348-0.168,0.184-0.379l-3.819-4.879
		C18.555,12.705,18.292,12.708,18.133,12.919L18.133,12.919z"/>
</g>
</svg>
