<?xml version="1.0" encoding="utf-8"?>
<!-- Generator: Adobe Illustrator 16.0.0, SVG Export Plug-In . SVG Version: 6.00 Build 0)  -->
<!DOCTYPE svg PUBLIC "-//W3C//DTD SVG 1.1//EN" "http://www.w3.org/Graphics/SVG/1.1/DTD/svg11.dtd">
<svg version="1.1" xmlns="http://www.w3.org/2000/svg" xmlns:xlink="http://www.w3.org/1999/xlink" x="0px" y="0px" width="600px"
	 height="600px" viewBox="0 0 600 600" enable-background="new 0 0 600 600" xml:space="preserve">
<g id="base-home">
	<title>Artboard 1</title>
	<circle id="Oval-21" fill="#9DD7EF" cx="300" cy="300" r="299"/>
	<circle id="Oval-26" fill="#099BD7" cx="300" cy="300" r="230.552"/>
</g>
<g id="foot-id" display="none">
	
		<image display="inline" overflow="visible" width="428" height="423" xlink:href="icons-img/measure-foot-man@3x.png"  transform="matrix(0.4538 0 0 0.4538 201.3928 196.5547)">
	</image>
</g>
<g id="Layer_3" display="none">
	<g id="shop" display="inline">
		<g>
			<path fill="#FFFFFF" d="M297.378,395.202c-30.443,0-60.885-0.014-91.328,0.032c-1.708,0.005-2.337-0.169-2.084-2.174
				c1.316-10.407,2.455-20.838,3.645-31.26c1.159-10.151,2.298-20.306,3.46-30.459c1.168-10.219,2.36-20.435,3.533-30.652
				c1.165-10.153,2.325-20.303,3.479-30.456c1.132-9.947,2.273-19.893,3.356-29.846c0.156-1.427,1.013-1.339,2.017-1.337
				c9.778,0.012,19.56-0.047,29.338,0.055c1.857,0.019,2.305-0.498,2.26-2.284c-0.188-7.432,0.285-14.739,3.009-21.842
				c6.827-17.803,27.045-29.392,45.855-26.044c17.937,3.191,30.895,15.42,34.896,32.992c1.074,4.719,0.977,9.538,0.991,14.341
				c0.011,3.272-0.292,2.775,2.692,2.781c9.572,0.022,19.147,0.05,28.72-0.031c1.625-0.013,2.061,0.506,2.229,2.048
				c1.271,11.656,2.65,23.3,3.982,34.95c1.297,11.378,2.561,22.759,3.863,34.138c1.171,10.22,2.385,20.433,3.556,30.651
				c1.173,10.22,2.312,20.441,3.473,30.661c0.82,7.223,1.594,14.451,2.52,21.661c0.226,1.752-0.168,2.123-1.929,2.118
				c-22.247-0.067-44.492-0.043-66.74-0.043C313.908,395.202,305.644,395.202,297.378,395.202z M297.482,386.689
				c27.271,0,54.545-0.009,81.817,0.028c1.513,0.002,2.257-0.211,2.029-1.993c-0.809-6.325-1.496-12.665-2.225-19
				c-1.191-10.354-2.38-20.71-3.57-31.061c-1.036-8.994-2.077-17.984-3.112-26.975c-1.166-10.151-2.321-20.302-3.489-30.452
				c-1.089-9.467-2.205-18.934-3.253-28.407c-0.11-1.003-0.488-1.233-1.402-1.23c-7.646,0.024-15.292,0.033-22.936-0.007
				c-1.144-0.006-1.608,0.325-1.556,1.51c0.077,1.712,0.102,3.438-0.006,5.147c-0.109,1.738,0.307,3.007,1.699,4.292
				c3.364,3.104,3.307,8.353,0.16,11.659c-3.146,3.305-8.282,3.542-11.729,0.543c-3.396-2.956-4.102-8.431-0.859-11.582
				c2.146-2.086,2.341-4.21,2.226-6.738c-0.039-0.891-0.102-1.798,0.015-2.675c0.228-1.709-0.402-2.183-2.136-2.176
				c-17.425,0.064-34.848,0.039-52.272,0.039c-3.719,0-7.44,0.083-11.155-0.038c-1.658-0.053-2.381,0.324-2.21,2.116
				c0.155,1.633,0.115,3.298,0.008,4.938c-0.1,1.54,0.309,2.587,1.565,3.678c3.46,3.004,3.561,8.458,0.459,11.824
				c-3.074,3.332-8.292,3.632-11.722,0.672c-3.493-3.013-4.233-8.371-1.036-11.565c2.029-2.023,2.392-4.067,2.238-6.575
				c-0.071-1.162-0.066-2.336,0.001-3.5c0.064-1.114-0.268-1.58-1.492-1.572c-7.644,0.046-15.289,0.042-22.933,0.002
				c-1.062-0.004-1.371,0.335-1.479,1.385c-0.451,4.363-1.044,8.713-1.541,13.073c-1.571,13.831-3.1,27.666-4.685,41.493
				c-1.585,13.828-3.227,27.651-4.826,41.479c-1.504,13.008-2.977,26.021-4.486,39.029c-0.307,2.637-0.355,2.637,2.287,2.637
				C243.075,386.691,270.28,386.689,297.482,386.689z M297.389,239.058c1.378,0,2.755,0,4.133,0c9.298,0,18.598,0,27.896,0
				c0.947,0,1.916,0.235,1.878-1.35c-0.111-4.457,0.104-8.915-0.713-13.345c-2.693-14.643-15.046-25.866-30.161-27.318
				c-14.817-1.423-29.313,7.678-34.583,21.552c-2.278,6-2.298,12.202-2.334,18.455c-0.007,1.635,0.448,2.053,2.065,2.042
				C276.176,239.023,286.783,239.058,297.389,239.058z"/>
		</g>
		<polygon fill="#FFFFFF" points="386.565,390.025 211.281,390.025 223.93,243.178 368.496,243.178 		"/>
	</g>
</g>
<g id="familyandfriends" display="none">
	<g display="inline">
		<path fill="#FFFFFF" d="M320.555,297.568c0,11.442-9.281,20.733-20.735,20.733c-11.444,0-20.732-9.291-20.732-20.733
			c0-11.454,9.289-20.735,20.732-20.735C311.274,276.833,320.555,286.114,320.555,297.568L320.555,297.568z M320.555,297.568"/>
		<path fill="#FFFFFF" d="M308.619,319.707h-17.597c-14.63,0-26.535,11.916-26.535,26.544v21.521l0.048,0.334l1.486,0.462
			c13.96,4.365,26.1,5.819,36.091,5.819c19.505,0,30.812-5.563,31.508-5.917l1.387-0.709l0.148,0.011v-21.521
			C335.163,331.623,323.258,319.707,308.619,319.707L308.619,319.707z M308.619,319.707"/>
		<path fill="#FFFFFF" d="M290.944,237.174c0,18.473-14.975,33.445-33.448,33.445c-18.47,0-33.445-14.972-33.445-33.445
			c0-18.473,14.975-33.445,33.445-33.445C275.969,203.729,290.944,218.702,290.944,237.174L290.944,237.174z M290.944,237.174"/>
		<path fill="#FFFFFF" d="M342.144,270.62c18.462,0,33.437-14.982,33.437-33.445c0-18.463-14.975-33.445-33.437-33.445
			c-18.482,0-33.445,14.973-33.445,33.445C308.698,255.638,323.661,270.62,342.144,270.62L342.144,270.62z M342.144,270.62"/>
		<path fill="#FFFFFF" d="M283.57,316.443c-5.31-4.571-8.69-11.335-8.69-18.875c0-9.251,5.071-17.322,12.573-21.629
			c-4.888-1.946-10.195-3.048-15.76-3.048h-28.381c-23.605,0-42.816,19.21-42.816,42.825v34.712l0.089,0.541l2.388,0.737
			c22.112,6.913,41.36,9.291,57.297,9.38v-14.836C260.269,331.868,270.209,319.796,283.57,316.443L283.57,316.443z M283.57,316.443"
			/>
		<path fill="#FFFFFF" d="M356.329,272.892h-28.372c-5.565,0-10.873,1.102-15.749,3.048c7.501,4.307,12.564,12.378,12.564,21.629
			c0,7.54-3.372,14.294-8.682,18.875c5.35,1.326,10.272,4.07,14.275,8.072c5.811,5.809,9.017,13.536,9.017,21.745v14.826
			c15.935-0.089,35.184-2.467,57.294-9.38l2.39-0.737l0.089-0.541v-34.712C399.144,292.102,379.946,272.892,356.329,272.892
			L356.329,272.892z M356.329,272.892"/>
	</g>
	<circle display="inline" fill="#099BD7" cx="350.689" cy="355.598" r="28.763"/>
	<path display="inline" fill="#FFFFFF" d="M366.214,351.716h-11.644V340.07c0-2.143-1.738-3.881-3.882-3.881
		c-2.145,0-3.881,1.738-3.881,3.881v11.646h-11.644c-2.145,0-3.883,1.736-3.883,3.882c0,2.144,1.738,3.88,3.883,3.88h11.644v11.644
		c0,2.146,1.736,3.883,3.881,3.883c2.144,0,3.882-1.737,3.882-3.883v-11.644h11.644c2.145,0,3.883-1.736,3.883-3.88
		C370.097,353.452,368.359,351.716,366.214,351.716L366.214,351.716z M366.214,351.716"/>
</g>
<g id="handcrafted" display="none">
	<g transform="translate(1 1)" display="inline">
		<g>
			<path fill="#FFFFFF" d="M398.65,245.456c-1.359-1.385-3.396-1.385-4.753,0c-11.72,11.308-21.37,12.664-31.434,3.795l3.259-2.756
				c8.825-9.35,8.825-24.24,0-33.243c-8.827-9.003-23.425-9.003-32.59,0.347l-2.612,3.222l-3.499-3.569
				c-9.165-9.003-23.762-9.003-32.588,0c-4.413,4.501-6.79,10.389-6.79,16.621c0,6.233,2.377,12.121,6.79,16.622l6.706,6.567
				l-47.911,59.094l-11.413-11.641c-9.166-9.004-23.763-9.004-32.588,0c-4.414,4.501-6.79,10.389-6.79,16.621
				s2.376,12.119,6.79,16.621l14.548,14.727l-23.714,29.25c-1.018,1.386-1.018,3.117,0.339,4.501
				c0.679,0.692,1.358,1.038,2.377,1.038c0.679,0,1.697-0.346,2.037-0.692l28.683-24.256l20.201,20.448
				c0.679,0.692,1.357,1.038,2.376,1.038c0.679,0,1.697-0.346,2.376-0.691c1.358-1.386,1.358-3.464,0-4.849l-19.858-20.257
				l42.861-36.25l10.265,10.797c4.414,4.502,10.186,6.58,15.615,6.58c6.45,0,12.561-2.771,17.313-6.58
				c8.826-9.349,8.826-24.237,0-33.242l-7.719-7.558l40.305-34.086c5.94,5.508,12.137,8.402,18.335,8.402
				c7.468,0,15.276-3.809,23.084-11.774C400.006,248.919,400.006,246.84,398.65,245.456z M299.184,241.646
				c-3.055-3.116-4.752-7.272-4.752-11.773s1.697-8.656,4.752-11.773c6.45-6.579,16.634-6.579,23.083,0l3.948,4.027l-20.784,25.636
				L299.184,241.646z M213.978,328.908c-3.055-3.116-4.752-7.272-4.752-11.772c0-4.503,1.697-8.659,4.752-11.775
				c6.45-6.578,16.634-6.578,23.083,0l11.863,12.103l-20.898,25.776L213.978,328.908z M228.236,353.841l0.375-0.463l0.079,0.08
				L228.236,353.841z M233.803,349.132l-0.959-0.979 M319.893,300.515c6.109,6.579,6.109,16.967,0,23.199
				c-6.11,5.194-16.634,6.578-23.084,0l-10.15-10.354l25.055-21.19L319.893,300.515z"/>
		</g>
	</g>
	<path display="inline" fill="#099BD7" d="M343.542,245.493c-1.798,1.799-3.731,1.516-5.076,0.169l0,0
		c-1.347-1.346-1.253-3.608,0.549-5.407l10.406-10.367c1.799-1.8,3.805-1.68,5.15-0.333l0,0c1.348,1.346,1.354,3.492-0.447,5.291
		L343.542,245.493z"/>
	<polygon display="inline" fill="#FFFFFF" points="346.87,243.488 338.461,234.912 342.764,229.604 351.623,238.641 	"/>
</g>
<g id="Layer_6" display="none">
	<g display="inline">
		<g>
			<path fill="#FFFFFF" d="M364.697,189.022H232.341c-11.399,0-20.674,9.283-20.674,20.674v165.435
				c0,11.422,9.275,20.706,20.674,20.706h132.355c11.397,0,20.673-9.284,20.673-20.706V209.696
				C385.369,198.306,376.094,189.022,364.697,189.022L364.697,189.022z M373.844,371.74c0,6.549-5.329,11.88-11.885,11.88H235.078
				c-6.56,0-11.885-5.331-11.885-11.88V213.119c0-6.549,5.325-11.878,11.885-11.878h126.881c6.556,0,11.885,5.329,11.885,11.878
				V371.74z M377.094,375.162"/>
			<path fill="#FFFFFF" d="M342.146,279.438h-87.225c-2.096,0-3.807,2.129-3.807,4.718c0,2.582,1.711,4.707,3.807,4.707h87.225
				c2.095,0,3.78-2.125,3.78-4.707C345.926,281.567,344.24,279.438,342.146,279.438L342.146,279.438z M342.146,279.438"/>
			<path fill="#FFFFFF" d="M342.146,297.116h-87.225c-2.096,0-3.807,2.13-3.807,4.719c0,2.581,1.711,4.707,3.807,4.707h87.225
				c2.095,0,3.78-2.126,3.78-4.707C345.926,299.246,344.24,297.116,342.146,297.116L342.146,297.116z M342.146,297.116"/>
			<path fill="#FFFFFF" d="M342.146,315.835h-87.225c-2.096,0-3.807,2.129-3.807,4.718c0,2.582,1.711,4.707,3.807,4.707h87.225
				c2.095,0,3.78-2.125,3.78-4.707C345.926,317.964,344.24,315.835,342.146,315.835L342.146,315.835z M342.146,315.835"/>
			<path fill="#FFFFFF" d="M342.146,333.513h-87.225c-2.096,0-3.807,2.13-3.807,4.719c0,2.581,1.711,4.707,3.807,4.707h87.225
				c2.095,0,3.78-2.126,3.78-4.707C345.926,335.643,344.24,333.513,342.146,333.513L342.146,333.513z M342.146,333.513"/>
			<path fill="#FFFFFF" d="M342.146,296.774"/>
			<path fill="#FFFFFF" d="M302.766,262.761c0-7.211-8.28-16.892-19.456-19.737c4.652-3.119,7.865-9.342,7.865-14.929
				c0-7.866-6.37-14.241-14.237-14.241c-7.865,0-14.272,6.375-14.272,14.241c0,5.586,3.213,11.778,7.901,14.929
				c-11.18,2.845-19.453,12.559-19.453,19.737C251.115,271.228,302.766,271.228,302.766,262.761L302.766,262.761z"/>
		</g>
		<circle fill="#099BD7" cx="334.13" cy="340.827" r="29.911"/>
		<path fill="#FFFFFF" d="M350.275,336.79h-12.108v-12.11c0-2.228-1.808-4.035-4.037-4.035s-4.035,1.808-4.035,4.035v12.11h-12.108
			c-2.23,0-4.038,1.806-4.038,4.037c0,2.229,1.808,4.034,4.038,4.034h12.108v12.108c0,2.231,1.806,4.038,4.035,4.038
			s4.037-1.807,4.037-4.038v-12.108h12.108c2.229,0,4.038-1.805,4.038-4.034C354.313,338.596,352.504,336.79,350.275,336.79
			L350.275,336.79z M350.275,336.79"/>
	</g>
</g>
<g id="Layer_7">
	<g>
		<path fill="#FFFFFF" d="M196.36,286.601h94.113v-23.846h19.054v23.846h94.112v-48.047h-36.618
			c6.944-11.771,5.889-25.251-3.911-33.651c-5.451-4.671-13.021-7.243-21.308-7.243c-10.596,0-21.456,4.101-29.807,11.256
			c-7.818,6.698-10.879,17.586-11.994,26.756c-1.115-9.17-4.176-20.058-11.999-26.756c-8.347-7.155-19.211-11.256-29.802-11.256
			c-8.287,0-15.856,2.572-21.308,7.243c-6.454,5.529-9.431,13.602-8.166,22.144c0.583,3.938,2.021,7.834,4.206,11.507H196.36
			V286.601z M326.161,221.047c4.552-3.901,10.399-6.229,15.642-6.229c2.078,0,5.006,0.385,7.144,2.216
			c4.825,4.134,2.64,13.258-4.68,19.53c-3.59,3.075-13.025,5.182-24.702,5.626C320.02,233.971,321.986,224.625,326.161,221.047
			L326.161,221.047z M251.054,217.034c2.141-1.831,5.07-2.216,7.147-2.216c5.242,0,11.091,2.328,15.642,6.229
			c4.216,3.61,6.162,12.864,6.602,21.143c-11.675-0.444-21.123-2.551-24.706-5.626c-3.941-3.376-6.543-7.628-7.145-11.671
			C248.316,222.987,248.258,219.43,251.054,217.034L251.054,217.034z M290.473,301.828v87.513h-79.847v-87.513H290.473z
			 M309.531,389.341v-87.513h79.841v87.513H309.531z M309.531,389.341"/>
	</g>
</g>
</svg>
