<?xml version="1.0" encoding="utf-8"?>
<!-- Generator: Adobe Illustrator 16.0.0, SVG Export Plug-In . SVG Version: 6.00 Build 0)  -->
<!DOCTYPE svg PUBLIC "-//W3C//DTD SVG 1.1//EN" "http://www.w3.org/Graphics/SVG/1.1/DTD/svg11.dtd">
<svg version="1.1" id="artwork" xmlns="http://www.w3.org/2000/svg" xmlns:xlink="http://www.w3.org/1999/xlink" x="0px" y="0px"
	 width="135.625px" height="40px" viewBox="0 0 135.625 40" enable-background="new 0 0 135.625 40" xml:space="preserve">
<g>
	<rect x="-9.375" y="-10" fill="#FFFFFF" fill-opacity="0" width="155" height="60"/>
	<g>
		<path d="M130.625,40h-125c-2.75,0-5-2.25-5-5V5c0-2.75,2.25-5,5-5h125c2.75,0,5,2.25,5,5v30C135.625,37.75,133.375,40,130.625,40z
			"/>
	</g>
	<g>
		<g>
			<path fill="#A6A6A6" d="M130.625,0.8c2.316,0,4.2,1.884,4.2,4.2v30c0,2.316-1.884,4.2-4.2,4.2h-125c-2.316,0-4.2-1.884-4.2-4.2V5
				c0-2.316,1.884-4.2,4.2-4.2H130.625 M130.625,0h-125c-2.75,0-5,2.25-5,5v30c0,2.75,2.25,5,5,5h125c2.75,0,5-2.25,5-5V5
				C135.625,2.25,133.375,0,130.625,0L130.625,0z"/>
		</g>
	</g>
	<g>
		<path fill="#FFFFFF" stroke="#FFFFFF" stroke-width="0.2" stroke-miterlimit="10" d="M83.043,14.243
			c0,0.838-0.248,1.505-0.745,2.003c-0.563,0.592-1.3,0.888-2.204,0.888c-0.865,0-1.603-0.3-2.207-0.899
			c-0.607-0.602-0.91-1.346-0.91-2.233c0-0.89,0.303-1.633,0.91-2.233c0.604-0.601,1.342-0.9,2.207-0.9
			c0.43,0,0.842,0.084,1.231,0.251c0.391,0.168,0.704,0.391,0.938,0.67l-0.527,0.528c-0.397-0.476-0.944-0.713-1.644-0.713
			c-0.632,0-1.178,0.223-1.639,0.666c-0.461,0.444-0.69,1.021-0.69,1.73s0.23,1.286,0.691,1.73c0.461,0.443,1.007,0.666,1.639,0.666
			c0.67,0,1.229-0.224,1.676-0.67c0.291-0.291,0.459-0.697,0.504-1.216h-2.18v-0.72h2.907
			C83.029,13.947,83.043,14.098,83.043,14.243z"/>
		<path fill="#FFFFFF" stroke="#FFFFFF" stroke-width="0.2" stroke-miterlimit="10" d="M87.652,11.736H84.92v1.904h2.464v0.721
			H84.92v1.902h2.732V17H84.15v-6h3.502V11.736z"/>
		<path fill="#FFFFFF" stroke="#FFFFFF" stroke-width="0.2" stroke-miterlimit="10" d="M90.904,17h-0.771v-5.264h-1.676V11h4.123
			v0.736h-1.676V17L90.904,17z"/>
		<path fill="#FFFFFF" stroke="#FFFFFF" stroke-width="0.2" stroke-miterlimit="10" d="M95.563,17v-6h0.771v6H95.563z"/>
		<path fill="#FFFFFF" stroke="#FFFFFF" stroke-width="0.2" stroke-miterlimit="10" d="M99.753,17h-0.771v-5.264h-1.676V11h4.123
			v0.736h-1.677V17z"/>
		<path fill="#FFFFFF" stroke="#FFFFFF" stroke-width="0.2" stroke-miterlimit="10" d="M109.234,16.225
			c-0.59,0.606-1.323,0.909-2.2,0.909s-1.61-0.303-2.199-0.909c-0.59-0.605-0.884-1.348-0.884-2.225s0.294-1.619,0.884-2.225
			c0.589-0.606,1.322-0.91,2.199-0.91c0.872,0,1.604,0.305,2.196,0.914s0.888,1.349,0.888,2.221
			C110.118,14.877,109.822,15.619,109.234,16.225z M105.404,15.723c0.443,0.449,0.986,0.674,1.63,0.674s1.187-0.226,1.63-0.674
			c0.443-0.451,0.667-1.024,0.667-1.723s-0.224-1.271-0.667-1.723c-0.443-0.449-0.986-0.674-1.63-0.674s-1.187,0.226-1.63,0.674
			c-0.443,0.451-0.666,1.024-0.666,1.723S104.961,15.271,105.404,15.723z"/>
		<path fill="#FFFFFF" stroke="#FFFFFF" stroke-width="0.2" stroke-miterlimit="10" d="M111.2,17v-6h0.938l2.916,4.667h0.032
			l-0.032-1.156V11h0.771v6h-0.806l-3.051-4.895h-0.033l0.033,1.156V17H111.2z"/>
	</g>
	<path fill="#FFFFFF" d="M92.604,24.788c-1.41,0-2.559,1.072-2.559,2.548c0,1.468,1.148,2.549,2.559,2.549
		c1.408,0,2.559-1.081,2.559-2.549C95.16,25.86,94.012,24.788,92.604,24.788z M92.604,28.882c-0.773,0-1.439-0.639-1.439-1.545
		c0-0.917,0.667-1.545,1.439-1.545c0.771,0,1.438,0.628,1.438,1.545C94.041,28.243,93.375,28.882,92.604,28.882z M87.022,24.788
		c-1.409,0-2.558,1.072-2.558,2.548c0,1.468,1.148,2.549,2.558,2.549s2.558-1.081,2.558-2.549
		C89.58,25.86,88.432,24.788,87.022,24.788z M87.022,28.882c-0.772,0-1.438-0.639-1.438-1.545c0-0.917,0.667-1.545,1.438-1.545
		c0.772,0,1.438,0.628,1.438,1.545C88.461,28.243,87.795,28.882,87.022,28.882z M80.385,25.57v1.081h2.588
		c-0.078,0.608-0.28,1.053-0.59,1.36c-0.376,0.376-0.965,0.792-1.998,0.792c-1.592,0-2.838-1.284-2.838-2.877
		s1.246-2.877,2.838-2.877c0.859,0,1.486,0.339,1.949,0.772l0.764-0.762c-0.646-0.618-1.506-1.091-2.713-1.091
		c-2.182,0-4.016,1.775-4.016,3.957s1.834,3.958,4.016,3.958c1.178,0,2.066-0.388,2.761-1.111c0.714-0.714,0.937-1.718,0.937-2.528
		c0-0.25-0.02-0.482-0.059-0.675H80.385L80.385,25.57z M107.532,26.41c-0.214-0.57-0.86-1.622-2.184-1.622
		c-1.312,0-2.403,1.033-2.403,2.548c0,1.429,1.081,2.549,2.53,2.549c1.166,0,1.843-0.715,2.123-1.13l-0.868-0.58
		c-0.29,0.426-0.688,0.706-1.255,0.706c-0.569,0-0.976-0.261-1.235-0.773l3.406-1.409L107.532,26.41z M104.056,27.26
		c-0.029-0.985,0.764-1.487,1.333-1.487c0.444,0,0.821,0.223,0.946,0.54L104.056,27.26z M101.286,29.73h1.119v-7.49h-1.119V29.73z
		 M99.451,25.357h-0.037c-0.252-0.3-0.735-0.569-1.342-0.569c-1.275,0-2.443,1.119-2.443,2.559c0,1.427,1.168,2.538,2.443,2.538
		c0.607,0,1.09-0.271,1.342-0.579h0.037v0.367c0,0.975-0.521,1.495-1.36,1.495c-0.685,0-1.11-0.491-1.284-0.907l-0.975,0.406
		c0.279,0.676,1.022,1.506,2.259,1.506c1.313,0,2.423-0.772,2.423-2.654v-4.576h-1.061v0.415H99.451z M98.168,28.882
		c-0.771,0-1.418-0.647-1.418-1.535c0-0.898,0.646-1.555,1.418-1.555c0.763,0,1.36,0.656,1.36,1.555
		C99.528,28.234,98.931,28.882,98.168,28.882z M112.777,22.24h-2.68v7.49h1.117v-2.838h1.561c1.239,0,2.457-0.896,2.457-2.325
		C115.232,23.138,114.015,22.24,112.777,22.24z M112.805,25.85h-1.59v-2.567h1.59c0.837,0,1.311,0.693,1.311,1.285
		C114.115,25.146,113.642,25.85,112.805,25.85z M119.716,24.774c-0.811,0-1.649,0.357-1.996,1.147l0.993,0.413
		c0.211-0.413,0.607-0.549,1.02-0.549c0.578,0,1.167,0.347,1.177,0.963v0.077c-0.202-0.115-0.637-0.288-1.166-0.288
		c-1.07,0-2.159,0.588-2.159,1.687c0,1.002,0.877,1.647,1.861,1.647c0.749,0,1.164-0.337,1.425-0.733h0.038v0.578h1.081v-2.871
		C121.989,25.517,120.995,24.774,119.716,24.774z M119.578,28.88c-0.364,0-0.876-0.185-0.876-0.637c0-0.578,0.637-0.8,1.186-0.8
		c0.491,0,0.722,0.106,1.021,0.25C120.821,28.388,120.224,28.88,119.578,28.88z M125.92,24.938l-1.282,3.247H124.6l-1.33-3.247
		h-1.204l1.994,4.538l-1.137,2.524h1.166l3.074-7.063H125.92z M115.851,29.73h1.117v-7.49h-1.117V29.73z"/>
	<g>
		
			<linearGradient id="SVGID_1_" gradientUnits="userSpaceOnUse" x1="286.0273" y1="322.6992" x2="269.2449" y2="339.4817" gradientTransform="matrix(1 0 0 1 -222.5996 -313.9902)">
			<stop  offset="0" style="stop-color:#00A0FF"/>
			<stop  offset="0.0066" style="stop-color:#00A1FF"/>
			<stop  offset="0.2601" style="stop-color:#00BEFF"/>
			<stop  offset="0.5122" style="stop-color:#00D2FF"/>
			<stop  offset="0.7604" style="stop-color:#00DFFF"/>
			<stop  offset="1" style="stop-color:#00E3FF"/>
		</linearGradient>
		<path fill="url(#SVGID_1_)" d="M52.061,7.538c-0.291,0.308-0.463,0.786-0.463,1.405v22.116c0,0.621,0.172,1.098,0.463,1.405
			l0.074,0.072l12.389-12.389v-0.146v-0.146l-12.39-12.39L52.061,7.538z"/>
		
			<linearGradient id="SVGID_2_" gradientUnits="userSpaceOnUse" x1="298.0586" y1="333.9912" x2="273.8627" y2="333.9912" gradientTransform="matrix(1 0 0 1 -222.5996 -313.9902)">
			<stop  offset="0" style="stop-color:#FFE000"/>
			<stop  offset="0.4087" style="stop-color:#FFBD00"/>
			<stop  offset="0.7754" style="stop-color:#FFA500"/>
			<stop  offset="1" style="stop-color:#FF9C00"/>
		</linearGradient>
		<path fill="url(#SVGID_2_)" d="M68.652,24.277l-4.128-4.13v-0.146v-0.146l4.13-4.13l0.093,0.053l4.894,2.78
			c1.396,0.794,1.396,2.092,0,2.887l-4.894,2.781L68.652,24.277z"/>
		
			<linearGradient id="SVGID_3_" gradientUnits="userSpaceOnUse" x1="289.0537" y1="336.2861" x2="266.2952" y2="359.0446" gradientTransform="matrix(1 0 0 1 -222.5996 -313.9902)">
			<stop  offset="0" style="stop-color:#FF3A44"/>
			<stop  offset="1" style="stop-color:#C31162"/>
		</linearGradient>
		<path fill="url(#SVGID_3_)" d="M68.747,24.225l-4.224-4.224L52.061,32.464c0.46,0.488,1.221,0.548,2.078,0.062L68.747,24.225"/>
		
			<linearGradient id="SVGID_4_" gradientUnits="userSpaceOnUse" x1="271.5244" y1="314.168" x2="281.6867" y2="324.3303" gradientTransform="matrix(1 0 0 1 -222.5996 -313.9902)">
			<stop  offset="0" style="stop-color:#32A071"/>
			<stop  offset="0.0685" style="stop-color:#2DA771"/>
			<stop  offset="0.4762" style="stop-color:#15CF74"/>
			<stop  offset="0.8009" style="stop-color:#06E775"/>
			<stop  offset="1" style="stop-color:#00F076"/>
		</linearGradient>
		<path fill="url(#SVGID_4_)" d="M68.747,15.777l-14.608-8.3c-0.857-0.487-1.618-0.426-2.078,0.062l12.463,12.463L68.747,15.777z"/>
		<g>
			<path opacity="0.2" enable-background="new    " d="M68.654,24.132L54.139,32.38c-0.812,0.461-1.538,0.431-2.004,0.011l0,0
				l-0.074,0.074l0,0l0.074,0.072l0,0c0.466,0.42,1.192,0.451,2.004-0.012l14.608-8.299L68.654,24.132z"/>
			<path opacity="0.12" enable-background="new    " d="M52.061,32.318c-0.291-0.309-0.463-0.786-0.463-1.405v0.146
				c0,0.619,0.172,1.098,0.463,1.405l0.074-0.073L52.061,32.318z"/>
		</g>
		<path opacity="0.12" enable-background="new    " d="M73.641,21.299l-4.986,2.833l0.093,0.093l4.894-2.779
			c0.698-0.397,1.047-0.92,1.047-1.443l0,0C74.629,20.475,74.273,20.938,73.641,21.299z"/>
		<path opacity="0.25" fill="#FFFFFF" enable-background="new    " d="M54.139,7.623l19.501,11.08
			c0.633,0.36,0.988,0.824,1.047,1.298l0,0c0-0.523-0.349-1.047-1.047-1.444L54.139,7.477c-1.398-0.794-2.541-0.134-2.541,1.466
			v0.146C51.598,7.489,52.741,6.829,54.139,7.623z"/>
	</g>
</g>
<path fill="#FFFFFF" d="M1.443,27.126c0,0,0.019,6.181,0,8.241c-0.021,2.356,2.116,3.858,3.71,3.858c3.507,0,15.553,0,15.553,0
	l38.45-38.371H28.058L1.443,27.126z"/>
<g>
	<path fill="#0098D6" d="M11.782,28.918c-0.523-0.063-1.121,0.258-1.471,0.607c-0.404,0.404-0.781,1.148-0.295,1.637
		c1.187,1.186,3.42-2.574,5.701-0.295c1.451,1.453,0.974,3.31-0.368,4.651c-0.837,0.837-1.821,1.323-3.006,1.37l-0.102-2.142
		c0.681,0.091,1.388-0.157,1.866-0.635c0.469-0.469,0.772-1.214,0.313-1.674c-1.195-1.194-3.604,2.501-5.773,0.331
		c-1.388-1.388-0.91-3.318,0.368-4.596c0.735-0.735,1.637-1.25,2.675-1.314L11.782,28.918z"/>
	<path fill="#0098D6" d="M15.248,21.941c2.032-2.032,4.845-2.179,6.931-0.092c2.088,2.086,1.94,4.899-0.092,6.932
		c-2.031,2.031-4.844,2.178-6.932,0.092C13.069,26.785,13.215,23.973,15.248,21.941z M20.763,27.457
		c1.223-1.223,1.14-2.904-0.073-4.119c-1.214-1.213-2.896-1.295-4.119-0.072s-1.139,2.904,0.074,4.117
		C17.859,28.597,19.541,28.68,20.763,27.457z"/>
	<path fill="#0098D6" d="M22.895,14.293c2.032-2.032,4.845-2.179,6.932-0.092s1.939,4.9-0.092,6.932
		c-2.031,2.031-4.845,2.179-6.932,0.092S20.864,16.325,22.895,14.293z M28.411,19.809c1.223-1.223,1.141-2.905-0.073-4.119
		c-1.214-1.213-2.896-1.296-4.118-0.073s-1.141,2.905,0.073,4.118C25.506,20.949,27.188,21.031,28.411,19.809z"/>
	<path fill="#0098D6" d="M27.547,9.973l1.948-1.949l7.29,1.756l0.019-0.019l-4.522-4.523l1.434-1.434l6.508,6.508l-1.875,1.875
		l-7.473-1.792l-0.02,0.019l4.633,4.633l-1.434,1.434L27.547,9.973z"/>
</g>
</svg>
