<?xml version="1.0" encoding="utf-8"?>
<!-- Generator: Adobe Illustrator 16.0.0, SVG Export Plug-In . SVG Version: 6.00 Build 0)  -->
<!DOCTYPE svg PUBLIC "-//W3C//DTD SVG 1.1//EN" "http://www.w3.org/Graphics/SVG/1.1/DTD/svg11.dtd">
<svg version="1.1" xmlns="http://www.w3.org/2000/svg" xmlns:xlink="http://www.w3.org/1999/xlink" x="0px" y="0px" width="55px"
	 height="54px" viewBox="0 0 55 54" enable-background="new 0 0 55 54" xml:space="preserve">
<g id="base" xmlns:sketch="http://www.bohemiancoding.com/sketch/ns">
	<title>Shopkick Icon</title>
	<desc>Created with Sketch.</desc>
	<path id="Fill-1" fill="none" stroke="#0098D6" stroke-width="2" d="M53.244,27.068c0,14.165-11.486,25.647-25.654,25.647
		c-14.168,0-25.654-11.482-25.654-25.647c0-14.164,11.486-25.646,25.654-25.646C41.758,1.422,53.244,12.904,53.244,27.068"/>
</g>
<g id="sheet" display="none">
	<path display="inline" fill="#0098D6" d="M28.187,41.73c0.021,0.004,0.041,0.006,0.063,0.006c0.07,0,0.141-0.018,0.206-0.047
		l10.2-4.65c0.211-0.096,0.326-0.326,0.278-0.553c-0.049-0.229-0.247-0.393-0.479-0.395c-0.085,0-8.342-0.176-12.007-7.502
		c-0.346-0.688-1.198-1.101-1.934-0.926l-8.514,2.051c-0.411,0.1-0.739,0.363-0.899,0.719c-0.154,0.35-0.133,0.756,0.061,1.113
		C16.643,34.293,20.872,40.781,28.187,41.73L28.187,41.73z M16.006,30.836c0.034-0.072,0.116-0.131,0.227-0.156l8.514-2.053
		c0.041-0.01,0.088-0.014,0.134-0.014c0.272,0,0.561,0.178,0.682,0.422c2.843,5.676,8.235,7.352,11.057,7.844l-8.443,3.852
		c-6.778-0.955-10.745-7.059-12.143-9.652C16.001,31.016,15.967,30.924,16.006,30.836L16.006,30.836z M16.006,30.836"/>
	<g display="inline">
		<path d="M37.572,25.467l-1.271-0.312c-1.138-0.278-2.149-1.63-2.553-2.732c-1.104-3.038,0.445-6.192,1.033-7.219
			c0.052-0.092,0.065-0.202,0.036-0.304c-0.028-0.102-0.099-0.187-0.191-0.238l-5.161-2.775c-0.059-0.031-0.123-0.046-0.188-0.046
			c-0.06,0-0.119,0.014-0.174,0.04c-0.115,0.057-0.194,0.165-0.215,0.289c-0.294,1.779-1.109,3.198-1.89,4.202
			c1.234,0.98,2.026,2.493,2.026,4.189c0,1.354-0.506,2.594-1.341,3.537l1.055,0.665c0.907,0.573,1.599,1.433,1.959,2.444
			c0.29,0.806,0.897,1.458,1.681,1.806c0.401,0.176,0.831,0.266,1.262,0.266c0.781,0,1.644-0.184,4.158-0.924
			c0.566-0.174,0.776-0.561,0.894-1.045C38.893,26.491,38.391,25.667,37.572,25.467L37.572,25.467z M37.572,25.467"/>
		<path d="M27.102,16.246c-0.32,0.322-0.592,0.616-0.771,0.763c-0.079,0.059-0.156,0.12-0.232,0.184
			c-0.84,0.727-1.528,1.893-1.445,2.999c0.083,1.109,0.637,2.344,1.576,2.936l1.456,0.971c0.854-0.871,1.56-2.556,1.56-3.869
			c0-1.557-0.992-3.046-2.141-3.928L27.102,16.246z M27.102,16.246"/>
	</g>
</g>
<g id="still" display="none">
	<path display="inline" fill="#0098D6" d="M16.563,17.61c-0.329-0.393-0.863-0.393-1.191,0l-2.381,2.815
		c-0.17,0.201-0.245,0.468-0.241,0.733c-0.003,0.263,0.071,0.525,0.241,0.726l1.815,2.149l-1.815,2.146
		c-0.17,0.201-0.245,0.469-0.241,0.731c-0.003,0.262,0.071,0.527,0.241,0.729l1.815,2.147l-1.815,2.152
		c-0.17,0.198-0.245,0.466-0.241,0.726c-0.003,0.264,0.071,0.531,0.241,0.728l2.365,2.802c0.329,0.388,0.858,0.388,1.183,0
		c0.328-0.385,0.328-1.011,0-1.399l-1.788-2.118l1.812-2.151c0.253-0.3,0.304-0.738,0.17-1.108c-0.04-0.135-0.1-0.267-0.194-0.376
		l-1.788-2.121l1.812-2.146c0.253-0.299,0.304-0.742,0.17-1.113c-0.04-0.137-0.1-0.269-0.194-0.375l-1.788-2.123l1.812-2.146
		C16.891,18.63,16.891,17.999,16.563,17.61L16.563,17.61z M41.917,26.898c0.007-0.264-0.073-0.529-0.242-0.73l-1.815-2.146
		l1.815-2.142c0.169-0.202,0.249-0.463,0.242-0.729c0.007-0.261-0.073-0.527-0.242-0.729l-2.381-2.812
		c-0.328-0.388-0.862-0.388-1.19,0c-0.328,0.389-0.328,1.014,0,1.408l1.814,2.141l-1.791,2.119c-0.094,0.108-0.15,0.239-0.189,0.379
		c-0.138,0.365-0.087,0.805,0.166,1.104l1.814,2.146l-1.791,2.117c-0.094,0.109-0.15,0.241-0.189,0.376
		c-0.138,0.367-0.087,0.809,0.166,1.108l1.814,2.147l-1.791,2.111c-0.324,0.388-0.324,1.015,0,1.4c0.328,0.388,0.859,0.388,1.182,0
		l2.366-2.8c0.169-0.196,0.249-0.463,0.242-0.724c0.003-0.263-0.073-0.53-0.242-0.729l-1.815-2.147l1.815-2.146
		C41.844,27.426,41.924,27.158,41.917,26.898L41.917,26.898z M41.917,26.898"/>
	<rect x="20" y="23" display="inline" fill="none" width="28.8" height="17.76"/>
	<g display="inline">
		<ellipse fill="#0098D6" cx="23.452" cy="15.008" rx="1.515" ry="1.934"/>
		
			<ellipse transform="matrix(0.9883 0.1524 -0.1524 0.9883 2.6501 -3.8887)" fill="#0098D6" cx="26.697" cy="15.347" rx="1.232" ry="1.538"/>
		
			<ellipse transform="matrix(0.9669 0.2551 -0.2551 0.9669 5.2073 -6.8911)" fill="#0098D6" cx="29.168" cy="16.628" rx="1.122" ry="1.4"/>
		
			<ellipse transform="matrix(0.9669 0.2551 -0.2551 0.9669 6.2929 -7.7496)" fill="#0098D6" cx="33.023" cy="20.385" rx="1.014" ry="1.169"/>
		
			<ellipse transform="matrix(0.9632 0.2687 -0.2687 0.9632 6.0523 -7.739)" fill="#0098D6" cx="31.304" cy="18.245" rx="1.026" ry="1.335"/>
		<g>
			<path fill-rule="evenodd" clip-rule="evenodd" fill="#0098D6" d="M32.498,25.129c-0.097,0.551-0.177,1.106-0.298,1.653
				c-0.176,0.804-0.461,1.571-0.792,2.319c-0.399,0.904-0.532,1.87-0.709,2.823c-0.243,1.315-0.258,2.647-0.285,3.982
				c-0.024,1.14-0.228,2.262-0.874,3.241c-0.568,0.866-1.352,1.422-2.413,1.526c-0.063,0.007-0.094,0.007-0.186,0.025
				c-0.329,0.032-0.669,0.036-0.998,0.011c-0.737-0.208-1.417-0.514-1.98-1.041c-0.986-0.924-1.291-2.089-1.075-3.384
				c0.217-1.32,0.744-2.55,1.231-3.788c0.331-0.843,0.711-1.67,0.843-2.584c0.077-0.537-0.031-1.041-0.157-1.537
				c-0.215-0.844-0.638-1.603-1.025-2.379c-0.612-1.223-1.448-2.318-1.968-3.588c-0.625-1.53,0-3.705,1.325-4.566
				c0.607-0.394,1.29-0.399,1.967-0.329c1.619,0.165,3.123,0.718,4.462,1.615c1.496,1.001,2.452,2.418,2.808,4.216
				c0.055,0.281,0,0.576,0.124,0.846C32.498,24.503,32.498,24.817,32.498,25.129z"/>
		</g>
	</g>
</g>
<g id="Layer_4" display="none">
	<g display="inline" opacity="0.7">
		<path fill="#0098D6" d="M34.247,12.139H20.933c-1.108,0-2.017,0.909-2.017,2.017v25.828c0,1.108,0.909,2.017,2.017,2.017h13.314
			c1.108,0,2.017-0.908,2.017-2.017V14.155C36.264,13.047,35.355,12.139,34.247,12.139L34.247,12.139z M25.461,13.592h4.257
			c0.138,0,0.246,0.108,0.246,0.246c0,0.133-0.108,0.241-0.246,0.241h-4.257c-0.138,0-0.247-0.108-0.247-0.241
			C25.215,13.701,25.324,13.592,25.461,13.592L25.461,13.592z M27.59,40.992c-0.559,0-1.008-0.45-1.008-1.009
			c0-0.558,0.449-1.008,1.008-1.008c0.558,0,1.008,0.45,1.008,1.008C28.598,40.542,28.147,40.992,27.59,40.992L27.59,40.992z
			 M34.859,38.268H20.32v-22.93h14.54V38.268z M34.859,38.268"/>
	</g>
	<g display="inline">
		<ellipse fill="#0098D6" cx="25.75" cy="21.151" rx="0.754" ry="0.962"/>
		
			<ellipse transform="matrix(0.9883 0.1525 -0.1525 0.9883 3.5714 -3.9241)" fill="#0098D6" cx="27.366" cy="21.319" rx="0.613" ry="0.765"/>
		
			<ellipse transform="matrix(0.967 0.2549 -0.2549 0.967 6.5401 -6.5626)" fill="#0098D6" cx="28.595" cy="21.957" rx="0.558" ry="0.696"/>
		
			<ellipse transform="matrix(0.9669 0.255 -0.255 0.9669 7.0859 -6.9944)" fill="#0098D6" cx="30.514" cy="23.827" rx="0.504" ry="0.581"/>
		
			<ellipse transform="matrix(0.9631 0.269 -0.269 0.9631 7.2169 -7.1397)" fill="#0098D6" cx="29.658" cy="22.762" rx="0.51" ry="0.664"/>
		<g>
			<path fill-rule="evenodd" clip-rule="evenodd" fill="#0098D6" d="M30.253,26.188c-0.049,0.273-0.089,0.55-0.148,0.823
				c-0.088,0.4-0.229,0.781-0.394,1.153c-0.199,0.45-0.266,0.933-0.353,1.404c-0.121,0.655-0.129,1.318-0.144,1.983
				c-0.011,0.566-0.113,1.126-0.434,1.613c-0.284,0.431-0.674,0.708-1.202,0.759c-0.031,0.005-0.046,0.005-0.092,0.013
				c-0.164,0.017-0.333,0.019-0.497,0.006c-0.367-0.104-0.706-0.255-0.985-0.518c-0.491-0.46-0.643-1.04-0.535-1.684
				c0.107-0.658,0.37-1.27,0.612-1.887c0.165-0.419,0.354-0.831,0.42-1.285c0.038-0.268-0.016-0.518-0.079-0.767
				c-0.106-0.419-0.317-0.796-0.509-1.183c-0.305-0.608-0.721-1.153-0.979-1.786c-0.311-0.761,0-1.843,0.659-2.272
				c0.303-0.196,0.642-0.199,0.979-0.164c0.806,0.082,1.555,0.357,2.22,0.804c0.745,0.499,1.222,1.203,1.398,2.099
				c0.026,0.14,0,0.287,0.062,0.42C30.253,25.877,30.253,26.033,30.253,26.188z"/>
		</g>
	</g>
	<g display="inline">
		<path fill="#3D3D3D" d="M33.331,21.913v-2.418c0-0.155-0.112-0.283-0.249-0.283h-2.129c-0.138,0-0.251,0.127-0.251,0.283
			c0,0.157,0.113,0.284,0.251,0.284h1.879v2.134c0,0.156,0.112,0.283,0.25,0.283C33.219,22.196,33.331,22.069,33.331,21.913
			L33.331,21.913z M33.331,21.913"/>
		<path fill="#3D3D3D" d="M33.331,34.6v-2.417c0-0.155-0.112-0.283-0.249-0.283c-0.138,0-0.25,0.128-0.25,0.283v2.134h-1.879
			c-0.138,0-0.251,0.127-0.251,0.283c0,0.157,0.113,0.283,0.251,0.283h2.129C33.219,34.883,33.331,34.757,33.331,34.6L33.331,34.6z
			 M33.331,34.6"/>
		<path fill="#3D3D3D" d="M22.686,21.913v-2.134h1.879c0.138,0,0.249-0.127,0.249-0.284c0-0.155-0.111-0.283-0.249-0.283h-2.129
			c-0.138,0-0.25,0.127-0.25,0.283v2.418c0,0.156,0.112,0.283,0.25,0.283S22.686,22.069,22.686,21.913L22.686,21.913z
			 M22.686,21.913"/>
		<path fill="#3D3D3D" d="M24.814,34.6c0-0.156-0.111-0.283-0.249-0.283h-1.879v-2.134c0-0.155-0.112-0.283-0.25-0.283
			s-0.25,0.128-0.25,0.283V34.6c0,0.157,0.112,0.283,0.25,0.283h2.129C24.703,34.883,24.814,34.757,24.814,34.6L24.814,34.6z
			 M24.814,34.6"/>
	</g>
</g>
<g id="Layer_5" display="none">
	<g display="inline" opacity="0.7">
		<path fill="#0098D6" d="M42.431,33.727V20.412c0-1.107-0.908-2.017-2.017-2.017H14.586c-1.108,0-2.017,0.909-2.017,2.017v13.314
			c0,1.108,0.908,2.017,2.017,2.017h25.828C41.522,35.743,42.431,34.835,42.431,33.727L42.431,33.727z M40.978,24.94v4.258
			c0,0.138-0.108,0.246-0.246,0.246c-0.134,0-0.241-0.108-0.241-0.246V24.94c0-0.138,0.107-0.246,0.241-0.246
			C40.869,24.694,40.978,24.803,40.978,24.94L40.978,24.94z M13.577,27.069c0-0.559,0.45-1.008,1.009-1.008
			c0.558,0,1.008,0.449,1.008,1.008c0,0.558-0.45,1.008-1.008,1.008C14.027,28.077,13.577,27.627,13.577,27.069L13.577,27.069z
			 M16.302,34.339v-14.54h22.93v14.54H16.302z M16.302,34.339"/>
	</g>
	<g display="inline">
		<ellipse fill="#0098D6" cx="26.182" cy="22.683" rx="0.558" ry="0.712"/>
		
			<ellipse transform="matrix(0.9883 0.1523 -0.1523 0.9883 3.7919 -3.9026)" fill="#0098D6" cx="27.378" cy="22.808" rx="0.454" ry="0.566"/>
		
			<ellipse transform="matrix(0.9669 0.255 -0.255 0.9669 6.872 -6.4441)" fill="#0098D6" cx="28.288" cy="23.28" rx="0.414" ry="0.516"/>
		
			<ellipse transform="matrix(0.967 0.2548 -0.2548 0.967 7.2654 -6.7559)" fill="#0098D6" cx="29.708" cy="24.664" rx="0.374" ry="0.43"/>
		
			<ellipse transform="matrix(0.9632 0.2689 -0.2689 0.9632 7.4913 -6.939)" fill="#0098D6" cx="29.075" cy="23.875" rx="0.378" ry="0.492"/>
		<g>
			<path fill-rule="evenodd" clip-rule="evenodd" fill="#0098D6" d="M29.515,26.411c-0.036,0.202-0.065,0.408-0.109,0.609
				c-0.065,0.295-0.17,0.578-0.292,0.854c-0.147,0.333-0.196,0.69-0.261,1.039c-0.09,0.485-0.096,0.976-0.106,1.468
				c-0.008,0.42-0.083,0.834-0.32,1.194c-0.211,0.318-0.499,0.524-0.89,0.562c-0.023,0.004-0.034,0.004-0.068,0.01
				c-0.121,0.012-0.246,0.014-0.367,0.004c-0.271-0.076-0.522-0.188-0.729-0.383c-0.363-0.341-0.476-0.77-0.396-1.246
				c0.079-0.487,0.273-0.939,0.453-1.396c0.122-0.31,0.262-0.615,0.311-0.951c0.028-0.198-0.012-0.383-0.059-0.567
				c-0.078-0.31-0.234-0.59-0.377-0.876c-0.226-0.45-0.534-0.853-0.725-1.321c-0.23-0.563,0-1.364,0.487-1.682
				c0.225-0.146,0.475-0.147,0.725-0.121c0.597,0.06,1.151,0.264,1.644,0.595c0.551,0.369,0.904,0.891,1.035,1.553
				c0.019,0.104,0,0.213,0.045,0.311C29.515,26.181,29.515,26.297,29.515,26.411z"/>
		</g>
	</g>
	<g display="inline">
		<path fill="#3D3D3D" d="M31.793,23.248v-1.79c0-0.115-0.083-0.209-0.185-0.209h-1.575c-0.103,0-0.186,0.094-0.186,0.209
			c0,0.116,0.083,0.21,0.186,0.21h1.391v1.58c0,0.116,0.083,0.209,0.185,0.209S31.793,23.363,31.793,23.248L31.793,23.248z
			 M31.793,23.248"/>
		<path fill="#3D3D3D" d="M31.793,32.637v-1.789c0-0.114-0.083-0.209-0.185-0.209s-0.185,0.095-0.185,0.209v1.58h-1.391
			c-0.103,0-0.186,0.094-0.186,0.209c0,0.116,0.083,0.21,0.186,0.21h1.575C31.71,32.847,31.793,32.753,31.793,32.637L31.793,32.637z
			 M31.793,32.637"/>
		<path fill="#3D3D3D" d="M23.914,23.248v-1.58h1.391c0.102,0,0.184-0.094,0.184-0.21c0-0.115-0.082-0.209-0.184-0.209h-1.576
			c-0.103,0-0.185,0.094-0.185,0.209v1.79c0,0.116,0.083,0.209,0.185,0.209C23.831,23.457,23.914,23.363,23.914,23.248
			L23.914,23.248z M23.914,23.248"/>
		<path fill="#3D3D3D" d="M25.489,32.637c0-0.115-0.082-0.209-0.184-0.209h-1.391v-1.58c0-0.114-0.083-0.209-0.185-0.209
			c-0.103,0-0.185,0.095-0.185,0.209v1.789c0,0.116,0.083,0.21,0.185,0.21h1.576C25.407,32.847,25.489,32.753,25.489,32.637
			L25.489,32.637z M25.489,32.637"/>
	</g>
</g>
<g id="brand" display="none">
	<g display="inline">
		<path fill="#0098D6" d="M35.988,29.054c0-0.514-0.184-0.965-0.55-1.352L24.82,17.099c-0.376-0.376-0.882-0.695-1.514-0.958
			c-0.634-0.262-1.213-0.394-1.739-0.394H15.39c-0.515,0-0.961,0.189-1.337,0.564c-0.376,0.377-0.564,0.821-0.564,1.337v6.178
			c0,0.524,0.13,1.103,0.394,1.737c0.262,0.634,0.582,1.134,0.957,1.501l10.62,10.633c0.366,0.366,0.812,0.551,1.336,0.551
			c0.516,0,0.965-0.185,1.352-0.551l7.292-7.306C35.805,30.023,35.988,29.579,35.988,29.054L35.988,29.054z M19.585,21.844
			c-0.372,0.373-0.82,0.557-1.345,0.557c-0.524,0-0.972-0.185-1.343-0.557c-0.372-0.372-0.557-0.819-0.557-1.343
			c0-0.525,0.185-0.973,0.557-1.344c0.371-0.373,0.819-0.557,1.343-0.557c0.525,0,0.973,0.185,1.345,0.557
			c0.371,0.372,0.557,0.819,0.557,1.344C20.142,21.025,19.957,21.473,19.585,21.844L19.585,21.844z M19.585,21.844"/>
		<path fill="#0098D6" d="M41.142,27.702L30.523,17.1c-0.377-0.376-0.881-0.695-1.516-0.958c-0.633-0.262-1.213-0.394-1.738-0.394
			h-3.326c0.525,0,1.104,0.132,1.738,0.394c0.633,0.263,1.139,0.582,1.515,0.958l10.617,10.603c0.368,0.387,0.551,0.838,0.551,1.352
			c0,0.525-0.183,0.97-0.551,1.339l-6.979,6.98c0.297,0.305,0.56,0.527,0.786,0.668c0.229,0.139,0.52,0.208,0.878,0.208
			c0.513,0,0.965-0.185,1.35-0.551l7.293-7.306c0.366-0.369,0.55-0.813,0.55-1.339C41.69,28.54,41.508,28.089,41.142,27.702
			L41.142,27.702z M41.142,27.702"/>
	</g>
</g>
<g id="desig-shoes" display="none">
	<g display="inline">
		<g>
			<defs>
				<rect id="SVGID_1_" x="13.39" y="13.728" width="28.4" height="26.683"/>
			</defs>
			<clipPath id="SVGID_2_">
				<use xlink:href="#SVGID_1_"  overflow="visible"/>
			</clipPath>
			<path clip-path="url(#SVGID_2_)" fill="#0098D6" d="M41.219,34.467l-2.729-0.063v-2.212c-3.511-3.639-10.529-1.234-11.504-1.493
				s-0.584-1.234-0.584-1.234c2.081-1.171,6.498-6.294,6.498-6.294c0.132-4.15-2.014-3.557-2.014-3.557
				c-4.821-0.098-12.963-6.791-13.985-5.765c-0.062-0.061-0.14-0.106-0.249-0.112c-3.347-0.209-2.509,4.638-3.236,6.654
				c-0.17,0.476,0.583,0.678,0.752,0.209c0.587-1.627-0.072-6.172,2.429-6.084c-0.791,1.537-2.879,3.293-1.831,7.67
				c1.172,4.874,1.43,16.996,1.43,16.996s2.34,0.163,2.665,0c0,0-0.064-9.716-0.196-13.225c-0.129-3.511,5.134,1.04,7.346,7.864
				c2.209,6.823,4.613,6.303,7.084,6.303c2.469,0,5.85-0.846,7.54-3.185S41.219,34.467,41.219,34.467L41.219,34.467z M22.891,18.869
				c0,0,6.304,2.275,7.539,2.341c0.845,0.043,1.567,0.117,1.231,0.641c-4.033-0.326-8.138-0.852-11.589-3.095
				C20.367,18.289,21.206,18.228,22.891,18.869L22.891,18.869z M24.191,26.083c-0.732-0.603-4.056-4.711-4.237-6.662
				c3.331,2.094,7.252,2.671,11.125,3.005c-0.177,0.14-0.39,0.296-0.649,0.471C28.22,24.393,25.294,26.995,24.191,26.083
				L24.191,26.083z M24.191,26.083"/>
		</g>
	</g>
</g>
<g id="casualshoes" display="none">
	<g display="inline">
		<g>
			<defs>
				<rect id="SVGID_3_" x="9.408" y="20.69" width="36.362" height="12.759"/>
			</defs>
			<clipPath id="SVGID_4_">
				<use xlink:href="#SVGID_3_"  overflow="visible"/>
			</clipPath>
			<path clip-path="url(#SVGID_4_)" fill="#0098D6" d="M18.401,33.144c0,0,1.098-1.283,2.166-1.355
				c1.069-0.067,6.437,2.116,11.837,1.528c5.4-0.592,10.123-2.436,12.967-4.635c0,0,0.355-0.583,0.065-1.681l-0.243,0.021
				c-0.716,0.563-6.696,5.058-14.443,5.058c-0.551,0-1.107-0.023-1.651-0.071c-3.737-0.319-5.741-0.808-6.939-1.098
				c-0.646-0.157-1.071-0.261-1.42-0.261c-0.447,0-0.858,0.178-1.764,0.767l-0.169,0.109l-0.201-0.015L9.74,30.903
				c-0.16,0.568-0.293,1.388,0.059,1.919C10.378,33.694,18.401,33.144,18.401,33.144L18.401,33.144z M18.401,33.144"/>
			<path clip-path="url(#SVGID_4_)" fill="#0098D6" d="M9.94,30.31l8.703,0.597c0.977-0.633,1.495-0.863,2.096-0.863
				c1.169,0,2.657,0.87,8.413,1.361c0.539,0.048,1.071,0.067,1.599,0.067c6.185,0,11.286-3.001,13.254-4.34
				c0.565-0.386,0.876-0.634,0.876-0.634s-1.402-1.616-4.969-1.616c-1.621,0-2.991,0.064-4.045,0.064
				c-1.267,0-2.077-0.091-2.32-0.499c-0.446-0.746-3.376-1.612-3.376-1.612c-0.912-2.016-4.868-2.264-6.759-2.264
				c-0.612,0-1.009,0.027-1.009,0.027v2.047c-1.464,1.16-3.169,1.548-4.791,1.548c-3.246,0-6.161-1.548-6.161-1.548
				c-2.93,2.796-1.846,7.642-1.846,7.642L9.94,30.31z M24.491,24.634l1.27-2.16c0.089-0.151,0.23-0.261,0.402-0.306
				c0.172-0.044,0.349-0.017,0.5,0.072l0.885,0.521c0.095-0.101,0.248-0.133,0.373-0.06c0.124,0.074,0.172,0.222,0.127,0.353
				l0.885,0.521c0.316,0.187,0.42,0.592,0.237,0.905l-1.27,2.157c-0.092,0.154-0.233,0.263-0.406,0.306
				c-0.053,0.014-0.111,0.022-0.166,0.022c-0.117,0-0.229-0.032-0.334-0.092l0.154-0.261l0.153-0.262
				c0.021,0.014,0.063,0.003,0.074-0.019l1.27-2.16c0.015-0.026,0.006-0.059-0.018-0.073l-0.876-0.516l-0.541,0.92
				c-0.057,0.098-0.157,0.151-0.261,0.151c-0.054,0-0.106-0.015-0.154-0.041c-0.145-0.086-0.192-0.272-0.106-0.414l0.541-0.924
				l-0.875-0.512l-0.074,0.018l-1.27,2.159c-0.015,0.027-0.006,0.06,0.018,0.075l-0.15,0.261l-0.154,0.262
				C24.412,25.353,24.305,24.946,24.491,24.634L24.491,24.634z M24.491,24.634"/>
		</g>
	</g>
</g>
<g id="brands" display="none">
	<g display="inline">
		<g id="XMLID_1_">
			<g>
				<path fill="#0098D6" d="M26.348,31.664h-0.363h-0.188c-0.017-0.091-0.044-0.154-0.079-0.191
					c-0.059-0.059-0.16-0.089-0.299-0.089c-0.136,0-0.231,0.022-0.284,0.067c-0.04,0.036-0.061,0.083-0.061,0.142
					c0,0.083,0.117,0.149,0.345,0.201c0.262,0.057,0.451,0.105,0.566,0.146c0.03,0.012,0.057,0.021,0.076,0.031
					c0.233,0.109,0.349,0.276,0.349,0.5c0,0.274-0.113,0.473-0.339,0.598c-0.029,0.016-0.055,0.029-0.085,0.042
					c-0.146,0.063-0.316,0.095-0.509,0.095c-0.286,0-0.518-0.051-0.694-0.151c-0.11-0.065-0.194-0.146-0.25-0.244
					c-0.054-0.097-0.083-0.211-0.083-0.342h0.577c0,0.099,0.037,0.177,0.106,0.229c0.071,0.056,0.19,0.084,0.359,0.084
					c0.126,0,0.222-0.026,0.284-0.079c0.05-0.042,0.073-0.088,0.073-0.142c0-0.089-0.113-0.158-0.34-0.208
					c-0.337-0.072-0.55-0.131-0.636-0.173c-0.232-0.107-0.346-0.274-0.346-0.507c0-0.185,0.059-0.344,0.18-0.472
					c0.152-0.161,0.38-0.242,0.682-0.242c0.249,0,0.448,0.037,0.598,0.107c0.013,0.005,0.025,0.011,0.037,0.019
					c0.108,0.059,0.189,0.137,0.244,0.233S26.348,31.53,26.348,31.664z"/>
				<path fill="#0098D6" d="M26.052,30.321c0-0.011-0.001-0.021-0.007-0.028c-0.005-0.01-0.013-0.016-0.023-0.02
					c-0.008-0.002-0.02-0.003-0.037-0.005h-0.021h-0.066v0.105h0.07c0.005,0,0.013,0,0.017,0c0.025-0.002,0.042-0.005,0.051-0.015
					C26.048,30.35,26.052,30.337,26.052,30.321z M26.098,30.265c0.012,0.016,0.018,0.031,0.018,0.051c0,0.027-0.01,0.05-0.029,0.068
					c-0.018,0.02-0.042,0.03-0.073,0.032c0.013,0.006,0.022,0.012,0.03,0.02l0.052,0.069l0.042,0.07H26.07l-0.032-0.057
					c-0.021-0.036-0.039-0.063-0.054-0.075c-0.002-0.003-0.004-0.005-0.008-0.006l-0.045-0.014h-0.034v0.151h-0.057v-0.356h0.123
					c0.008,0,0.016,0.002,0.021,0.002c0.03,0,0.054,0.004,0.067,0.01C26.072,30.236,26.086,30.247,26.098,30.265z"/>
				<path fill="#0098D6" d="M26.26,30.394c0-0.049-0.012-0.095-0.036-0.139c-0.025-0.043-0.059-0.077-0.103-0.103
					c-0.042-0.022-0.088-0.036-0.135-0.036c-0.001,0-0.001,0-0.001,0c-0.046,0-0.091,0.014-0.135,0.036
					c-0.044,0.025-0.078,0.06-0.103,0.103c-0.024,0.044-0.038,0.09-0.038,0.139c0,0.047,0.013,0.092,0.038,0.136
					c0.022,0.043,0.057,0.076,0.101,0.101c0.044,0.026,0.09,0.036,0.137,0.036c0,0,0,0,0.001,0c0.048,0,0.093-0.01,0.138-0.036
					c0.043-0.024,0.077-0.058,0.1-0.101C26.248,30.485,26.26,30.44,26.26,30.394z M26.315,30.394c0,0.055-0.014,0.11-0.044,0.164
					c-0.029,0.052-0.068,0.092-0.122,0.12c-0.054,0.03-0.106,0.044-0.164,0.044c-0.001,0-0.001,0-0.001,0
					c-0.057,0-0.11-0.014-0.164-0.044c-0.053-0.028-0.093-0.068-0.121-0.12c-0.031-0.054-0.044-0.109-0.044-0.164
					c0-0.059,0.013-0.113,0.044-0.167c0.03-0.053,0.069-0.093,0.123-0.122c0.054-0.028,0.106-0.041,0.162-0.044c0,0,0,0,0.001,0
					c0.056,0,0.109,0.017,0.162,0.044c0.054,0.029,0.095,0.069,0.124,0.122C26.302,30.28,26.315,30.335,26.315,30.394z"/>
				<polygon fill="#0098D6" points="23.087,27.712 24.645,30.309 23.087,30.309 22.143,30.309 20.655,27.828 19.528,25.952 
					20.655,25.274 21.365,24.848 				"/>
				<path fill="#0098D6" d="M24.218,32.11v1.064H23.7v-0.118c-0.174,0.115-0.383,0.182-0.607,0.182c-0.002,0-0.004,0-0.006,0
					c-0.618-0.005-1.122-0.51-1.122-1.128s0.503-1.123,1.122-1.127c0.002,0,0.004,0,0.006,0c0.224,0,0.433,0.066,0.607,0.181V31.04
					h0.518V32.11z M23.7,32.229v-0.235c-0.055-0.285-0.307-0.501-0.607-0.501c-0.002,0-0.004,0-0.006,0
					c-0.339,0.002-0.615,0.279-0.615,0.618s0.276,0.616,0.615,0.62c0.002,0,0.004,0,0.006,0C23.393,32.73,23.645,32.513,23.7,32.229
					z"/>
				<path fill="#0098D6" d="M21.786,32.11v1.064h-0.518v-0.118c-0.177,0.115-0.383,0.182-0.607,0.182c-0.002,0-0.004,0-0.006,0
					c-0.618-0.005-1.121-0.51-1.121-1.128s0.502-1.123,1.121-1.127c0.002,0,0.004,0,0.006,0c0.224,0,0.43,0.066,0.607,0.181v-0.855
					h0.518V32.11z M21.268,32.229v-0.235c-0.055-0.285-0.308-0.501-0.607-0.501c-0.002,0-0.004,0-0.006,0
					c-0.339,0.002-0.614,0.279-0.614,0.618s0.275,0.616,0.614,0.62c0.002,0,0.004,0,0.006,0
					C20.96,32.73,21.213,32.513,21.268,32.229z"/>
				<polygon fill="#0098D6" points="20.655,29.287 21.266,30.309 20.655,30.309 18.766,30.309 17.376,27.997 17.315,27.896 
					17.376,27.86 19.154,26.79 				"/>
				<rect x="18.767" y="30.983" fill="#0098D6" width="0.564" height="2.191"/>
				<rect x="18.767" y="30.318" fill="#0098D6" width="0.564" height="0.497"/>
				<path fill="#0098D6" d="M18.509,32.11v1.064h-0.518v-0.118c-0.176,0.115-0.385,0.182-0.609,0.182c-0.002,0-0.004,0-0.006,0
					c-0.618-0.005-1.122-0.51-1.122-1.128s0.503-1.123,1.122-1.127c0.002,0,0.004,0,0.006,0c0.224,0,0.433,0.066,0.609,0.181v-0.855
					h0.518V32.11z M17.991,32.229v-0.235c-0.055-0.285-0.307-0.501-0.609-0.501c-0.002,0-0.004,0-0.006,0
					c-0.339,0.002-0.614,0.279-0.614,0.618s0.275,0.616,0.614,0.62c0.002,0,0.004,0,0.006,0
					C17.684,32.73,17.937,32.513,17.991,32.229z"/>
				<polygon fill="#0098D6" points="17.376,29.454 17.889,30.309 17.376,30.309 15.386,30.309 15.106,29.84 16.944,28.734 				"/>
				<path fill="#0098D6" d="M16.052,32.11v1.064h-0.518v-0.118c-0.176,0.115-0.385,0.182-0.609,0.182c-0.001,0-0.003,0-0.005,0
					c-0.616-0.005-1.119-0.51-1.119-1.128s0.503-1.123,1.119-1.127c0.002,0,0.004,0,0.005,0c0.224,0,0.433,0.066,0.609,0.181V31.04
					h0.518V32.11z M15.534,32.229v-0.235c-0.055-0.285-0.307-0.501-0.609-0.501c-0.001,0-0.003,0-0.005,0
					c-0.338,0.002-0.613,0.279-0.613,0.618s0.275,0.616,0.613,0.62c0.002,0,0.004,0,0.005,0
					C15.227,32.73,15.479,32.513,15.534,32.229z"/>
			</g>
		</g>
	</g>
	<path display="inline" fill="#0098D6" d="M15.696,15.854c0,0-0.34,0.64-0.34,1.194c0,0-0.03,1.307,1.318,1.307h0.186
		c0,0,0.271,0.086,4.939-1.307h-1.183l-0.062-1.466l-0.555,1.466h-0.85l1.344-3.56h0.813l-0.37,1.022l0.875-1.022h2.562
		l-0.221,0.591h-0.875l-0.271,0.751h0.813l-0.259,0.665h-0.801l-0.32,0.876h0.962l-0.075,0.258c0,0,3.487-0.899,3.856-0.998
		c0,0-9.936,4.709-11.562,4.709c0,0-1.571,0.01-1.571-1.271C14.051,19.068,13.873,17.874,15.696,15.854z M21.442,16.802l1.19-3.22
		l-1.265,1.347L21.442,16.802z M19.497,13.488l-1.323,3.56h0.821l1.331-3.56H19.497z M15.817,17.048h0.821l0.591-1.553l-0.065,1.553
		h0.871l1.33-3.56h-0.814l-0.607,1.573l0.101-1.573h-0.88L15.817,17.048z M16.435,17.869c0,0.031-0.008,0.061-0.023,0.088
		c-0.016,0.026-0.038,0.048-0.064,0.063c-0.027,0.017-0.057,0.024-0.087,0.024c-0.032,0-0.062-0.008-0.089-0.024
		c-0.027-0.016-0.048-0.037-0.063-0.063c-0.016-0.027-0.024-0.057-0.024-0.088c0-0.032,0.009-0.061,0.024-0.088
		c0.016-0.028,0.036-0.049,0.063-0.065c0.027-0.015,0.057-0.023,0.089-0.023c0.03,0,0.06,0.009,0.087,0.023
		c0.026,0.017,0.049,0.037,0.064,0.065C16.427,17.809,16.435,17.837,16.435,17.869z M16.4,17.869c0-0.04-0.014-0.073-0.041-0.102
		c-0.028-0.026-0.062-0.041-0.101-0.041c-0.04,0-0.073,0.015-0.1,0.041c-0.028,0.028-0.042,0.062-0.042,0.102
		c0,0.038,0.014,0.072,0.042,0.1c0.026,0.027,0.06,0.042,0.1,0.042c0.039,0,0.072-0.015,0.101-0.042
		C16.387,17.941,16.4,17.907,16.4,17.869z M16.179,17.775h0.084c0.024,0,0.041,0.004,0.052,0.014s0.017,0.022,0.017,0.038
		c0,0.014-0.005,0.024-0.012,0.032c-0.009,0.01-0.021,0.017-0.039,0.021c0.007,0.004,0.013,0.006,0.016,0.01
		c0.005,0.004,0.009,0.011,0.015,0.019c0.001,0.001,0.011,0.019,0.031,0.054h-0.056c-0.018-0.035-0.03-0.057-0.036-0.063
		c-0.006-0.006-0.013-0.011-0.019-0.011c-0.002,0-0.004,0-0.005,0.001v0.073h-0.048V17.775z M16.227,17.854h0.019
		c0.015,0,0.024-0.003,0.03-0.007c0.005-0.005,0.007-0.01,0.007-0.017s-0.002-0.014-0.007-0.018
		c-0.006-0.005-0.015-0.006-0.028-0.006h-0.021V17.854z M24.9,13.662c0,0.031-0.008,0.061-0.023,0.088
		c-0.016,0.028-0.038,0.049-0.063,0.064c-0.027,0.015-0.058,0.023-0.089,0.023c-0.03,0-0.061-0.009-0.088-0.023
		c-0.026-0.016-0.049-0.036-0.063-0.064c-0.016-0.027-0.023-0.057-0.023-0.088s0.008-0.062,0.023-0.088
		c0.015-0.027,0.037-0.049,0.063-0.064c0.027-0.016,0.058-0.023,0.088-0.023c0.031,0,0.062,0.008,0.089,0.023
		c0.025,0.016,0.048,0.037,0.063,0.064C24.893,13.601,24.9,13.631,24.9,13.662z M24.866,13.662c0-0.039-0.014-0.072-0.041-0.101
		c-0.028-0.027-0.062-0.041-0.101-0.041s-0.072,0.014-0.1,0.041c-0.028,0.028-0.042,0.062-0.042,0.101
		c0,0.04,0.014,0.073,0.042,0.101c0.027,0.027,0.061,0.041,0.1,0.041s0.072-0.014,0.101-0.041
		C24.853,13.735,24.866,13.702,24.866,13.662z M24.645,13.567h0.084c0.024,0,0.042,0.006,0.052,0.015
		c0.012,0.01,0.017,0.023,0.017,0.039c0,0.013-0.004,0.023-0.013,0.032c-0.008,0.01-0.021,0.017-0.039,0.021
		c0.009,0.002,0.014,0.005,0.018,0.009c0.004,0.003,0.009,0.01,0.015,0.019c0,0,0.011,0.019,0.029,0.054h-0.055
		c-0.018-0.035-0.03-0.057-0.036-0.063c-0.006-0.008-0.013-0.011-0.019-0.011c-0.002,0-0.003,0-0.006,0.001v0.073h-0.047V13.567z
		 M24.691,13.648h0.021c0.014,0,0.023-0.002,0.029-0.006c0.004-0.005,0.008-0.011,0.008-0.019c0-0.007-0.004-0.013-0.008-0.017
		c-0.005-0.005-0.014-0.007-0.028-0.007h-0.021V13.648z"/>
	<path display="inline" fill-rule="evenodd" clip-rule="evenodd" fill="#0098D6" d="M36.614,20.985
		c-0.032-0.023-0.026-0.043,0.013-0.043h1.195c0.039,0,0.097,0.022,0.125,0.047l0.908,0.836c0.027,0.024,0.072,0.024,0.1,0
		l0.906-0.835c0.029-0.027,0.086-0.049,0.126-0.049h1.188c0.04,0,0.046,0.02,0.014,0.043l-1.729,1.203
		c-0.03,0.021-0.03,0.056,0,0.077l1.669,1.165c0.032,0.023,0.026,0.043-0.013,0.043h-1.261c-0.039,0-0.096-0.022-0.126-0.049
		l-0.77-0.729c-0.026-0.024-0.071-0.024-0.099-0.001l-0.788,0.731c-0.029,0.026-0.086,0.048-0.126,0.048h-1.261
		c-0.04,0-0.046-0.02-0.013-0.043l1.659-1.165c0.029-0.021,0.029-0.056,0-0.077L36.614,20.985z M32.356,22.211
		c0-0.759,0.985-1.373,2.2-1.373s2.199,0.614,2.199,1.373c0,0.758-0.984,1.373-2.199,1.373S32.356,22.97,32.356,22.211z
		 M33.336,22.211c0-0.521,0.547-0.941,1.221-0.941c0.675,0,1.221,0.42,1.221,0.941c0,0.519-0.546,0.94-1.221,0.94
		C33.883,23.152,33.336,22.73,33.336,22.211z M29.249,20.942h0.145h0.428h0.144h2.246c0.04,0,0.072,0.032,0.072,0.072v0.251
		c0,0.04-0.032,0.072-0.072,0.072h-2.246c-0.039,0-0.071,0.033-0.071,0.072v0.53c0,0.039,0.032,0.072,0.071,0.072h1.853
		c0.04,0,0.072,0.033,0.072,0.072v0.25c0,0.04-0.032,0.072-0.072,0.072h-1.853c-0.039,0-0.071,0.033-0.071,0.072v0.53
		c0,0.039,0.032,0.072,0.071,0.072h2.246c0.04,0,0.072,0.033,0.072,0.073v0.25c0,0.04-0.032,0.072-0.072,0.072h-2.246h-0.144h-0.428
		h-0.145h-0.262c-0.041,0-0.073-0.033-0.073-0.072v-2.387c0-0.04,0.032-0.072,0.073-0.072H29.249z M26.197,22.036h1.323h0.876
		c0.14,0,0.127,0.07,0.127,0.19c0,0.759-0.984,1.373-2.199,1.373s-2.199-0.614-2.199-1.373c0-0.758,0.984-1.373,2.199-1.373
		c0.812,0,1.52,0.274,1.901,0.682c0.046,0.052,0,0.056-0.036,0.056h-0.895c-0.079,0-0.188-0.089-0.254-0.126
		c-0.201-0.113-0.448-0.179-0.716-0.179c-0.674,0-1.22,0.421-1.22,0.94c0,0.52,0.546,0.941,1.22,0.941
		c0.584,0,1.072-0.316,1.193-0.737h-1.318c-0.057,0-0.069-0.069-0.069-0.069v-0.265C26.13,22.096,26.147,22.036,26.197,22.036z"/>
	<g display="inline">
		<polygon fill-rule="evenodd" clip-rule="evenodd" fill="#0098D6" points="31.249,36.503 29.35,36.57 31.153,36.671 31.249,36.503 
			31.249,36.503 		"/>
		<polygon fill-rule="evenodd" clip-rule="evenodd" fill="#0098D6" points="31.022,36.901 29.117,36.969 30.929,37.07 
			31.022,36.901 31.022,36.901 		"/>
		<polygon fill-rule="evenodd" clip-rule="evenodd" fill="#0098D6" points="30.795,37.305 28.893,37.371 30.701,37.471 
			30.795,37.305 30.795,37.305 		"/>
		<polygon fill-rule="evenodd" clip-rule="evenodd" fill="#0098D6" points="30.572,37.705 28.668,37.772 30.474,37.873 
			30.572,37.705 30.572,37.705 		"/>
		<polygon fill-rule="evenodd" clip-rule="evenodd" fill="#0098D6" points="32.9,34.487 30.476,34.573 32.907,34.709 32.9,34.487 
			32.9,34.487 		"/>
		<polygon fill-rule="evenodd" clip-rule="evenodd" fill="#0098D6" points="32.885,34.09 30.706,34.167 32.892,34.293 32.885,34.09 
			32.885,34.09 		"/>
		<polygon fill-rule="evenodd" clip-rule="evenodd" fill="#0098D6" points="32.869,33.709 30.929,33.772 32.879,33.881 
			32.869,33.709 32.869,33.709 		"/>
		<polygon fill-rule="evenodd" clip-rule="evenodd" fill="#0098D6" points="32.855,33.316 31.155,33.374 32.863,33.474 
			32.855,33.316 32.855,33.316 		"/>
		<polygon fill-rule="evenodd" clip-rule="evenodd" fill="#0098D6" points="32.845,32.999 31.365,32.999 32.847,33.078 
			32.845,32.999 32.845,32.999 		"/>
		<polygon fill-rule="evenodd" clip-rule="evenodd" fill="#0098D6" points="30.343,38.104 28.442,38.175 30.304,38.175 
			30.343,38.104 30.343,38.104 		"/>
		<path fill-rule="evenodd" clip-rule="evenodd" fill="#0098D6" d="M36.781,33.012h-2.738l-0.077,0.138l1.37,0.073l0,0
			c0.016,0,0.016,0.022-0.007,0.022l0,0l-1.443,0.048l-0.14,0.244l1.361,0.08l0,0c0.018,0.003,0.014,0.027-0.002,0.027l0,0
			l-1.446,0.047l-0.134,0.234l1.357,0.075l0,0c0.031,0.002,0.031,0.027,0,0.027l0,0l-1.442,0.051l-0.137,0.244l1.354,0.077l0,0
			c0.029,0.002,0.027,0.029,0,0.029l0,0l-1.444,0.053l-0.14,0.239l1.357,0.076l0,0c0.021,0.002,0.022,0.027-0.005,0.027l0,0
			l-4.158,0.14l3.946,0.219l0,0c0.025,0,0.022,0.032-0.005,0.032l0,0l-4.165,0.148l3.946,0.219l0,0c0.018,0,0.022,0.029-0.005,0.029
			l0,0l-4.173,0.151l3.947,0.22l0,0c0.016,0.001,0.031,0.032-0.003,0.034l0,0l-4.165,0.147l3.945,0.22l0,0
			c0.013,0.003,0.023,0.032-0.004,0.032l0,0l-2.096,0.074l0.006,0.189l1.869,0.104l0,0c0.013,0.002,0.02,0.03-0.006,0.03l0,0
			l-1.856,0.065l0.01,0.212l1.621,0.09l0,0c0.016,0.003,0.022,0.034-0.004,0.034l0,0l-1.608,0.057l0.008,0.232l1.381,0.076l0,0
			c0.015,0.002,0.021,0.032-0.007,0.032l0,0l-1.367,0.048l0.008,0.257l1.143,0.063l0,0c0.016,0.002,0.016,0.03-0.008,0.03l0,0
			l-1.13,0.041l0.005,0.109h3.686l0,0c0.978,0,1.854-0.712,2.019-1.279c0.164-0.566,0.164-1.078-0.621-1.333
			c0.438-0.1,1.201-0.594,1.352-1.279C38.073,33.649,37.845,33.015,36.781,33.012L36.781,33.012L36.781,33.012L36.781,33.012z
			 M34.927,36.978h-1.132l0.639-1.132h0.841l0,0C36.142,35.846,35.722,36.978,34.927,36.978L34.927,36.978L34.927,36.978
			L34.927,36.978z M36.394,34.549c-0.037,0.137-0.312,0.484-0.659,0.484l0,0h-0.839l0.539-0.95h0.429l0,0
			C36.412,34.101,36.43,34.411,36.394,34.549L36.394,34.549L36.394,34.549L36.394,34.549z"/>
		<path fill-rule="evenodd" clip-rule="evenodd" fill="#0098D6" d="M40.93,39.804c0-0.439-0.365-0.808-0.804-0.808
			c-0.45,0-0.817,0.373-0.817,0.832c0,0.456,0.364,0.821,0.82,0.821c0.334,0,0.649-0.228,0.744-0.539l0,0h-0.416l0,0
			c-0.084,0.131-0.191,0.19-0.34,0.19c-0.188,0-0.355-0.127-0.41-0.311l0,0h1.203l0,0C40.924,39.902,40.93,39.86,40.93,39.804
			L40.93,39.804L40.93,39.804L40.93,39.804z M39.696,39.693c0.054-0.215,0.226-0.351,0.436-0.351c0.211,0,0.376,0.133,0.428,0.351
			l0,0H39.696L39.696,39.693L39.696,39.693z"/>
		<path fill-rule="evenodd" clip-rule="evenodd" fill="#0098D6" d="M35.528,39.071V39.2l0,0c-0.12-0.129-0.294-0.201-0.479-0.201
			c-0.41,0-0.76,0.351-0.76,0.807c0,0.43,0.309,0.816,0.769,0.816c0.201,0,0.355-0.047,0.501-0.212l0,0v0.202h0.349v-1.541H35.528
			L35.528,39.071L35.528,39.071z M35.103,40.296c-0.264,0-0.479-0.215-0.479-0.479c0-0.265,0.215-0.478,0.479-0.478
			c0.265,0,0.478,0.213,0.478,0.478C35.58,40.081,35.367,40.296,35.103,40.296L35.103,40.296L35.103,40.296L35.103,40.296z"/>
		<path fill-rule="evenodd" clip-rule="evenodd" fill="#0098D6" d="M25.163,38.996c-0.157,0-0.276,0.054-0.407,0.188l0,0v-0.15
			h-0.351v1.579h0.379v-0.743l0,0c0-0.203,0.016-0.525,0.296-0.525c0.262,0,0.291,0.303,0.291,0.497l0,0v0.771h0.379v-0.847l0,0
			c0-0.223-0.018-0.328-0.077-0.453C25.584,39.124,25.376,38.996,25.163,38.996L25.163,38.996L25.163,38.996L25.163,38.996z"/>
		<path fill-rule="evenodd" clip-rule="evenodd" fill="#0098D6" d="M27.518,39.804c0-0.439-0.365-0.808-0.803-0.808
			c-0.451,0-0.818,0.373-0.818,0.832c0,0.456,0.365,0.821,0.82,0.821c0.334,0,0.65-0.228,0.745-0.539l0,0h-0.417l0,0
			c-0.083,0.131-0.19,0.19-0.338,0.19c-0.188,0-0.356-0.127-0.411-0.311l0,0h1.203l0,0C27.512,39.902,27.518,39.86,27.518,39.804
			L27.518,39.804L27.518,39.804L27.518,39.804z M26.285,39.693c0.053-0.215,0.224-0.351,0.436-0.351s0.375,0.133,0.428,0.351l0,0
			H26.285L26.285,39.693L26.285,39.693z"/>
		<polygon fill-rule="evenodd" clip-rule="evenodd" fill="#0098D6" points="33.754,40.61 34.133,40.61 34.133,38.504 33.754,38.504 
			33.754,40.61 33.754,40.61 		"/>
		<path fill-rule="evenodd" clip-rule="evenodd" fill="#0098D6" d="M36.906,38.996c-0.156,0-0.276,0.054-0.407,0.188l0,0v-0.15
			h-0.351v1.579h0.379v-0.743l0,0c0-0.203,0.018-0.525,0.296-0.525c0.263,0,0.291,0.303,0.291,0.497l0,0v0.771h0.379v-0.847l0,0
			c0-0.223-0.018-0.328-0.076-0.453C37.329,39.124,37.12,38.996,36.906,38.996L36.906,38.996L36.906,38.996L36.906,38.996z"/>
		<path fill-rule="evenodd" clip-rule="evenodd" fill="#0098D6" d="M38.439,39.344c0.174,0,0.274,0.057,0.367,0.217l0,0h0.428l0,0
			c-0.116-0.339-0.416-0.564-0.78-0.564c-0.462,0-0.832,0.368-0.832,0.82c0,0.456,0.373,0.833,0.832,0.833
			c0.233,0,0.465-0.103,0.621-0.276c0.08-0.089,0.108-0.141,0.159-0.279l0,0h-0.428l0,0c-0.089,0.137-0.201,0.207-0.345,0.207
			c-0.265,0-0.461-0.204-0.461-0.478C38.001,39.547,38.189,39.344,38.439,39.344L38.439,39.344L38.439,39.344L38.439,39.344z"/>
		<polygon fill-rule="evenodd" clip-rule="evenodd" fill="#0098D6" points="28.967,39.997 28.698,39.033 28.394,39.033 
			28.121,39.997 27.802,39.033 27.467,39.033 27.994,40.612 28.237,40.612 28.544,39.589 28.844,40.612 29.099,40.612 
			29.604,39.033 29.291,39.033 28.967,39.997 28.967,39.997 		"/>
		<path fill-rule="evenodd" clip-rule="evenodd" fill="#0098D6" d="M30.998,38.998c-0.186,0-0.359,0.072-0.479,0.201l0,0v-0.695
			h-0.379v2.106h0.348v-0.203l0,0c0.146,0.166,0.299,0.213,0.501,0.213c0.46,0,0.769-0.386,0.769-0.815
			C31.758,39.349,31.407,38.998,30.998,38.998L30.998,38.998L30.998,38.998L30.998,38.998z M30.945,40.296
			c-0.265,0-0.479-0.215-0.479-0.479c0-0.265,0.215-0.478,0.479-0.478c0.263,0,0.477,0.213,0.477,0.478
			C31.422,40.081,31.208,40.296,30.945,40.296L30.945,40.296L30.945,40.296L30.945,40.296z"/>
		<path fill-rule="evenodd" clip-rule="evenodd" fill="#0098D6" d="M33.123,39.071V39.2l0,0c-0.12-0.129-0.294-0.201-0.479-0.201
			c-0.409,0-0.76,0.351-0.76,0.807c0,0.43,0.309,0.816,0.768,0.816c0.202,0,0.356-0.047,0.502-0.212l0,0v0.202h0.349v-1.541H33.123
			L33.123,39.071L33.123,39.071z M32.697,40.296c-0.264,0-0.479-0.215-0.479-0.479c0-0.265,0.215-0.478,0.479-0.478
			c0.265,0,0.479,0.213,0.479,0.478C33.176,40.081,32.962,40.296,32.697,40.296L32.697,40.296L32.697,40.296L32.697,40.296z"/>
	</g>
</g>
<g id="breafing" display="none">
	<g display="inline">
		<path fill="#0098D6" d="M40.596,29.374c-2.698,0-4.438,0.735-5.051,1.043l-3.387-1.116l-1.826-1.986l-0.408,0.566
			c-0.033,0.044-3.216,4.422-5.475,5.824c-1.077,0.67-2.989,1.01-5.681,1.01c-0.728,0-1.374-0.023-1.893-0.043
			c-0.327-0.011-0.586-0.02-0.775-0.02c-0.942,0-1.533,0.87-1.863,1.602c-0.308,0.683-0.449,1.356-0.455,1.385l-0.084,0.406
			l0.36,0.206c0.179,0.102,4.432,2.485,10.173,2.485c2.214,0,3.419-0.39,4.813-0.841c0.926-0.3,1.956-0.634,3.483-0.906v1.495h8.639
			v-11.11H40.596z M32.069,30.475l2.773,0.913c-0.362,0.81-1.162,2.257-2.245,2.257c-0.174,0-0.356-0.038-0.545-0.114
			c-0.5-0.202-0.628-0.479-0.682-0.671C31.171,32.146,31.688,31.088,32.069,30.475L32.069,30.475z M28.692,38.81
			c-1.355,0.439-2.427,0.785-4.461,0.785c-4.478,0-8.08-1.574-9.226-2.138c0.235-0.785,0.678-1.664,1.094-1.664
			c0.168,0,0.418,0.009,0.734,0.021c0.5,0.017,1.186,0.042,1.934,0.042c2.95,0,5.005-0.387,6.285-1.181
			c1.959-1.218,4.409-4.295,5.379-5.566l0.682,0.743c-0.129,0.209-0.29,0.487-0.441,0.806c-0.459,0.972-0.596,1.815-0.4,2.508
			c0.127,0.45,0.463,1.063,1.353,1.423c0.324,0.13,0.651,0.197,0.974,0.197c2.025,0,3.166-2.576,3.466-3.354
			c0.639-0.329,2.051-0.819,3.962-0.903v6.764c-3.063,0.021-5.255,0.197-6.927,0.446c-0.059,0-0.115,0.009-0.168,0.025
			C31,38.063,29.777,38.459,28.692,38.81L28.692,38.81z M33.67,39.343v-0.531c1.571-0.212,3.6-0.36,6.355-0.377v0.908H33.67z
			 M33.67,39.343"/>
	</g>
	<g display="inline">
		<g>
			<defs>
				<rect id="SVGID_5_" x="13.079" y="13.087" width="18.087" height="14.696"/>
			</defs>
			<clipPath id="SVGID_6_">
				<use xlink:href="#SVGID_5_"  overflow="visible"/>
			</clipPath>
			<path clip-path="url(#SVGID_6_)" fill="#0098D6" d="M30.787,13.553c-0.033-0.087-0.111-0.146-0.201-0.158
				c-0.094-0.011-0.182,0.029-0.236,0.104c-0.316,0.444-0.732,0.592-1.215,0.764c-0.389,0.138-0.791,0.281-1.225,0.593
				c-0.614,0.441-0.896,1.043-0.756,1.613l-0.016,0.02c-0.256-0.372-0.535-0.717-0.83-1.024c-1.378-1.438-3.304-2.304-5.285-2.372
				c-0.087-0.004-0.175-0.005-0.263-0.005c-2.211,0-4.327,0.989-5.807,2.713c-1.471,1.714-2.123,3.945-1.789,6.122
				c0.028,0.182,0.063,0.366,0.104,0.547c0.544,2.393,1.933,4.214,3.811,4.996c0.463,0.191,0.93,0.289,1.388,0.289
				c1.137,0,2.131-0.607,2.726-1.668c0.227-0.404,0.373-0.821,0.433-1.241c0.037-0.249,0.012-0.496-0.012-0.735
				c-0.025-0.247-0.048-0.48-0.01-0.715c0.085-0.538,0.46-0.859,1.005-0.859c0.155,0,0.313,0.025,0.473,0.075
				c-0.186,0.339-0.354,0.665-0.502,0.964c-0.31,0.637-0.524,1.163-0.637,1.567c-0.069,0.247-0.253,0.907,0.195,1.219
				c0.142,0.1,0.323,0.135,0.51,0.1c0.17-0.032,0.686-0.127,2.15-1.795c0.393-0.447,0.816-0.965,1.26-1.539
				c1.137-0.383,2.021-1.336,2.255-2.431c0.059-0.273,0.084-0.567,0.072-0.871c0.426-0.658,0.799-1.271,1.174-1.931
				c0.008-0.012,0.016-0.026,0.023-0.04c0.543-0.15,1.014-0.573,1.289-1.167C31.273,15.819,31.244,14.707,30.787,13.553
				L30.787,13.553z M24.643,17.653c-0.197,0.313-0.537,0.5-0.908,0.5c-0.199,0-0.396-0.058-0.567-0.164
				c-0.242-0.153-0.411-0.391-0.474-0.67c-0.063-0.279-0.015-0.565,0.138-0.808c0.197-0.313,0.535-0.5,0.906-0.5
				c0.201,0,0.398,0.057,0.569,0.165c0.242,0.153,0.411,0.391,0.474,0.669C24.844,17.125,24.794,17.411,24.643,17.653L24.643,17.653
				z M26.032,19.592c0.541-0.797,1.113-1.59,1.658-2.295c0.088,0.08,0.187,0.158,0.293,0.231c0.177,0.124,0.363,0.218,0.55,0.283
				c-0.459,0.784-0.953,1.563-1.55,2.443c-0.981,1.446-2.002,2.79-2.874,3.783c-0.486,0.554-0.913,0.983-1.24,1.249
				c0.126-0.407,0.368-0.963,0.705-1.622C24.176,22.485,25.049,21.039,26.032,19.592L26.032,19.592z M16.53,19.585
				c-0.201,0-0.397-0.058-0.568-0.166c-0.242-0.153-0.41-0.39-0.473-0.668c-0.064-0.279-0.015-0.565,0.138-0.808
				c0.198-0.313,0.536-0.5,0.907-0.5c0.201,0,0.398,0.057,0.569,0.165c0.499,0.316,0.65,0.978,0.335,1.476
				C17.241,19.397,16.901,19.585,16.53,19.585L16.53,19.585z M15.408,21.941c0.197-0.313,0.537-0.5,0.908-0.5
				c0.201,0,0.397,0.057,0.568,0.164c0.242,0.153,0.411,0.391,0.474,0.67c0.064,0.277,0.015,0.565-0.138,0.806
				c-0.196,0.313-0.535,0.501-0.906,0.501c-0.201,0-0.399-0.058-0.57-0.166c-0.242-0.151-0.409-0.389-0.474-0.668
				C15.208,22.47,15.257,22.184,15.408,21.941L15.408,21.941z M18.836,15.585c0.197-0.313,0.537-0.5,0.908-0.5
				c0.201,0,0.397,0.057,0.568,0.164c0.5,0.314,0.65,0.977,0.335,1.476c-0.197,0.313-0.536,0.5-0.906,0.5
				c-0.202,0-0.399-0.057-0.57-0.165c-0.242-0.152-0.41-0.389-0.474-0.668C18.635,16.114,18.685,15.827,18.836,15.585L18.836,15.585
				z M18.836,15.585"/>
		</g>
	</g>
</g>
<g id="handcraft" display="none">
	<g transform="translate(1 1)" display="inline">
		<g>
			<path fill="#0098D6" d="M40.021,19.329c-0.186-0.189-0.463-0.189-0.648,0c-1.598,1.542-2.914,1.727-4.287,0.517l0.445-0.375
				c1.203-1.275,1.203-3.306,0-4.534c-1.205-1.228-3.195-1.228-4.445,0.048l-0.355,0.439l-0.477-0.487
				c-1.25-1.228-3.242-1.228-4.445,0c-0.602,0.614-0.926,1.417-0.926,2.267c0,0.851,0.325,1.653,0.926,2.268l0.914,0.896
				l-6.534,8.06l-1.556-1.589c-1.25-1.228-3.241-1.228-4.444,0c-0.602,0.614-0.926,1.417-0.926,2.267
				c0,0.852,0.324,1.654,0.926,2.268l1.984,2.008l-3.234,3.988c-0.139,0.189-0.139,0.426,0.046,0.615
				c0.093,0.094,0.185,0.141,0.324,0.141c0.092,0,0.231-0.047,0.278-0.094l3.911-3.309l2.755,2.789
				c0.093,0.094,0.186,0.143,0.324,0.143c0.093,0,0.231-0.049,0.324-0.096c0.185-0.189,0.185-0.473,0-0.66l-2.708-2.764l5.845-4.943
				l1.4,1.473c0.602,0.613,1.389,0.898,2.129,0.898c0.879,0,1.713-0.379,2.361-0.898c1.203-1.275,1.203-3.306,0-4.533l-1.053-1.031
				l5.496-4.648c0.811,0.751,1.654,1.146,2.5,1.146c1.02,0,2.084-0.52,3.148-1.606C40.207,19.801,40.207,19.518,40.021,19.329z
				 M26.457,18.81c-0.416-0.426-0.647-0.992-0.647-1.606c0-0.613,0.231-1.18,0.647-1.605c0.879-0.896,2.268-0.896,3.149,0
				l0.537,0.55l-2.834,3.496L26.457,18.81z M14.837,30.709c-0.417-0.424-0.648-0.99-0.648-1.605c0-0.613,0.231-1.181,0.648-1.605
				c0.88-0.897,2.269-0.897,3.148,0l1.618,1.65l-2.85,3.516L14.837,30.709z M16.781,34.109l0.051-0.063l0.011,0.012L16.781,34.109z
				 M17.541,33.467l-0.13-0.133 M29.281,26.837c0.832,0.897,0.832,2.315,0,3.165c-0.834,0.707-2.27,0.896-3.148,0l-1.385-1.412
				l3.417-2.891L29.281,26.837z"/>
		</g>
	</g>
	<path display="inline" fill="#FFFFFF" d="M33.369,20.197c-0.244,0.245-0.508,0.207-0.691,0.023l0,0
		c-0.184-0.184-0.172-0.492,0.074-0.737l1.42-1.414c0.244-0.245,0.518-0.229,0.701-0.045l0,0c0.184,0.184,0.186,0.476-0.061,0.721
		L33.369,20.197z"/>
	<polygon display="inline" fill="#0098D6" points="33.824,19.924 32.678,18.754 33.264,18.03 34.473,19.263 	"/>
</g>
<g id="options">
	<g>
		<path fill="#0098D6" d="M20.995,37.148c0,1.959-1.59,3.549-3.55,3.549c-1.962,0-3.552-1.59-3.552-3.549
			c0-1.963,1.59-3.554,3.552-3.554C19.404,33.595,20.995,35.186,20.995,37.148L20.995,37.148z M20.995,37.148"/>
		<path fill="#828282" d="M31.142,37.148c0,1.959-1.591,3.549-3.55,3.549c-1.962,0-3.553-1.59-3.553-3.549
			c0-1.963,1.591-3.554,3.553-3.554C29.551,33.595,31.142,35.186,31.142,37.148L31.142,37.148z M31.142,37.148"/>
		<path fill="#828282" d="M41.288,37.148c0,1.959-1.59,3.549-3.55,3.549c-1.962,0-3.553-1.59-3.553-3.549
			c0-1.963,1.591-3.554,3.553-3.554C39.698,33.595,41.288,35.186,41.288,37.148L41.288,37.148z M41.288,37.148"/>
		<path fill="#828282" d="M20.995,27.001c0,1.959-1.59,3.55-3.55,3.55c-1.962,0-3.552-1.591-3.552-3.55
			c0-1.962,1.59-3.553,3.552-3.553C19.404,23.448,20.995,25.039,20.995,27.001L20.995,27.001z M20.995,27.001"/>
		<path fill="#0098D6" d="M31.142,27.001c0,1.959-1.591,3.55-3.55,3.55c-1.962,0-3.553-1.591-3.553-3.55
			c0-1.962,1.591-3.553,3.553-3.553C29.551,23.448,31.142,25.039,31.142,27.001L31.142,27.001z M31.142,27.001"/>
		<path fill="#0098D6" d="M41.288,27.001c0,1.959-1.59,3.55-3.55,3.55c-1.962,0-3.553-1.591-3.553-3.55
			c0-1.962,1.591-3.553,3.553-3.553C39.698,23.448,41.288,25.039,41.288,27.001L41.288,27.001z M41.288,27.001"/>
		<path fill="#0098D6" d="M20.995,16.854c0,1.959-1.59,3.55-3.55,3.55c-1.962,0-3.552-1.59-3.552-3.55
			c0-1.962,1.59-3.552,3.552-3.552C19.404,13.302,20.995,14.892,20.995,16.854L20.995,16.854z M20.995,16.854"/>
		<path fill="#828282" d="M31.142,16.854c0,1.959-1.591,3.55-3.55,3.55c-1.962,0-3.553-1.59-3.553-3.55
			c0-1.962,1.591-3.552,3.553-3.552C29.551,13.302,31.142,14.892,31.142,16.854L31.142,16.854z M31.142,16.854"/>
		<path fill="#828282" d="M41.288,16.854c0,1.959-1.59,3.55-3.55,3.55c-1.962,0-3.553-1.59-3.553-3.55
			c0-1.962,1.591-3.552,3.553-3.552C39.698,13.302,41.288,14.892,41.288,16.854L41.288,16.854z M41.288,16.854"/>
	</g>
</g>
</svg>
