<?xml version="1.0" encoding="utf-8"?>
<!-- Generator: Adobe Illustrator 16.0.0, SVG Export Plug-In . SVG Version: 6.00 Build 0)  -->
<!DOCTYPE svg PUBLIC "-//W3C//DTD SVG 1.1//EN" "http://www.w3.org/Graphics/SVG/1.1/DTD/svg11.dtd">
<svg version="1.1" id="Layer_1" xmlns:sketch="http://www.bohemiancoding.com/sketch/ns"
	 xmlns="http://www.w3.org/2000/svg" xmlns:xlink="http://www.w3.org/1999/xlink" x="0px" y="0px" width="55px" height="54px"
	 viewBox="0 0 55 54" enable-background="new 0 0 55 54" xml:space="preserve">
<title>Shopkick Icon</title>
<desc>Created with Sketch.</desc>
<path id="Fill-1" fill="none" stroke="#0098D6" stroke-width="2" d="M53.244,27.068c0,14.165-11.486,25.647-25.654,25.647
	c-14.168,0-25.654-11.482-25.654-25.647c0-14.164,11.486-25.646,25.654-25.646C41.758,1.422,53.244,12.904,53.244,27.068"/>
<path fill="#0098D6" d="M27.021,41.26c0.021,0.003,0.041,0.005,0.063,0.005c0.07,0,0.141-0.017,0.206-0.046l10.2-4.65
	c0.211-0.097,0.326-0.326,0.278-0.554c-0.049-0.228-0.247-0.392-0.479-0.394c-0.085,0-8.342-0.177-12.007-7.502
	c-0.346-0.688-1.199-1.102-1.934-0.925l-8.514,2.05c-0.411,0.099-0.74,0.362-0.899,0.718c-0.155,0.351-0.133,0.757,0.061,1.114
	C15.476,33.822,19.706,40.311,27.021,41.26L27.021,41.26z M14.84,30.365c0.034-0.072,0.116-0.131,0.227-0.156l8.514-2.053
	c0.041-0.01,0.087-0.015,0.133-0.015c0.273,0,0.561,0.179,0.682,0.423c2.843,5.676,8.235,7.352,11.057,7.844l-8.443,3.852
	c-6.778-0.955-10.745-7.059-12.143-9.652C14.835,30.545,14.801,30.453,14.84,30.365L14.84,30.365z M14.84,30.365"/>
<g>
	<path d="M36.406,24.996l-1.271-0.311c-1.138-0.278-2.149-1.629-2.553-2.732c-1.104-3.038,0.445-6.192,1.033-7.219
		c0.052-0.092,0.065-0.202,0.036-0.304c-0.028-0.102-0.099-0.187-0.191-0.238l-5.161-2.775c-0.059-0.031-0.123-0.046-0.188-0.046
		c-0.06,0-0.12,0.014-0.174,0.04c-0.114,0.057-0.194,0.165-0.215,0.289c-0.293,1.779-1.109,3.198-1.889,4.202
		c1.234,0.98,2.027,2.493,2.027,4.188c0,1.355-0.507,2.594-1.341,3.537l1.055,0.666c0.907,0.573,1.599,1.433,1.959,2.444
		c0.29,0.807,0.897,1.459,1.681,1.806c0.401,0.176,0.831,0.266,1.262,0.266c0.781,0,1.644-0.184,4.158-0.923
		c0.566-0.174,0.776-0.561,0.894-1.046C37.727,26.02,37.225,25.195,36.406,24.996L36.406,24.996z M36.406,24.996"/>
	<path d="M25.936,15.775c-0.32,0.322-0.593,0.616-0.772,0.763c-0.079,0.059-0.157,0.12-0.232,0.184
		c-0.841,0.727-1.529,1.893-1.445,3c0.083,1.108,0.636,2.343,1.576,2.935l1.456,0.971c0.854-0.87,1.56-2.555,1.56-3.869
		c0-1.557-0.992-3.046-2.141-3.928L25.936,15.775z M25.936,15.775"/>
</g>
</svg>
