<?xml version="1.0" encoding="utf-8"?>
<!-- Generator: Adobe Illustrator 16.0.0, SVG Export Plug-In . SVG Version: 6.00 Build 0)  -->
<!DOCTYPE svg PUBLIC "-//W3C//DTD SVG 1.1//EN" "http://www.w3.org/Graphics/SVG/1.1/DTD/svg11.dtd">
<svg version="1.1" xmlns="http://www.w3.org/2000/svg" xmlns:xlink="http://www.w3.org/1999/xlink" x="0px" y="0px" width="600px"
	 height="600px" viewBox="0 0 600 600" enable-background="new 0 0 600 600" xml:space="preserve">
<g id="base-home">
	<title>Artboard 1</title>
	<circle id="Oval-21" fill="#9DD7EF" cx="300" cy="300" r="299"/>
	<circle id="Oval-26" fill="#099BD7" cx="300" cy="300" r="230.552"/>
</g>
<g id="foot-id" display="none">
	
		<image display="inline" overflow="visible" width="428" height="423" xlink:href="icons-img/measure-foot-man@3x.png"  transform="matrix(0.4538 0 0 0.4538 201.3928 196.5547)">
	</image>
</g>
<g id="Layer_3">
	<g id="shop">
		<g>
			<path fill="#FFFFFF" d="M297.378,395.202c-30.443,0-60.885-0.014-91.328,0.032c-1.708,0.005-2.337-0.169-2.084-2.174
				c1.316-10.407,2.455-20.838,3.645-31.26c1.159-10.151,2.298-20.306,3.46-30.459c1.168-10.219,2.36-20.435,3.533-30.652
				c1.165-10.153,2.325-20.303,3.479-30.456c1.132-9.947,2.273-19.893,3.356-29.846c0.156-1.427,1.013-1.339,2.017-1.337
				c9.778,0.012,19.56-0.047,29.338,0.055c1.857,0.019,2.305-0.498,2.26-2.284c-0.188-7.432,0.285-14.739,3.009-21.842
				c6.827-17.803,27.045-29.392,45.855-26.044c17.937,3.191,30.895,15.42,34.896,32.992c1.074,4.719,0.977,9.538,0.991,14.341
				c0.011,3.272-0.292,2.775,2.692,2.781c9.572,0.022,19.147,0.05,28.72-0.031c1.625-0.013,2.061,0.506,2.229,2.048
				c1.271,11.656,2.65,23.3,3.982,34.95c1.297,11.378,2.561,22.759,3.863,34.138c1.171,10.22,2.385,20.433,3.556,30.651
				c1.173,10.22,2.312,20.441,3.473,30.661c0.82,7.223,1.594,14.451,2.52,21.661c0.226,1.752-0.168,2.123-1.929,2.118
				c-22.247-0.067-44.492-0.043-66.74-0.043C313.908,395.202,305.644,395.202,297.378,395.202z M297.482,386.689
				c27.271,0,54.545-0.009,81.817,0.028c1.513,0.002,2.257-0.211,2.029-1.993c-0.809-6.325-1.496-12.665-2.225-19
				c-1.191-10.354-2.38-20.71-3.57-31.061c-1.036-8.994-2.077-17.984-3.112-26.975c-1.166-10.151-2.321-20.302-3.489-30.452
				c-1.089-9.467-2.205-18.934-3.253-28.407c-0.11-1.003-0.488-1.233-1.402-1.23c-7.646,0.024-15.292,0.033-22.936-0.007
				c-1.144-0.006-1.608,0.325-1.556,1.51c0.077,1.712,0.102,3.438-0.006,5.147c-0.109,1.738,0.307,3.007,1.699,4.292
				c3.364,3.104,3.307,8.353,0.16,11.659c-3.146,3.305-8.282,3.542-11.729,0.543c-3.396-2.956-4.102-8.431-0.859-11.582
				c2.146-2.086,2.341-4.21,2.226-6.738c-0.039-0.891-0.102-1.798,0.015-2.675c0.228-1.709-0.402-2.183-2.136-2.176
				c-17.425,0.064-34.848,0.039-52.272,0.039c-3.719,0-7.44,0.083-11.155-0.038c-1.658-0.053-2.381,0.324-2.21,2.116
				c0.155,1.633,0.115,3.298,0.008,4.938c-0.1,1.54,0.309,2.587,1.565,3.678c3.46,3.004,3.561,8.458,0.459,11.824
				c-3.074,3.332-8.292,3.632-11.722,0.672c-3.493-3.013-4.233-8.371-1.036-11.565c2.029-2.023,2.392-4.067,2.238-6.575
				c-0.071-1.162-0.066-2.336,0.001-3.5c0.064-1.114-0.268-1.58-1.492-1.572c-7.644,0.046-15.289,0.042-22.933,0.002
				c-1.062-0.004-1.371,0.335-1.479,1.385c-0.451,4.363-1.044,8.713-1.541,13.073c-1.571,13.831-3.1,27.666-4.685,41.493
				c-1.585,13.828-3.227,27.651-4.826,41.479c-1.504,13.008-2.977,26.021-4.486,39.029c-0.307,2.637-0.355,2.637,2.287,2.637
				C243.075,386.691,270.28,386.689,297.482,386.689z M297.389,239.058c1.378,0,2.755,0,4.133,0c9.298,0,18.598,0,27.896,0
				c0.947,0,1.916,0.235,1.878-1.35c-0.111-4.457,0.104-8.915-0.713-13.345c-2.693-14.643-15.046-25.866-30.161-27.318
				c-14.817-1.423-29.313,7.678-34.583,21.552c-2.278,6-2.298,12.202-2.334,18.455c-0.007,1.635,0.448,2.053,2.065,2.042
				C276.176,239.023,286.783,239.058,297.389,239.058z"/>
		</g>
		<polygon fill="#FFFFFF" points="386.565,390.025 211.281,390.025 223.93,243.178 368.496,243.178 		"/>
	</g>
</g>
</svg>
