<?xml version="1.0" encoding="utf-8"?>
<!-- Generator: Adobe Illustrator 16.0.0, SVG Export Plug-In . SVG Version: 6.00 Build 0)  -->
<!DOCTYPE svg PUBLIC "-//W3C//DTD SVG 1.1//EN" "http://www.w3.org/Graphics/SVG/1.1/DTD/svg11.dtd">
<svg version="1.1" xmlns="http://www.w3.org/2000/svg" xmlns:xlink="http://www.w3.org/1999/xlink" x="0px" y="0px" width="38px"
	 height="38px" viewBox="0 0 38 38" enable-background="new 0 0 38 38" xml:space="preserve">
<g id="video" xmlns:sketch="http://www.bohemiancoding.com/sketch/ns" display="none">
	<title>Kicks Icon</title>
	<desc>Created with Sketch.</desc>
	<g display="inline">
		<path fill="#FFFFFF" d="M21.048,20.037l2.829,0.184c0.174-0.31,0.343-0.628,0.484-0.961c0.146-0.335,0.263-0.678,0.367-1.018
			l-2.076-1.924c0.073-0.558,0.08-1.105,0.031-1.645l2.123-1.87c-0.19-0.691-0.452-1.359-0.794-1.995l-2.831,0.103
			c-0.333-0.437-0.714-0.827-1.145-1.185l0.184-2.822c-0.31-0.175-0.63-0.342-0.963-0.485c-0.334-0.144-0.676-0.261-1.018-0.366
			l-1.922,2.075c-0.555-0.071-1.105-0.08-1.647-0.032l-1.868-2.122c-0.689,0.19-1.357,0.46-1.994,0.795l0.103,2.822
			c-0.437,0.334-0.824,0.724-1.185,1.152l-2.822-0.183c-0.175,0.311-0.342,0.628-0.485,0.962c-0.144,0.334-0.262,0.675-0.366,1.009
			l2.077,1.933c-0.074,0.549-0.079,1.104-0.034,1.645l-2.122,1.86c0.19,0.699,0.461,1.367,0.795,2.003l2.82-0.104
			c0.334,0.43,0.726,0.827,1.154,1.178l-0.183,2.831c0.311,0.172,0.628,0.341,0.963,0.482c0.333,0.142,0.676,0.263,1.009,0.367
			l1.931-2.078c0.547,0.071,1.104,0.081,1.645,0.033l1.863,2.123c0.697-0.19,1.364-0.453,2.001-0.796l-0.104-2.829
			C20.3,20.849,20.697,20.468,21.048,20.037L21.048,20.037z M13.455,19.878c-2.48-1.073-3.618-3.942-2.551-6.423
			c1.065-2.48,3.941-3.616,6.424-2.552c2.473,1.065,3.617,3.943,2.551,6.424C18.806,19.8,15.937,20.941,13.455,19.878L13.455,19.878
			z M13.455,19.878"/>
		<path fill="#FFFFFF" d="M17.836,15.387c0,1.351-1.098,2.449-2.449,2.449c-1.344,0-2.441-1.098-2.441-2.449
			c0-1.344,1.097-2.441,2.441-2.441C16.738,12.946,17.836,14.043,17.836,15.387L17.836,15.387z M17.836,15.387"/>
		<path fill="#FFFFFF" d="M31.986,26.954l0.039-0.629l-0.039-0.629l-1.551-0.556l-0.676-0.238l0.302-0.645l0.707-1.487
			c-0.254-0.331-0.556-0.629-0.881-0.897l-1.495,0.717l-0.643,0.301l-0.796-2.226l-0.629-0.038l-0.628,0.038l-0.557,1.547
			l-0.238,0.679l-0.644-0.301l-1.494-0.71c-0.325,0.262-0.628,0.56-0.891,0.891l0.716,1.487l0.301,0.645l-0.674,0.247l-1.552,0.547
			l-0.038,0.629l0.038,0.629l1.552,0.548l0.674,0.248l-0.301,0.643l-0.709,1.495c0.262,0.325,0.559,0.619,0.89,0.883l1.488-0.709
			l0.644-0.305l0.247,0.679l0.548,1.547l0.628,0.043l0.629-0.043l0.556-1.547l0.24-0.679l0.643,0.305l1.485,0.709
			c0.335-0.255,0.629-0.558,0.899-0.883l-0.716-1.495L29.76,27.75L31.986,26.954z M26.325,27.549c-0.676,0-1.224-0.548-1.224-1.224
			s0.548-1.225,1.224-1.225s1.224,0.549,1.224,1.225S27.001,27.549,26.325,27.549L26.325,27.549z M26.325,27.549"/>
	</g>
</g>
<g id="measurement" display="none">
	<g display="inline">
		<g>
			<g>
				<path fill="#FFFFFF" d="M23.566,8.16c0-0.116-0.046-0.227-0.129-0.309L22.82,7.233c-0.118-0.117-0.29-0.159-0.448-0.105
					l-7.421,2.474c-0.064,0.021-0.123,0.057-0.171,0.105l-0.31,0.309l-4.019-4.02c-0.171-0.17-0.448-0.17-0.619,0L6.123,9.707
					c-0.17,0.17-0.17,0.447,0,0.618l0.928,0.928l1.855-1.855c0.171-0.171,0.448-0.171,0.619,0c0.17,0.171,0.17,0.448,0,0.619
					l-1.856,1.856l0.619,0.618l1.237-1.237c0.17-0.171,0.447-0.171,0.618,0s0.171,0.448,0,0.618l-1.237,1.237l1.237,1.237
					l-0.309,0.309c-0.098,0.097-0.143,0.235-0.124,0.371l0.619,4.33c0.013,0.092,0.057,0.18,0.124,0.248l0.618,0.617
					c0.085,0.084,0.198,0.129,0.309,0.129c0.112,0,0.225-0.045,0.309-0.129L23.438,8.47C23.521,8.387,23.566,8.277,23.566,8.16z
					 M11.379,19.291l-0.207-0.206l-0.566-3.968l0.464-0.463l3.71-3.711l0.545-0.545l7.067-2.355l0.118,0.118L11.379,19.291z"/>
				<path fill="#FFFFFF" d="M31.878,27.422l-9.367-9.367l0.31-0.31c0.047-0.047,0.083-0.106,0.104-0.17l2.474-7.421
					c0.053-0.158,0.012-0.331-0.105-0.448l-0.618-0.618c-0.165-0.165-0.455-0.165-0.618,0l-11.75,11.749
					c-0.171,0.172-0.171,0.448,0,0.619l0.618,0.618c0.066,0.067,0.154,0.109,0.248,0.124l4.329,0.617
					c0.021,0.004,0.042,0.004,0.062,0.004c0.115,0,0.226-0.045,0.309-0.126l0.31-0.311l0.618,0.618l1.236-1.236
					c0.171-0.171,0.448-0.171,0.619,0s0.171,0.448,0,0.618l-1.236,1.237l0.618,0.618l1.855-1.855c0.17-0.17,0.447-0.17,0.618,0
					c0.171,0.172,0.171,0.448,0,0.618l-1.855,1.856l0.618,0.617l1.237-1.236c0.171-0.17,0.448-0.17,0.617,0
					c0.172,0.171,0.172,0.447,0,0.619l-1.235,1.236l0.618,0.618l1.854-1.854c0.172-0.172,0.448-0.172,0.619,0
					c0.171,0.171,0.171,0.446,0,0.617l-1.856,1.856l0.619,0.617l1.237-1.236c0.171-0.172,0.446-0.172,0.618,0
					c0.171,0.171,0.171,0.447,0,0.619l-1.237,1.236l0.619,0.618l1.854-1.854c0.171-0.172,0.448-0.172,0.619,0
					c0.17,0.17,0.17,0.446,0,0.617l-1.855,1.855l1.946,1.946c0.086,0.087,0.198,0.129,0.31,0.129c0.112,0,0.224-0.042,0.31-0.129
					l3.71-3.709C32.048,27.869,32.048,27.594,31.878,27.422z M22.129,17.201l-0.546,0.544l-3.71,3.711l-0.464,0.463l-3.968-0.566
					l-0.206-0.206l11.13-11.131l0.118,0.119L22.129,17.201z"/>
			</g>
		</g>
	</g>
</g>
<g id="shop_1_" display="none">
	<g id="shop" display="inline">
		<g>
			<path fill="#FFFFFF" d="M18.996,31.938c-3.809,0-7.619-0.002-11.428,0.005c-0.213,0-0.292-0.021-0.261-0.272
				c0.165-1.303,0.308-2.607,0.457-3.912c0.146-1.27,0.288-2.54,0.433-3.811c0.146-1.279,0.295-2.557,0.442-3.836
				c0.146-1.27,0.291-2.54,0.436-3.811c0.142-1.244,0.284-2.489,0.419-3.734c0.02-0.179,0.127-0.167,0.253-0.167
				c1.223,0.001,2.447-0.006,3.671,0.006c0.232,0.002,0.288-0.063,0.282-0.286c-0.023-0.929,0.036-1.844,0.376-2.732
				c0.855-2.228,3.385-3.678,5.738-3.258c2.244,0.398,3.866,1.929,4.367,4.128c0.134,0.589,0.121,1.193,0.124,1.794
				c0.001,0.41-0.037,0.348,0.336,0.349c1.198,0.002,2.396,0.006,3.595-0.004c0.202-0.002,0.257,0.063,0.278,0.256
				c0.158,1.459,0.331,2.916,0.498,4.374c0.162,1.424,0.321,2.847,0.483,4.272c0.146,1.277,0.298,2.557,0.445,3.834
				c0.146,1.279,0.289,2.559,0.434,3.837c0.103,0.903,0.199,1.809,0.316,2.711c0.028,0.22-0.021,0.265-0.242,0.265
				c-2.783-0.009-5.566-0.006-8.351-0.006C21.064,31.938,20.03,31.938,18.996,31.938z M19.009,30.873
				c3.412,0,6.825-0.001,10.237,0.003c0.19,0.001,0.283-0.026,0.255-0.249c-0.102-0.791-0.188-1.585-0.278-2.378
				c-0.149-1.295-0.298-2.591-0.447-3.887c-0.129-1.124-0.26-2.25-0.39-3.374c-0.146-1.271-0.29-2.541-0.437-3.811
				c-0.137-1.185-0.275-2.369-0.407-3.554c-0.013-0.126-0.061-0.154-0.175-0.154c-0.957,0.003-1.913,0.004-2.87-0.001
				c-0.144,0-0.201,0.041-0.195,0.19c0.01,0.214,0.014,0.43,0,0.643c-0.014,0.218,0.038,0.377,0.212,0.538
				c0.422,0.389,0.414,1.045,0.021,1.458c-0.393,0.414-1.036,0.444-1.468,0.069c-0.424-0.372-0.513-1.056-0.106-1.45
				c0.268-0.261,0.292-0.528,0.278-0.843c-0.006-0.112-0.014-0.226,0.001-0.335c0.029-0.214-0.05-0.273-0.267-0.272
				c-2.182,0.007-4.361,0.005-6.541,0.005c-0.465,0-0.932,0.01-1.396-0.005c-0.207-0.007-0.298,0.041-0.275,0.264
				c0.019,0.205,0.014,0.414,0,0.619c-0.012,0.193,0.039,0.324,0.196,0.459c0.433,0.377,0.445,1.059,0.058,1.48
				c-0.385,0.417-1.037,0.455-1.467,0.084c-0.438-0.376-0.529-1.047-0.129-1.447c0.253-0.252,0.299-0.508,0.279-0.822
				c-0.009-0.146-0.008-0.292,0-0.438c0.008-0.139-0.033-0.197-0.187-0.196c-0.956,0.005-1.913,0.005-2.87,0
				c-0.133,0-0.172,0.042-0.186,0.174c-0.056,0.546-0.131,1.09-0.192,1.635c-0.197,1.731-0.388,3.462-0.586,5.192
				c-0.199,1.73-0.404,3.46-0.604,5.19c-0.188,1.627-0.372,3.256-0.562,4.884c-0.039,0.33-0.044,0.33,0.287,0.33
				C12.201,30.873,15.605,30.873,19.009,30.873z M18.998,12.4c0.172,0,0.344,0,0.518,0c1.162,0,2.326,0,3.489,0
				c0.119,0,0.239,0.029,0.235-0.169c-0.014-0.558,0.013-1.115-0.09-1.669c-0.337-1.833-1.882-3.237-3.773-3.418
				c-1.854-0.178-3.668,0.96-4.327,2.696c-0.285,0.751-0.288,1.527-0.292,2.31c-0.001,0.205,0.056,0.257,0.258,0.256
				C16.344,12.395,17.671,12.4,18.998,12.4z"/>
		</g>
		<polygon fill="#FFFFFF" points="30.156,31.29 8.223,31.29 9.806,12.915 27.895,12.915 		"/>
	</g>
</g>
<g id="costume-made">
	<g>
		<g transform="translate(1 1)">
			<g>
				<path fill="#FFFFFF" d="M31.415,11.288c-0.185-0.188-0.461-0.188-0.645,0c-1.592,1.536-2.902,1.72-4.27,0.515l0.442-0.375
					c1.199-1.269,1.199-3.292,0-4.513c-1.196-1.223-3.18-1.223-4.425,0.046L22.165,7.4l-0.476-0.485
					c-1.245-1.223-3.228-1.223-4.425,0c-0.6,0.611-0.922,1.41-0.922,2.256c0,0.847,0.323,1.646,0.922,2.257l0.91,0.893l-6.506,8.024
					l-1.55-1.58c-1.245-1.224-3.227-1.224-4.425,0c-0.599,0.61-0.922,1.41-0.922,2.256s0.323,1.646,0.922,2.257l1.976,1.999
					l-3.22,3.975c-0.138,0.187-0.138,0.422,0.045,0.611c0.093,0.094,0.185,0.139,0.323,0.139c0.093,0,0.231-0.045,0.277-0.092
					l3.895-3.294l2.744,2.774c0.092,0.095,0.184,0.142,0.323,0.142c0.091,0,0.23-0.047,0.322-0.094c0.185-0.187,0.185-0.47,0-0.659
					L9.681,26.03l5.82-4.924l1.394,1.466c0.599,0.611,1.383,0.895,2.121,0.895c0.875,0,1.705-0.376,2.351-0.895
					c1.199-1.269,1.199-3.29,0-4.513l-1.048-1.027l5.473-4.629c0.808,0.749,1.649,1.142,2.491,1.142
					c1.013,0,2.074-0.517,3.133-1.599C31.601,11.758,31.601,11.477,31.415,11.288z M17.909,10.771
					c-0.415-0.422-0.645-0.987-0.645-1.599c0-0.611,0.23-1.176,0.645-1.598c0.876-0.894,2.258-0.894,3.134,0L21.58,8.12
					l-2.822,3.481L17.909,10.771z M6.339,22.62c-0.416-0.422-0.646-0.987-0.646-1.599s0.23-1.176,0.646-1.598
					c0.876-0.895,2.258-0.895,3.134,0l1.611,1.643l-2.838,3.5L6.339,22.62z M8.274,26.005l0.051-0.061l0.011,0.011L8.274,26.005z
					 M9.031,25.366L8.9,25.232 M20.721,18.766c0.83,0.893,0.83,2.304,0,3.149c-0.83,0.705-2.259,0.894-3.134,0l-1.379-1.405
					l3.403-2.877L20.721,18.766z"/>
			</g>
		</g>
		<path fill="#099BD7" d="M24.797,12.158c-0.245,0.244-0.507,0.206-0.689,0.023l0,0c-0.183-0.183-0.17-0.49,0.075-0.735l1.413-1.407
			c0.245-0.245,0.515-0.229,0.697-0.045l0,0c0.184,0.183,0.184,0.474-0.061,0.718L24.797,12.158z"/>
		<polygon fill="#FFFFFF" points="25.249,11.886 24.106,10.72 24.691,10 25.894,11.228 		"/>
	</g>
</g>
</svg>
