<?xml version="1.0" encoding="utf-8"?>
<!-- Generator: Adobe Illustrator 16.0.0, SVG Export Plug-In . SVG Version: 6.00 Build 0)  -->
<!DOCTYPE svg PUBLIC "-//W3C//DTD SVG 1.1//EN" "http://www.w3.org/Graphics/SVG/1.1/DTD/svg11.dtd">
<svg version="1.1" xmlns="http://www.w3.org/2000/svg" xmlns:xlink="http://www.w3.org/1999/xlink" x="0px" y="0px" width="38px"
	 height="38px" viewBox="0 0 38 38" enable-background="new 0 0 38 38" xml:space="preserve">
<g id="video" xmlns:sketch="http://www.bohemiancoding.com/sketch/ns" display="none">
	<title>Kicks Icon</title>
	<desc>Created with Sketch.</desc>
	<g display="inline">
		<path fill="#FFFFFF" d="M21.048,20.037l2.829,0.184c0.174-0.31,0.343-0.628,0.484-0.961c0.146-0.335,0.263-0.678,0.367-1.018
			l-2.076-1.924c0.073-0.558,0.08-1.105,0.031-1.645l2.123-1.87c-0.19-0.691-0.452-1.359-0.794-1.995l-2.831,0.103
			c-0.333-0.437-0.714-0.827-1.145-1.185l0.184-2.822c-0.31-0.175-0.63-0.342-0.963-0.485c-0.334-0.144-0.676-0.261-1.018-0.366
			l-1.922,2.075c-0.555-0.071-1.105-0.08-1.647-0.032l-1.868-2.122c-0.689,0.19-1.357,0.46-1.994,0.795l0.103,2.822
			c-0.437,0.334-0.824,0.724-1.185,1.152l-2.822-0.183c-0.175,0.311-0.342,0.628-0.485,0.962c-0.144,0.334-0.262,0.675-0.366,1.009
			l2.077,1.933c-0.074,0.549-0.079,1.104-0.034,1.645l-2.122,1.86c0.19,0.699,0.461,1.367,0.795,2.003l2.82-0.104
			c0.334,0.43,0.726,0.827,1.154,1.178l-0.183,2.831c0.311,0.172,0.628,0.341,0.963,0.482c0.333,0.142,0.676,0.263,1.009,0.367
			l1.931-2.078c0.547,0.071,1.104,0.081,1.645,0.033l1.863,2.123c0.697-0.19,1.364-0.453,2.001-0.796l-0.104-2.829
			C20.3,20.849,20.697,20.468,21.048,20.037L21.048,20.037z M13.455,19.878c-2.48-1.073-3.618-3.942-2.551-6.423
			c1.065-2.48,3.941-3.616,6.424-2.552c2.473,1.065,3.617,3.943,2.551,6.424C18.806,19.8,15.937,20.941,13.455,19.878L13.455,19.878
			z M13.455,19.878"/>
		<path fill="#FFFFFF" d="M17.836,15.387c0,1.351-1.098,2.449-2.449,2.449c-1.344,0-2.441-1.098-2.441-2.449
			c0-1.344,1.097-2.441,2.441-2.441C16.738,12.946,17.836,14.043,17.836,15.387L17.836,15.387z M17.836,15.387"/>
		<path fill="#FFFFFF" d="M31.986,26.954l0.039-0.629l-0.039-0.629l-1.551-0.556l-0.676-0.238l0.302-0.645l0.707-1.487
			c-0.254-0.331-0.556-0.629-0.881-0.897l-1.495,0.717l-0.643,0.301l-0.796-2.226l-0.629-0.038l-0.628,0.038l-0.557,1.547
			l-0.238,0.679l-0.644-0.301l-1.494-0.71c-0.325,0.262-0.628,0.56-0.891,0.891l0.716,1.487l0.301,0.645l-0.674,0.247l-1.552,0.547
			l-0.038,0.629l0.038,0.629l1.552,0.548l0.674,0.248l-0.301,0.643l-0.709,1.495c0.262,0.325,0.559,0.619,0.89,0.883l1.488-0.709
			l0.644-0.305l0.247,0.679l0.548,1.547l0.628,0.043l0.629-0.043l0.556-1.547l0.24-0.679l0.643,0.305l1.485,0.709
			c0.335-0.255,0.629-0.558,0.899-0.883l-0.716-1.495L29.76,27.75L31.986,26.954z M26.325,27.549c-0.676,0-1.224-0.548-1.224-1.224
			s0.548-1.225,1.224-1.225s1.224,0.549,1.224,1.225S27.001,27.549,26.325,27.549L26.325,27.549z M26.325,27.549"/>
	</g>
</g>
<g id="measurement">
	<g>
		<g>
			<g>
				<path fill="#FFFFFF" d="M23.566,8.16c0-0.116-0.046-0.227-0.129-0.309L22.82,7.233c-0.118-0.117-0.29-0.159-0.448-0.105
					l-7.421,2.474c-0.064,0.021-0.123,0.057-0.171,0.105l-0.31,0.309l-4.019-4.02c-0.171-0.17-0.448-0.17-0.619,0L6.123,9.707
					c-0.17,0.17-0.17,0.447,0,0.618l0.928,0.928l1.855-1.855c0.171-0.171,0.448-0.171,0.619,0c0.17,0.171,0.17,0.448,0,0.619
					l-1.856,1.856l0.619,0.618l1.237-1.237c0.17-0.171,0.447-0.171,0.618,0s0.171,0.448,0,0.618l-1.237,1.237l1.237,1.237
					l-0.309,0.309c-0.098,0.097-0.143,0.235-0.124,0.371l0.619,4.33c0.013,0.092,0.057,0.18,0.124,0.248l0.618,0.617
					c0.085,0.084,0.198,0.129,0.309,0.129c0.112,0,0.225-0.045,0.309-0.129L23.438,8.47C23.521,8.387,23.566,8.277,23.566,8.16z
					 M11.379,19.291l-0.207-0.206l-0.566-3.968l0.464-0.463l3.71-3.711l0.545-0.545l7.067-2.355l0.118,0.118L11.379,19.291z"/>
				<path fill="#FFFFFF" d="M31.878,27.422l-9.367-9.367l0.31-0.31c0.047-0.047,0.083-0.106,0.104-0.17l2.474-7.421
					c0.053-0.158,0.012-0.331-0.105-0.448l-0.618-0.618c-0.165-0.165-0.455-0.165-0.618,0l-11.75,11.749
					c-0.171,0.172-0.171,0.448,0,0.619l0.618,0.618c0.066,0.067,0.154,0.109,0.248,0.124l4.329,0.617
					c0.021,0.004,0.042,0.004,0.062,0.004c0.115,0,0.226-0.045,0.309-0.126l0.31-0.311l0.618,0.618l1.236-1.236
					c0.171-0.171,0.448-0.171,0.619,0s0.171,0.448,0,0.618l-1.236,1.237l0.618,0.618l1.855-1.855c0.17-0.17,0.447-0.17,0.618,0
					c0.171,0.172,0.171,0.448,0,0.618l-1.855,1.856l0.618,0.617l1.237-1.236c0.171-0.17,0.448-0.17,0.617,0
					c0.172,0.171,0.172,0.447,0,0.619l-1.235,1.236l0.618,0.618l1.854-1.854c0.172-0.172,0.448-0.172,0.619,0
					c0.171,0.171,0.171,0.446,0,0.617l-1.856,1.856l0.619,0.617l1.237-1.236c0.171-0.172,0.446-0.172,0.618,0
					c0.171,0.171,0.171,0.447,0,0.619l-1.237,1.236l0.619,0.618l1.854-1.854c0.171-0.172,0.448-0.172,0.619,0
					c0.17,0.17,0.17,0.446,0,0.617l-1.855,1.855l1.946,1.946c0.086,0.087,0.198,0.129,0.31,0.129c0.112,0,0.224-0.042,0.31-0.129
					l3.71-3.709C32.048,27.869,32.048,27.594,31.878,27.422z M22.129,17.201l-0.546,0.544l-3.71,3.711l-0.464,0.463l-3.968-0.566
					l-0.206-0.206l11.13-11.131l0.118,0.119L22.129,17.201z"/>
			</g>
		</g>
	</g>
</g>
</svg>
