
<svg width="473px" height="1386px" viewBox="108 -379 473 1386" version="1.1" xmlns="http://www.w3.org/2000/svg" xmlns:xlink="http://www.w3.org/1999/xlink">
    <!-- Generator: Sketch 40.1 (33804) - http://www.bohemiancoding.com/sketch -->
    <desc>Created with Sketch.</desc>
    <defs></defs>
    <path d="M578.675253,-377.253849 L577.81136,201.483553 L577.81136,217.39482 C577.81136,217.39482 578.235799,222.507315 577.81136,229.0037 C576.589003,247.712867 566.363117,285.651134 505.412798,298.401294 C501.043451,299.315315 486.507096,303.224174 481.596102,303.867271 C479.712896,304.113878 453.120337,310.859992 451.155812,311.063147 C451.155812,311.063147 377.17439,327.351346 374.793156,327.892061 C267.842779,352.177626 156.592506,374.934336 156.592506,374.934336 C156.592506,374.934336 105.449124,381.939387 109.870009,435.65564 L109.870009,897.954696 C109.870009,897.954696 105.721963,932.934556 146.379981,945.906995 L364.241321,1005" id="Path-2" stroke="#0098D6" stroke-width="3" stroke-dasharray="4" fill="none" opacity="0.35"></path>
</svg>
