
<svg width="711px" height="1571px" viewBox="108 -251 711 1571" version="1.1" xmlns="http://www.w3.org/2000/svg" xmlns:xlink="http://www.w3.org/1999/xlink">
    <!-- Generator: Sketch 40.1 (33804) - http://www.bohemiancoding.com/sketch -->
    <desc>Created with Sketch.</desc>
    <defs></defs>
    <path d="M816.021141,-248.546133 L816.378394,313.852206 L816.378394,333.736384 C816.378394,333.736384 817.019097,340.125426 816.378394,348.243904 C814.533213,371.624594 799.096955,419.03573 707.090773,434.969498 C700.495124,436.111743 678.552097,440.996611 671.138817,441.800285 C668.296066,442.108467 628.153866,450.539029 625.188362,450.79291 C625.188362,450.79291 513.511372,471.148137 509.916834,471.823863 C348.4723,502.173332 180.536954,530.612201 180.536954,530.612201 C180.536954,530.612201 103.334613,539.366355 110.008061,606.495108 L110.008061,1184.22638 C110.008061,1184.22638 103.746471,1227.94042 165.120868,1244.15197 L493.988549,1318" id="Path-2" stroke="#0098D6" stroke-width="3" stroke-dasharray="4" fill="none" opacity="0.35"></path>
</svg>
