<?xml version="1.0" encoding="utf-8"?>
<!-- Generator: Adobe Illustrator 20.1.0, SVG Export Plug-In . SVG Version: 6.00 Build 0)  -->
<svg version="1.1" id="Layer_1" xmlns="http://www.w3.org/2000/svg" xmlns:xlink="http://www.w3.org/1999/xlink" x="0px" y="0px"
	 viewBox="0 0 51 51" style="enable-background:new 0 0 51 51;" xml:space="preserve">
<style type="text/css">
	.st0{fill:none;stroke:#FFFFFF;stroke-miterlimit:10;}
	.st1{fill:#FFFFFF;}
</style>
<ellipse id="Oval-26_3_" class="st0" cx="25.5" cy="25.5" rx="25" ry="25"/>
<path class="st1" d="M15.4,18.7L15.4,18.7c-1.9,0-3.2-1.3-3.2-2.9c0-1.7,1.3-2.9,3.2-2.9c1.9,0,3.2,1.3,3.2,2.9
	C18.7,17.4,17.4,18.7,15.4,18.7z M18.3,38.1h-5.7V21.1h5.7V38.1z M38.7,38.1h-5.7V29c0-2.3-0.8-3.9-2.9-3.9c-1.6,0-2.5,1-2.9,2.1
	c-0.1,0.4-0.2,0.9-0.2,1.4v9.5h-5.7c0.1-15.5,0-17.1,0-17.1h5.7v2.5h0c0.7-1.2,2.1-2.9,5.1-2.9c3.7,0,6.5,2.4,6.5,7.7V38.1z"/>
</svg>
