<?xml version="1.0" encoding="UTF-8" standalone="no"?>
<svg width="17px" height="23px" viewBox="0 0 17 23" version="1.1" xmlns="http://www.w3.org/2000/svg" xmlns:xlink="http://www.w3.org/1999/xlink" xmlns:sketch="http://www.bohemiancoding.com/sketch/ns">
    <!-- Generator: Sketch 3.4.2 (15855) - http://www.bohemiancoding.com/sketch -->
    <title>Receipt Icon</title>
    <desc>Created with Sketch.</desc>
    <defs></defs>
    <g id="How-it-Works---Desktop-Illustrative" stroke="none" stroke-width="1" fill="none" fill-rule="evenodd" sketch:type="MSPage">
        <g id="How-it-Works-2" sketch:type="MSArtboardGroup" transform="translate(-610.000000, -908.000000)" fill="#FFFFFF">
            <g id="Sub-Nav" sketch:type="MSLayerGroup" transform="translate(-38.000000, 879.000000)">
                <g id="Icons" transform="translate(71.000000, 23.000000)" sketch:type="MSShapeGroup">
                    <path d="M593.262414,6.03611953 C593.084295,5.96264546 592.880572,6.00383547 592.744756,6.13631144 L591.182875,7.66256824 L589.619882,6.13631144 C589.43397,5.95485276 589.134507,5.95485276 588.948596,6.13631144 L587.385602,7.66256824 L585.823721,6.13631144 C585.63781,5.95485276 585.337234,5.95485276 585.152436,6.13631144 L583.589442,7.66256824 L582.026448,6.13631144 C581.841649,5.95485276 581.541074,5.95485276 581.356275,6.13631144 L579.793282,7.66256824 L578.230288,6.13631144 C578.094472,6.00383547 577.890748,5.96264546 577.712629,6.03611953 C577.535624,6.10736711 577.419846,6.27658012 577.419846,6.46360502 L577.419846,27.7788777 C577.419846,27.9670158 577.535624,28.1362288 577.712629,28.2074764 C577.890748,28.278724 578.094472,28.2386472 578.230288,28.1072845 L579.793282,26.5810277 L581.356275,28.1072845 C581.541074,28.2876299 581.841649,28.2876299 582.026448,28.1072845 L583.589442,26.5810277 L585.152436,28.1072845 C585.337234,28.2876299 585.63781,28.2876299 585.823721,28.1072845 L587.385602,26.5810277 L588.948596,28.1072845 C589.134507,28.2876299 589.43397,28.2876299 589.619882,28.1072845 L591.182875,26.5810277 L592.744756,28.1072845 C592.836042,28.1952307 592.957385,28.2419869 593.080956,28.2419869 C593.142184,28.2419869 593.203412,28.2308545 593.262414,28.2074764 C593.43942,28.1362288 593.555197,27.9670158 593.555197,27.7788777 L593.555197,6.46360502 C593.555197,6.27658012 593.43942,6.10736711 593.262414,6.03611953 L593.262414,6.03611953 Z M582.330363,23.8179574 L580.382187,23.8179574 C579.997005,23.8179574 579.68641,23.5073625 579.68641,23.1221802 C579.68641,22.7381113 579.997005,22.4264031 580.382187,22.4264031 L582.330363,22.4264031 C582.714432,22.4264031 583.026141,22.7381113 583.026141,23.1221802 C583.026141,23.5073625 582.714432,23.8179574 582.330363,23.8179574 L582.330363,23.8179574 Z M584.602493,19.9572291 L580.243032,19.9572291 C579.85785,19.9572291 579.547255,19.6455209 579.547255,19.2614519 C579.547255,18.8773829 579.85785,18.5656747 580.243032,18.5656747 L584.602493,18.5656747 C584.986562,18.5656747 585.29827,18.8773829 585.29827,19.2614519 C585.29827,19.6455209 584.986562,19.9572291 584.602493,19.9572291 L584.602493,19.9572291 Z M579.639654,15.5265201 C579.639654,15.1424511 579.951362,14.8307429 580.335431,14.8307429 L583.257695,14.8307429 C583.641764,14.8307429 583.953472,15.1424511 583.953472,15.5265201 C583.953472,15.9117023 583.641764,16.2234105 583.257695,16.2234105 L580.335431,16.2234105 C579.951362,16.2234105 579.639654,15.9117023 579.639654,15.5265201 L579.639654,15.5265201 Z M584.997695,12.4662138 L580.126141,12.4662138 C579.742072,12.4662138 579.430364,12.1545056 579.430364,11.7693234 C579.430364,11.3852544 579.742072,11.0735462 580.126141,11.0735462 L584.997695,11.0735462 C585.381764,11.0735462 585.692359,11.3852544 585.692359,11.7693234 C585.692359,12.1545056 585.381764,12.4662138 584.997695,12.4662138 L584.997695,12.4662138 Z M590.349056,23.806825 L590.081878,23.806825 C589.697809,23.806825 589.3861,23.4951168 589.3861,23.1110478 C589.3861,22.7269788 589.697809,22.4152706 590.081878,22.4152706 L590.349056,22.4152706 C590.733125,22.4152706 591.044833,22.7269788 591.044833,23.1110478 C591.044833,23.4951168 590.733125,23.806825 590.349056,23.806825 L590.349056,23.806825 Z M589.35159,19.2837168 C589.35159,18.8996478 589.663298,18.5879396 590.047367,18.5879396 L590.314546,18.5879396 C590.698614,18.5879396 591.010323,18.8996478 591.010323,19.2837168 C591.010323,19.668899 590.698614,19.9806072 590.314546,19.9806072 L590.047367,19.9806072 C589.663298,19.9806072 589.35159,19.668899 589.35159,19.2837168 L589.35159,19.2837168 Z M590.349056,16.2234105 L590.081878,16.2234105 C589.697809,16.2234105 589.3861,15.9117023 589.3861,15.5265201 C589.3861,15.1424511 589.697809,14.8307429 590.081878,14.8307429 L590.349056,14.8307429 C590.733125,14.8307429 591.044833,15.1424511 591.044833,15.5265201 C591.044833,15.9117023 590.733125,16.2234105 590.349056,16.2234105 L590.349056,16.2234105 Z M590.354622,12.4428357 L590.087444,12.4428357 C589.703375,12.4428357 589.391667,12.1311275 589.391667,11.7470585 C589.391667,11.3629895 589.703375,11.0512813 590.087444,11.0512813 L590.354622,11.0512813 C590.738691,11.0512813 591.050399,11.3629895 591.050399,11.7470585 C591.050399,12.1311275 590.738691,12.4428357 590.354622,12.4428357 L590.354622,12.4428357 Z" id="Receipt-Icon"></path>
                </g>
            </g>
        </g>
    </g>
</svg>
