<?xml version="1.0" encoding="UTF-8" standalone="no"?>
<svg width="48px" height="47px" viewBox="0 0 48 47" version="1.1" xmlns="http://www.w3.org/2000/svg" xmlns:xlink="http://www.w3.org/1999/xlink">
    <!-- Generator: Sketch 3.6.1 (26313) - http://www.bohemiancoding.com/sketch -->
    <title>Oval 31 + Imported Layers</title>
    <desc>Created with Sketch.</desc>
    <defs></defs>
    <g id="Partners---1140-Updated-Copy-Copy-Copy" stroke="none" stroke-width="1" fill="none" fill-rule="evenodd">
        <g id="Partners" transform="translate(-859.000000, -1907.000000)" fill="#FFFFFF">
            <g id="Facts-Block" transform="translate(-71.000000, 1306.000000)">
                <g id="Retailers-Bullets" transform="translate(97.000000, 346.000000)">
                    <g id="Oval-31-+-Imported-Layers" transform="translate(815.000000, 236.000000)">
                        <path d="M41.5576923,20.88 C29.6092308,20.88 19.8846154,30.5808 19.8846154,42.5 C19.8846154,48.7792 22.5984615,54.4004 26.8765385,58.3672 C27.6869231,57.916 28.3276923,57.5024 29.6092308,56.9572 C29.6092308,56.9572 29.8165385,55.9608 29.7411538,55.3592 L31.3053846,55.3592 C31.3807692,55.3592 31.5880769,55.2276 31.2865385,53.216 C31.2865385,53.216 29.4019231,52.7272 29.3076923,48.986 C29.3076923,48.986 29.1946154,49.0236 29.0061538,49.0236 C28.5915385,49.0236 27.8565385,48.7792 27.8,47.1812 C27.7434615,45.6396 26.5373077,44.3048 28.2711538,43.1956 L27.3853846,40.8456 C27.3853846,40.8456 25.8588462,32.6112 29.76,32.6112 C30.0426923,32.6112 30.3630769,32.6488 30.7211538,32.7428 C29.6657692,31.5208 32.5680769,30.28 35.9038462,30.28 C39.3903846,30.28 43.3669231,31.6148 43.8380769,35.7132 C43.8380769,35.7132 44.4976923,40.0372 43.8380769,43.0076 L43.9134615,42.9888 C44.2526923,42.9888 45.7792308,43.1768 44.5353846,46.7112 C44.5353846,46.7112 43.9134615,49.0048 42.9334615,49.0048 C42.8203846,49.0048 42.7073077,48.986 42.5753846,48.9108 C42.5753846,48.9108 42.7826923,52.5204 40.9169231,53.122 L41.0488462,55.1712 L42.8203846,55.4344 C42.8203846,55.4344 42.5565385,56.9948 42.8580769,57.1828 C42.8580769,57.1828 44.9688462,58.5928 47.4753846,59.232 C49.2846154,59.6832 51.1692308,60.266 52.8842308,60.9052 C54.0338462,60.1908 55.1080769,59.3824 56.1069231,58.48 L54.1469231,58.48 C52.8842308,58.0664 51.565,57.6904 50.3023077,57.3708 C49.8876923,57.258 49.4919231,57.1264 49.115,56.9948 L57.5957692,56.9948 C58.7830769,55.6788 59.8384615,54.2312 60.6865385,52.652 C59.5557692,52.2384 58.1423077,51.806 56.465,51.3924 C54.2788462,50.866 52.4696154,49.738 52.1680769,49.55 C51.6215385,49.2304 51.3953846,48.7228 51.3388462,48.1588 L51.2634615,48.14 C50.4907692,48.0272 49.9253846,47.4068 49.9253846,46.6736 L49.8123077,45.1132 C49.7746154,44.4364 50.2080769,43.816 50.8865385,43.6092 C51.0561538,43.44 51.2446154,42.4436 51.2069231,41.6916 C51.1880769,41.1464 51.4707692,40.6388 51.9419231,40.3568 C52.1492308,40.2252 52.3753846,40.15 52.6203846,40.1312 C52.7146154,39.9244 52.8276923,39.6424 52.8842308,39.4544 L52.9219231,39.3416 C53.1292308,38.7776 53.2046154,38.4204 53.2234615,38.1948 C53.0161538,38.1008 52.8276923,37.988 52.6580769,37.8188 C52.3188462,37.4616 52.1869231,36.9728 52.3,36.5028 C52.6957692,34.7544 52.4130769,32.0284 52.2811538,31.1448 C51.9419231,28.306 48.625,28.0052 47.2115385,28.0052 C45.9676923,28.0052 44.9876923,28.2308 44.46,28.4376 C44.4788462,28.7572 44.3846154,29.058 44.1961538,29.34 C44.1207692,29.4528 44.0076923,29.5092 43.8946154,29.6032 C43.1030769,29.1332 42.1984615,28.8136 41.2561538,28.6068 C41.5011538,28.494 41.765,28.4 42.0853846,28.4 C42.3303846,28.4 42.5942308,28.4376 42.8957692,28.5128 C42.01,27.5164 44.4223077,26.52 47.2115385,26.52 C50.1138462,26.52 53.4307692,27.6104 53.8265385,30.9192 C53.8265385,30.9192 54.3730769,34.416 53.8265385,36.8224 L53.8830769,36.8224 C54.1657692,36.8224 55.4473077,36.9728 54.4107692,39.8304 C54.4107692,39.8304 53.8830769,41.6916 53.0726923,41.6916 C52.9784615,41.6916 52.8842308,41.654 52.7711538,41.6164 C52.7711538,41.6164 52.9407692,44.5304 51.3953846,45.0192 L51.4896154,46.6736 L52.9784615,46.8804 C52.9784615,46.8804 52.7523077,48.1588 53.0161538,48.2904 C53.0161538,48.2904 54.7688462,49.4372 56.8607692,49.9448 C58.3496154,50.3208 59.9138462,50.8096 61.3273077,51.3172 C62.5334615,48.6288 63.2307692,45.6396 63.2307692,42.5 C63.2307692,30.5808 53.5061538,20.88 41.5576923,20.88 L41.5576923,20.88 Z M50.6980769,62.0708 C49.605,61.7136 48.3988462,61.3564 47.0042308,60.9992 C44.3846154,60.3412 42.1984615,58.95 41.8403846,58.7244 C41.1996154,58.3296 40.9357692,57.7092 40.8415385,56.9948 L40.7661538,56.9948 C39.8426923,56.8632 39.1642308,56.0924 39.1642308,55.1712 L39.0323077,53.2536 C38.9757692,52.4264 39.5034615,51.6556 40.3138462,51.3924 C40.5211538,51.1856 40.7473077,49.9636 40.7096154,49.0048 C40.6719231,48.3468 41.0111538,47.7076 41.5953846,47.3692 C41.8403846,47.2188 42.1042308,47.1248 42.3869231,47.0872 C42.5188462,46.8428 42.6507692,46.4856 42.7073077,46.2412 L42.745,46.1096 C42.99,45.4328 43.0842308,44.9816 43.1219231,44.6996 C42.8580769,44.5868 42.6319231,44.4364 42.4434615,44.2296 C42.0288462,43.7972 41.8780769,43.1768 41.9911538,42.6128 C42.4811538,40.4508 42.1419231,37.0856 41.9723077,35.9764 C41.5765385,32.4796 37.6,32.1224 35.9038462,32.1224 C34.415,32.1224 33.2276923,32.4044 32.6057692,32.6488 C32.6246154,33.0248 32.5115385,33.4196 32.3042308,33.758 C31.9461538,34.2844 31.3430769,34.5852 30.7211538,34.5852 C30.5515385,34.5852 30.3819231,34.5664 30.2123077,34.5288 C29.9861538,34.4536 29.8542308,34.4536 29.76,34.4536 C29.6280769,34.4536 29.6092308,34.4724 29.5526923,34.5288 C28.8742308,35.3184 28.8365385,38.1572 29.2134615,40.3756 L30.0426923,42.5752 C30.3442308,43.3648 30.0426923,44.2672 29.3076923,44.7372 L29.2323077,44.7936 C29.2511538,44.944 29.3265385,45.226 29.3830769,45.414 C29.4961538,45.8652 29.6657692,46.448 29.6846154,47.106 L29.6846154,47.1812 C29.9484615,47.2188 30.1746154,47.3316 30.4007692,47.4632 C30.8907692,47.8016 31.1734615,48.3468 31.1923077,48.9296 C31.23,50.6404 31.7388462,51.336 31.9461538,51.4864 C32.5869231,51.7308 33.0580769,52.276 33.1523077,52.9528 C33.435,54.7952 33.4538462,55.7916 32.7942308,56.5436 C32.4738462,56.9008 31.965,57.1452 31.475,57.2016 L31.4561538,57.3144 C31.3242308,57.8972 30.9284615,58.386 30.3819231,58.6304 C29.4961538,59.0252 28.9496154,59.326 28.4030769,59.6456 C32.0592308,62.428 36.6011538,64.12 41.5576923,64.12 C44.8180769,64.12 47.9088462,63.368 50.6980769,62.0708 L50.6980769,62.0708 Z M41.5576923,66 C28.5538462,66 18,55.472 18,42.5 C18,29.528 28.5538462,19 41.5576923,19 C54.5615385,19 65.1153846,29.528 65.1153846,42.5 C65.1153846,55.472 54.5615385,66 41.5576923,66 L41.5576923,66 Z" id="Imported-Layers"></path>
                    </g>
                </g>
            </g>
        </g>
    </g>
</svg>