<?xml version="1.0" encoding="UTF-8" standalone="no"?>
<svg width="31px" height="35px" viewBox="0 0 31 35" version="1.1" xmlns="http://www.w3.org/2000/svg" xmlns:xlink="http://www.w3.org/1999/xlink">
    <!-- Generator: Sketch 3.6.1 (26313) - http://www.bohemiancoding.com/sketch -->
    <title>Oval 30 + Imported Layers</title>
    <desc>Created with Sketch.</desc>
    <defs></defs>
    <g id="Partners---1140-Updated-Copy-Copy-Copy" stroke="none" stroke-width="1" fill="none" fill-rule="evenodd">
        <g id="Partners" transform="translate(-197.000000, -1912.000000)" fill="#FFFFFF">
            <g id="Facts-Block" transform="translate(-71.000000, 1306.000000)">
                <g id="Retailers-Bullets" transform="translate(97.000000, 346.000000)">
                    <g id="Oval-30-+-Imported-Layers" transform="translate(144.000000, 236.000000)">
                        <g id="Imported-Layers" transform="translate(27.000000, 24.000000)">
                            <path d="M16.5909362,0.960480769 C16.4636383,0.77875 16.2571915,0.671730769 16.0375532,0.671730769 C16.0375532,0.671730769 16.0375532,0.671730769 16.036234,0.671730769 C15.8185745,0.671730769 15.6134468,0.778076923 15.4848298,0.959134615 L12.1361702,5.65115385 C11.9857872,5.8625 11.9640213,6.1425 12.0794468,6.37673077 C12.1948723,6.61028846 12.4296809,6.75769231 12.6855957,6.75903846 L14.2191064,6.76846154 L14.2191064,34.3511538 L17.8672128,34.3511538 L17.8672128,6.78865385 L19.3928085,6.79740385 L19.396766,6.79740385 L19.4007234,6.79740385 C19.7845957,6.78865385 20.0899787,6.48644231 20.0899787,6.09942308 C20.0899787,5.90961538 20.0154468,5.73663462 19.8954043,5.61144231 L16.5909362,0.960480769" id="Fill-1"></path>
                            <path d="M30.8680851,14.0686538 L29.9882128,8.41076923 C29.9539149,8.19067308 29.817383,8.00019231 29.6221489,7.89721154 C29.4269149,7.79557692 29.1967234,7.79759615 29.0021489,7.89855769 L23.9352979,10.5343269 C23.7064255,10.6541346 23.5619787,10.89375 23.5619787,11.1555769 C23.5619787,11.4174038 23.7037872,11.6576923 23.9333191,11.7768269 L25.1291277,12.4061538 L20.8689362,19.5367308 C20.6954681,19.8288462 20.6031277,20.1647115 20.6031277,20.5066346 L20.6031277,34.3511538 L24.2505745,34.3511538 L24.2505745,21.0289423 L28.3814894,14.1144231 L29.8958723,14.9093269 C29.9954681,14.9625 30.1016596,14.98875 30.2085106,14.98875 L30.2170851,14.98875 C30.5963404,14.98875 30.9017234,14.6750962 30.9017234,14.2900962 C30.9017234,14.2126923 30.8898511,14.1386538 30.8680851,14.0686538" id="Fill-2"></path>
                            <path d="M6.24353191,19.9217308 L7.22893617,18.7633654 C7.39778723,18.5648077 7.44395745,18.2861538 7.34634043,18.0425 C7.24938298,17.7988462 7.02578723,17.63125 6.76855319,17.6097115 L1.06455319,17.1284615 C0.845574468,17.1102885 0.632531915,17.1998077 0.49006383,17.3694231 C0.346276596,17.5383654 0.291531915,17.7672115 0.341659574,17.9846154 L1.64695745,23.6324038 C1.70697872,23.8875 1.90089362,24.0874038 2.15087234,24.15 C2.20429787,24.1634615 2.25970213,24.1701923 2.31378723,24.1701923 C2.5083617,24.1701923 2.69831915,24.0853846 2.82957447,23.9305769 L3.82685106,22.75875 L7.83508511,27.4682692 L7.83508511,34.3511538 L11.4831915,34.3511538 L11.4831915,26.7723077 C11.4831915,26.3240385 11.3248936,25.89125 11.036,25.5526923 L6.24353191,19.9217308" id="Fill-3"></path>
                        </g>
                    </g>
                </g>
            </g>
        </g>
    </g>
</svg>