<?xml version="1.0" encoding="UTF-8" standalone="no"?>
<svg width="37px" height="33px" viewBox="0 0 37 33" version="1.1" xmlns="http://www.w3.org/2000/svg" xmlns:xlink="http://www.w3.org/1999/xlink">
    <!-- Generator: Sketch 3.6.1 (26313) - http://www.bohemiancoding.com/sketch -->
    <title>Oval 24 + Store Bubble 2</title>
    <desc>Created with Sketch.</desc>
    <defs></defs>
    <g id="Partners---1140-Updated-Copy-Copy-Copy" stroke="none" stroke-width="1" fill="none" fill-rule="evenodd" stroke-linecap="round" stroke-linejoin="round">
        <g id="Partners" transform="translate(-194.000000, -1678.000000)" stroke="#FFFFFF">
            <g id="Facts-Block" transform="translate(-71.000000, 1306.000000)">
                <g id="Retailers-Bullets" transform="translate(97.000000, 346.000000)">
                    <g id="Oval-24-+-Store-Bubble-2" transform="translate(145.000000, 0.000000)">
                        <g id="Store-Bubble-2" transform="translate(24.000000, 26.000000)">
                            <g id="Imported-Layers-4">
                                <path d="M31.3793103,12.9065681 L31.3793103,31.6845282 L3.62068966,31.6845282 L3.62068966,13.0863505 L31.3793103,12.9065681 Z M6.03448276,18.0458645 L18.1034483,18.0458645 L18.1034483,26.7250141 L6.03448276,26.7250141 L6.03448276,18.0458645 Z M21.7241379,18.0458645 L28.9655172,18.0458645 L28.9655172,31.6845282 L21.7241379,31.6845282 L21.7241379,18.0458645 Z M31.3793103,0.687565357 L3.62068966,0.687565357 L0,6.88695793 L35,6.88695793 L31.3793103,0.687565357 L31.3793103,0.687565357 Z M35,8.12683644 C35,10.7163227 32.6948276,13.0863505 30.1724138,13.0863505 C28.9148276,13.0863505 27.3778448,12.6908292 26.5517241,11.846472 C25.4733621,13.6052397 23.8953448,14.326229 21.7241379,14.326229 C19.9035345,14.326229 18.012931,13.7676637 16.8965517,12.4664112 C15.7825862,13.7676637 14.4924138,14.326229 12.6724138,14.326229 C10.5012069,14.326229 9.52543103,13.6052397 8.44827586,11.846472 C7.62336207,12.6908292 5.48051724,13.0863505 4.22413793,13.0863505 C1.70172414,13.0863505 0,10.7163227 0,8.12683644 L0,6.88695793 L35,6.88695793 L35,8.12683644 L35,8.12683644 Z M8.44827586,11.846472 L8.44827586,6.88695793 L10.2586207,0.687565357 L8.44827586,11.846472 Z M16.8965517,12.4664112 L16.8965517,0.687565357 L16.8965517,12.4664112 Z M26.5517241,11.846472 L26.5517241,6.88695793 L24.7413793,0.687565357 L26.5517241,11.846472 Z" id="Stroke-1"></path>
                            </g>
                        </g>
                    </g>
                </g>
            </g>
        </g>
    </g>
</svg>