<?xml version="1.0" encoding="UTF-8" standalone="no"?>
<svg width="20px" height="38px" viewBox="0 0 20 38" version="1.1" xmlns="http://www.w3.org/2000/svg" xmlns:xlink="http://www.w3.org/1999/xlink">
    <!-- Generator: Sketch 3.6.1 (26313) - http://www.bohemiancoding.com/sketch -->
    <title>Walk In Bubble 2 + Oval 25</title>
    <desc>Created with Sketch.</desc>
    <defs>
        <path id="path-1" d="M0,0.644815677 L19.4855143,0.644815677 L19.4855143,37.3474801 L0,37.3474801"></path>
    </defs>
    <g id="Partners---1140-Updated-Copy-Copy-Copy" stroke="none" stroke-width="1" fill="none" fill-rule="evenodd">
        <g id="Partners" transform="translate(-543.000000, -1675.000000)">
            <g id="Facts-Block" transform="translate(-71.000000, 1306.000000)">
                <g id="Retailers-Bullets" transform="translate(97.000000, 346.000000)">
                    <g id="Walk-In-Bubble-2-+-Oval-25" transform="translate(486.000000, 0.000000)">
                        <g id="Walk-In-Bubble-2" transform="translate(31.000000, 23.000000)">
                            <g id="Imported-Layers-3" transform="translate(0.218750, 0.106101)">
                                <g id="Group-5">
                                    <mask id="mask-2" fill="white">
                                        <use xlink:href="#path-1"></use>
                                    </mask>
                                    <g id="Clip-2"></g>
                                    <path d="M19.2486857,20.005292 L16.3458,15.9153619 C16.2324,15.8010329 16.1382857,15.6600271 16.0596,15.4992042 L14.3238857,11.8825962 L13.7854286,17.3848709 L17.4042,21.7491907 C18.1509429,22.4610794 20.1713143,21.1173323 19.2486857,20.005292" id="Fill-1" fill="#FFFFFF" mask="url(#mask-2)"></path>
                                    <path d="M11.6424,7.82315379 C12.9877714,7.90699507 14.1078857,7.34602068 14.4619714,5.97026146 C14.6941714,5.0670622 14.6988,3.43901694 14.5900286,2.75685379 C14.4048857,1.81859362 13.9235143,1.28200942 13.2678,0.989327126 C11.5891714,0.238566557 8.42554286,0.639480323 8.34454286,2.96035944 C8.31677143,3.75685162 8.61994286,5.64328046 9.07508571,6.35669355 C9.57342857,7.14022844 10.6704,7.7637027 11.6424,7.82315379" id="Fill-3" fill="#FFFFFF" mask="url(#mask-2)"></path>
                                    <path d="M18.3592286,35.8886418 L16.2918,35.3230942 C16.0850571,35.2712651 15.9801429,35.1317837 15.9832286,34.8977903 L16.3296,27.6653364 C16.3550571,27.1394229 16.3458,26.7606128 16.0943143,26.2735712 C15.4679143,25.0586348 14.0014286,22.6318108 13.1027143,21.2446186 C12.9561429,20.9869972 12.8882571,20.7072722 12.9067714,20.4062058 C13.2053143,17.2979808 13.4791714,14.4389931 13.7777143,11.3315303 C13.9381714,8.11583609 9.49397143,7.13717967 7.30157143,9.57848536 L3.6504,13.5365561 C3.21222857,13.9725307 2.83345714,14.406981 2.56654286,14.9641444 L0.570085714,19.126483 C0.284657143,19.7232805 -0.132685714,20.8734304 0.0408857143,21.5433985 C0.111085714,21.8124528 0.282342857,22.0273913 0.621,22.1783056 C1.30525714,22.483183 1.98797143,22.6897375 2.37677143,21.9869951 L5.12768571,16.5647507 C5.24108571,16.3399036 5.39845714,16.1424955 5.60288571,15.974813 C6.89348571,14.922986 8.181,13.8795431 9.47545714,12.8292405 C9.69377143,12.6516494 9.96762857,12.980917 9.74931429,13.1585081 L7.00225714,15.8543864 L6.77082857,19.9702311 C6.71682857,20.9473632 6.80168571,21.6188556 7.61014286,22.483183 L12.1870286,27.5235685 C12.4192286,27.8025313 12.5580857,28.140183 12.5573143,28.5654869 L12.5688857,36.2926043 C12.5704286,36.8246154 12.7578857,37.335285 13.3549714,37.335285 L18.5806286,37.335285 C18.7495714,37.3269009 18.8359714,37.2567791 18.8490857,37.0746148 L18.8814857,36.5174514 C18.8845714,36.1836107 18.6901714,35.9884891 18.3592286,35.8886418" id="Fill-4" fill="#FFFFFF" mask="url(#mask-2)"></path>
                                </g>
                                <path d="M6.16294286,26.7994847 C6.09891429,27.1721973 6.06574286,27.4168614 5.886,27.7674704 L2.72005714,34.8634916 C2.48477143,35.3894051 2.3058,35.656935 2.28034286,36.2583056 C2.25488571,36.8169934 2.36365714,37.3474801 3.03402857,37.3474801 L8.59448571,37.3474801 C8.76342857,37.339096 8.8344,37.2704986 8.87142857,37.0883343 L8.91154286,36.5296465 C8.91385714,36.1958058 8.71945714,36.0006842 8.38928571,35.9008369 L6.48462857,35.3955026 C6.31645714,35.3451979 6.26862857,35.2468749 6.34885714,35.0959606 L9.70842857,29.1599978 C9.94602857,28.6782916 10.0386,28.3863715 10.1543143,27.8665555 L10.4335714,26.6066497 L6.86417143,22.7247984 L6.16294286,26.7994847" id="Fill-6" fill="#FFFFFF"></path>
                            </g>
                        </g>
                    </g>
                </g>
            </g>
        </g>
    </g>
</svg>