<?xml version="1.0" encoding="UTF-8" standalone="no"?>
<svg width="29px" height="39px" viewBox="0 0 29 39" version="1.1" xmlns="http://www.w3.org/2000/svg" xmlns:xlink="http://www.w3.org/1999/xlink">
    <!-- Generator: Sketch 3.6.1 (26313) - http://www.bohemiancoding.com/sketch -->
    <title>Oval 28 + Imported Layers</title>
    <desc>Created with Sketch.</desc>
    <defs></defs>
    <g id="Partners---1140-Updated-Copy-Copy-Copy" stroke="none" stroke-width="1" fill="none" fill-rule="evenodd">
        <g id="Partners" transform="translate(-540.000000, -1911.000000)" fill="#FFFFFF">
            <g id="Facts-Block" transform="translate(-71.000000, 1306.000000)">
                <g id="Retailers-Bullets" transform="translate(97.000000, 346.000000)">
                    <g id="Oval-28-+-Imported-Layers" transform="translate(486.000000, 236.000000)">
                        <path d="M46.3157895,40.2848 L46.3157895,44.7308 C51.7342105,44.4032 54.5884211,41.6264 55.2905263,37.1648 C54.2221053,37.508 53.1994737,37.6796 52.2226316,37.6796 C50.0552632,37.6796 48.2389474,36.884 46.3157895,35.8232 L46.3157895,40.2848 L46.3157895,40.2848 Z M44.7894737,26.5256 C42.2405263,25.2308 39.7984211,24.5756 37.5242105,24.5756 C36.0131579,24.5756 34.5326316,25.5116 33.1436842,26.0888 L32.8689474,26.198 L32.5789474,26.198 L32.5789474,39.0836 C33.6778947,38.4128 35.0973684,38.0852 36.8373684,38.0852 C38.9436842,38.0852 41.1568421,39.0056 43.1105263,39.4112 C43.7057895,39.536 44.2705263,39.6608 44.7894737,39.7544 L44.7894737,26.5256 L44.7894737,26.5256 Z M57,34.7468 C57,42.656 52.4210526,46.3688 44.7894737,46.3688 L44.7894737,41.2988 C42.6221053,40.8152 39.5389474,39.6608 36.8373684,39.6608 C35.1278947,39.6608 33.6015789,40.0196 32.5789474,41.0648 L32.5789474,60.4244 L35.6315789,60.4244 L35.6315789,61.9844 L28,61.9844 L28,60.4244 L31.0526316,60.4244 L31.0526316,24.6068 L32.5789474,24.6068 C34.2578947,23.9204 35.9063158,23 37.5242105,23 C40.7294737,23 43.7363158,24.1232 46.3157895,25.5584 L46.3157895,34.0292 C48.3915789,35.2148 50.1621053,36.104 52.2226316,36.104 C53.5963158,36.104 55.1378947,35.6984 57,34.7468 L57,34.7468 Z" id="Imported-Layers"></path>
                    </g>
                </g>
            </g>
        </g>
    </g>
</svg>