<?xml version="1.0" encoding="utf-8"?>
<!-- Generator: Adobe Illustrator 20.1.0, SVG Export Plug-In . SVG Version: 6.00 Build 0)  -->
<svg version="1.1" id="Layer_1" xmlns="http://www.w3.org/2000/svg" xmlns:xlink="http://www.w3.org/1999/xlink" x="0px" y="0px"
	 viewBox="0 0 51 51" style="enable-background:new 0 0 51 51;" xml:space="preserve">
<style type="text/css">
	.st0{fill:none;stroke:#FFFFFF;stroke-miterlimit:10;}
	.st1{fill:#FFFFFF;}
</style>
<ellipse id="Oval-26_4_" class="st0" cx="25.5" cy="25.5" rx="25" ry="25"/>
<path class="st1" d="M38.6,31c-0.1,2.1-0.6,4-2.1,5.5c-1.5,1.6-3.4,2-5.5,2.1c-1.8,0.1-3.6,0.1-5.5,0.1c-1.8,0-3.6,0-5.5-0.1
	c-2.1-0.1-4-0.6-5.5-2.1c-1.6-1.5-2-3.4-2.1-5.5c-0.1-1.8-0.1-3.6-0.1-5.5s0-3.6,0.1-5.5c0.1-2.1,0.6-4,2.1-5.5
	c1.5-1.6,3.4-2,5.5-2.1c1.8-0.1,3.6-0.1,5.5-0.1c1.8,0,3.6,0,5.5,0.1c2.1,0.1,4,0.6,5.5,2.1c1.6,1.5,2,3.4,2.1,5.5
	c0.1,1.8,0.1,3.6,0.1,5.5S38.7,29.1,38.6,31z M17.7,15.2c-0.6,0.2-1,0.5-1.5,1c-0.5,0.5-0.8,0.9-1,1.5c-0.7,1.7-0.5,5.9-0.5,7.8
	s-0.2,6.1,0.5,7.8c0.2,0.6,0.5,1,1,1.5c0.5,0.5,0.9,0.8,1.5,1c1.7,0.7,5.9,0.5,7.8,0.5s6.1,0.2,7.8-0.5c0.6-0.2,1-0.5,1.5-1
	c0.5-0.5,0.8-0.9,1-1.5c0.7-1.7,0.5-5.9,0.5-7.8s0.2-6.1-0.5-7.8c-0.2-0.6-0.5-1-1-1.5c-0.5-0.5-0.9-0.8-1.5-1
	c-1.7-0.7-5.9-0.5-7.8-0.5S19.4,14.5,17.7,15.2z M25.5,32.3c-3.8,0-6.8-3-6.8-6.8s3-6.8,6.8-6.8s6.8,3,6.8,6.8S29.3,32.3,25.5,32.3z
	 M25.5,21.1c-2.4,0-4.4,2-4.4,4.4s2,4.4,4.4,4.4s4.4-2,4.4-4.4S27.9,21.1,25.5,21.1z M32.6,20c-0.9,0-1.6-0.7-1.6-1.6
	c0-0.9,0.7-1.6,1.6-1.6c0.9,0,1.6,0.7,1.6,1.6C34.1,19.3,33.4,20,32.6,20z"/>
</svg>
