<?xml version="1.0" encoding="UTF-8" standalone="no"?>
<svg width="25px" height="48px" viewBox="0 0 25 48" version="1.1" xmlns="http://www.w3.org/2000/svg" xmlns:xlink="http://www.w3.org/1999/xlink">
    <!-- Generator: Sketch 3.6.1 (26313) - http://www.bohemiancoding.com/sketch -->
    <title>Oval 27 + Imported Layers</title>
    <desc>Created with Sketch.</desc>
    <defs></defs>
    <g id="Partners---1140-Updated-Copy-Copy-Copy" stroke="none" stroke-width="1" fill="none" fill-rule="evenodd">
        <g id="Partners" transform="translate(-870.000000, -1670.000000)" stroke="#FFFFFF" stroke-width="1.5">
            <g id="Facts-Block" transform="translate(-71.000000, 1306.000000)">
                <g id="Retailers-Bullets" transform="translate(97.000000, 346.000000)">
                    <g id="Oval-27-+-Imported-Layers" transform="translate(815.000000, 0.000000)">
                        <path d="M48.9090482,19 L33.5026506,19 C31.5759157,19 30,20.5731176 30,22.4937588 L30,61.7429059 C30,63.6649294 31.5759157,65.2366647 33.5026506,65.2366647 L48.9090482,65.2366647 C50.8346747,65.2366647 52.4105904,63.6649294 52.4105904,61.7429059 L52.4105904,22.4937588 C52.4105904,20.5731176 50.8346747,19 48.9090482,19 L48.9090482,19 Z M39.1052289,20.6900647 L43.3078554,20.6900647 C43.6941446,20.6900647 44.0092169,21.0016471 44.0092169,21.3878765 C44.0092169,21.7738294 43.6941446,22.0873471 43.3078554,22.0873471 L39.1052289,22.0873471 C38.7200482,22.0873471 38.4058072,21.7738294 38.4058072,21.3878765 C38.4058072,21.0016471 38.7200482,20.6900647 39.1052289,20.6900647 L39.1052289,20.6900647 Z M41.3370602,64.1155765 C40.561988,64.1155765 39.9348916,63.4899235 39.9348916,62.7171882 C39.9348916,61.9444529 40.561988,61.3182471 41.3370602,61.3182471 C42.1121325,61.3182471 42.7397831,61.9444529 42.7397831,62.7171882 C42.7397831,63.4899235 42.1121325,64.1155765 41.3370602,64.1155765 L41.3370602,64.1155765 Z M31.4016145,23.7763059 L51.0134096,23.7763059 L51.0134096,59.9071412 L31.4016145,59.9071412 L31.4016145,23.7763059 Z" id="Imported-Layers"></path>
                    </g>
                </g>
            </g>
        </g>
    </g>
</svg>