<?xml version="1.0" encoding="utf-8"?>
<!-- Generator: Adobe Illustrator 16.0.0, SVG Export Plug-In . SVG Version: 6.00 Build 0)  -->
<!DOCTYPE svg PUBLIC "-//W3C//DTD SVG 1.1//EN" "http://www.w3.org/Graphics/SVG/1.1/DTD/svg11.dtd">
<svg version="1.1" id="Layer_1" xmlns="http://www.w3.org/2000/svg" xmlns:xlink="http://www.w3.org/1999/xlink" x="0px" y="0px"
	 width="174.759px" height="44.165px" viewBox="0 0 174.759 44.165" enable-background="new 0 0 174.759 44.165"
	 xml:space="preserve">
<path fill-rule="evenodd" clip-rule="evenodd" fill="#FFFFFF" d="M165.815,27.582c-0.046-3.638-1.418-6.94-3.826-9.212
	c2.199-2.072,3.535-5.002,3.787-8.264v-0.002h-6.312v0.002c-0.401,3.273-2.587,5.108-5.727,5.108c-0.749,0-1.438-0.11-2.066-0.312V0
	h-6.288v33.978h6.288V21.839c0.628-0.202,1.317-0.312,2.066-0.312c3.486,0,5.793,2.258,5.793,6.238v6.212h6.289v-6.396H165.815z"/>
<path fill-rule="evenodd" clip-rule="evenodd" fill="#FFFFFF" d="M122.171,0c-1.777,0-3.143,1.2-3.143,3.351
	c0,2.152,1.365,3.351,3.143,3.351c1.78,0,3.145-1.198,3.145-3.351C125.315,1.2,123.951,0,122.171,0"/>
<rect x="119.028" y="10.104" fill-rule="evenodd" clip-rule="evenodd" fill="#FFFFFF" width="6.287" height="23.873"/>
<path fill-rule="evenodd" clip-rule="evenodd" fill="#FFFFFF" d="M112.55,18.37c2.198-2.073,3.535-5.003,3.787-8.264v-0.002h-6.313
	v0.002c-0.401,3.273-2.585,5.107-5.728,5.107c-0.747,0-1.436-0.11-2.065-0.311V0h-6.286v33.978h6.286V21.839
	c0.63-0.201,1.318-0.312,2.065-0.312c3.486,0,5.795,2.258,5.795,6.238v6.212h6.288v-6.396h-0.003
	C116.328,23.943,114.958,20.642,112.55,18.37"/>
<path fill-rule="evenodd" clip-rule="evenodd" fill="#FFFFFF" d="M127.114,22.042c0,7.318,4.42,11.936,11.787,11.936h4.372v-6.288
	h-4.175c-3.488,0-5.697-2.356-5.697-5.647c0-3.292,2.209-5.651,5.697-5.651h4.175v-6.286h-4.372
	C131.534,10.104,127.114,14.723,127.114,22.042"/>
<path fill-rule="evenodd" clip-rule="evenodd" fill="#FFFFFF" d="M6.729,17.054c0-0.981,0.785-1.081,1.571-1.081h7.271v-5.894H8.007
	c-4.127,0-7.761,1.867-7.761,7.024c0,5.943,9.626,6.631,9.626,9.626c0,0.737-0.588,1.328-1.769,1.328H0v5.895h8.793
	c4.519,0,8.055-2.506,8.055-7.271C16.848,20.395,6.729,19.215,6.729,17.054"/>
<path fill-rule="evenodd" clip-rule="evenodd" fill="#FFFFFF" d="M56.576,9.514c-7.416,0-12.084,5.699-12.084,12.528
	c0,6.827,4.668,12.526,12.084,12.526c7.418,0,12.084-5.699,12.084-12.526C68.66,15.213,63.994,9.514,56.576,9.514 M56.576,28.281
	c-3.486,0-5.794-2.261-5.794-6.239c0-3.98,2.308-6.239,5.794-6.239c3.488,0,5.798,2.259,5.798,6.239
	C62.374,26.021,60.064,28.281,56.576,28.281"/>
<path fill-rule="evenodd" clip-rule="evenodd" fill="#FFFFFF" d="M30.676,9.427c-2.32,0-4.199,0.758-5.681,1.601V0h-6.29v33.965
	h6.29v-12.69c0.064-3.368,2.437-5.56,5.681-5.56c3.292,0,5.649,2.21,5.649,5.7v12.55h6.288V21.219
	C42.613,13.85,37.995,9.427,30.676,9.427"/>
<path fill-rule="evenodd" clip-rule="evenodd" fill="#FFFFFF" d="M81.948,9.514c-3.084,0-4.934,0.923-6.777,2.426
	c-0.077,0.062-0.152,0.124-0.229,0.188c-0.002,0-0.003,0.002-0.005,0.002c-2.312,1.93-3.84,4.781-4.268,8.06
	c-0.081,0.597-0.123,1.201-0.123,1.81c0,0.017,0.001,0.034,0.001,0.049c0,0.017-0.001,0.034-0.001,0.048v22.07h6.291v-10.62
	c1.283,0.575,3.023,1.037,5.11,1.037c7.422,0,12.092-5.7,12.092-12.533C94.04,15.215,89.37,9.514,81.948,9.514 M87.515,23.892
	c-0.664,2.473-2.681,4.093-5.344,4.101c-0.033,0-0.064,0-0.096,0c-2.964-0.041-5.236-2.483-5.236-5.945
	c0-0.655,0.081-1.271,0.232-1.845c0.665-2.473,2.682-4.09,5.346-4.102c0.031,0,0.062,0.003,0.095,0.003
	c2.963,0.039,5.237,2.482,5.237,5.944C87.749,22.702,87.668,23.32,87.515,23.892"/>
<polygon fill="#FFFFFF" points="169.73,31.506 168.818,31.506 168.818,31.146 171.026,31.146 171.026,31.506 170.114,31.506 
	170.114,33.978 169.73,33.978 "/>
<polygon fill="#FFFFFF" points="171.807,31.146 172.379,31.146 173.278,33.29 173.295,33.29 174.187,31.146 174.759,31.146 
	174.759,33.978 174.374,33.978 174.374,31.649 174.366,31.649 173.41,33.978 173.154,33.978 172.198,31.649 172.19,31.649 
	172.19,33.978 171.807,33.978 "/>
</svg>
