<?xml version="1.0" encoding="UTF-8" standalone="no"?>
<svg width="24px" height="24px" viewBox="0 0 24 24" version="1.1" xmlns="http://www.w3.org/2000/svg" xmlns:xlink="http://www.w3.org/1999/xlink" xmlns:sketch="http://www.bohemiancoding.com/sketch/ns">
    <!-- Generator: Sketch 3.4.2 (15855) - http://www.bohemiancoding.com/sketch -->
    <title>Invite Icon</title>
    <desc>Created with Sketch.</desc>
    <defs></defs>
    <g id="How-it-Works---Desktop-Illustrative" stroke="none" stroke-width="1" fill="none" fill-rule="evenodd" sketch:type="MSPage">
        <g id="How-it-Works-2" sketch:type="MSArtboardGroup" transform="translate(-750.000000, -908.000000)" fill="#FFFFFF">
            <g id="Sub-Nav" sketch:type="MSLayerGroup" transform="translate(-38.000000, 879.000000)">
                <g id="Icons" transform="translate(71.000000, 23.000000)" sketch:type="MSShapeGroup">
                    <g id="Invite-Icon" transform="translate(716.000000, 6.000000)">
                        <path d="M15.8912,13.0028571 C15.5601333,12.8914286 15.2169333,12.7782857 14.8598667,12.6617143 C14.2445333,12.4611429 13.6101333,12.2537143 13,12.0325714 L13,10.2137143 C13.4801333,9.89657143 14.3641333,9.08228571 14.4698667,7.35085714 C14.8321333,7.12285714 15.0592,6.62571429 15.0592,5.99142857 C15.0592,5.436 14.8841333,4.98514286 14.5964,4.728 C14.8373333,4.128 15.2290667,3.08057143 14.9586667,2.004 C14.6310667,0.701142857 12.7677333,0.238285714 11.2718667,0.238285714 C9.94586667,0.238285714 8.33386667,0.601714286 7.75493333,1.58914286 C7.24706667,1.56342857 6.85013333,1.69714286 6.5728,1.99542857 C5.91413333,2.70514286 6.27986667,4.02342857 6.49653333,4.76914286 C6.38213333,4.86171429 6.28333333,4.98342857 6.20533333,5.12914286 C6.07533333,5.37428571 6.00426667,5.69314286 6.00426667,6.02742857 C6.00426667,6.64628571 6.23133333,7.13142857 6.59533333,7.356 C6.7028,9.084 7.58506667,9.89657143 8.0652,10.2137143 L8.0652,12.0325714 C7.45333333,12.2537143 6.82066667,12.4611429 6.20533333,12.6617143 C3.8844,13.4194286 2.05226667,14.0177143 1.6744,15.1474286 C1.18733333,16.5977143 1.15613333,19.1622857 1.15613333,19.2702857 C1.1544,19.4005714 1.2064,19.5257143 1.29826667,19.6182857 C1.39186667,19.7108571 1.51666667,19.7622857 1.6484,19.7622857 L13.1785333,19.7622857 C13.0658667,19.2925714 13,18.804 13,18.2982857 C13,16.0868571 14.1509333,14.1377143 15.8912,13.0028571" id="Fill-1"></path>
                        <path d="M19.4150667,12.9291429 C16.4216,12.9291429 13.9862667,15.3377143 13.9862667,18.2982857 C13.9862667,21.2588571 16.4216,23.6674286 19.4150667,23.6674286 C22.4085333,23.6674286 24.8438667,21.2588571 24.8438667,18.2982857 C24.8438667,15.3377143 22.4085333,12.9291429 19.4150667,12.9291429 L19.4150667,12.9291429 Z M21.8833333,18.7868571 L19.9090667,18.7868571 L19.9090667,20.7394286 C19.9090667,21.0085714 19.6889333,21.228 19.4150667,21.228 C19.1429333,21.228 18.9228,21.0085714 18.9228,20.7394286 L18.9228,18.7868571 L16.9485333,18.7868571 C16.6764,18.7868571 16.4545333,18.5674286 16.4545333,18.2982857 C16.4545333,18.0291429 16.6764,17.8114286 16.9485333,17.8114286 L18.9228,17.8114286 L18.9228,15.8588571 C18.9228,15.588 19.1429333,15.3702857 19.4150667,15.3702857 C19.6889333,15.3702857 19.9090667,15.588 19.9090667,15.8588571 L19.9090667,17.8114286 L21.8833333,17.8114286 C22.1554667,17.8114286 22.3773333,18.0291429 22.3773333,18.2982857 C22.3773333,18.5674286 22.1554667,18.7868571 21.8833333,18.7868571 L21.8833333,18.7868571 Z" id="Fill-2"></path>
                    </g>
                </g>
            </g>
        </g>
    </g>
</svg>
