<?xml version="1.0" encoding="UTF-8" standalone="no"?>
<svg width="13px" height="24px" viewBox="0 0 13 24" version="1.1" xmlns="http://www.w3.org/2000/svg" xmlns:xlink="http://www.w3.org/1999/xlink" xmlns:sketch="http://www.bohemiancoding.com/sketch/ns">
    <!-- Generator: Sketch 3.4.2 (15855) - http://www.bohemiancoding.com/sketch -->
    <title>Walk In Icon</title>
    <desc>Created with Sketch.</desc>
    <defs>
        <path id="path-1" d="M0,0.415199451 L12.5468023,0.415199451 L12.5468023,24.0481952 L0,24.0481952"></path>
    </defs>
    <g id="How-it-Works---Desktop-Illustrativ--alternate" stroke="none" stroke-width="1" fill="none" fill-rule="evenodd" sketch:type="MSPage">
        <g id="How-it-Works-2" sketch:type="MSArtboardGroup" transform="translate(-39.000000, -1681.000000)">
            <g id="Sub-Nav" sketch:type="MSLayerGroup" transform="translate(-101.000000, 1654.000000)">
                <g id="Icons" transform="translate(0.000000, 22.396552)">
                    <g id="Walk-In-Icon" transform="translate(140.347295, 4.378113)">
                        <mask id="mask-2" sketch:name="Clip 2" fill="white">
                            <use xlink:href="#path-1"></use>
                        </mask>
                        <g id="Clip-2"></g>
                        <path d="M12.3943074,12.8814894 L10.5251275,10.2479666 C10.4521087,10.1743497 10.3915082,10.0835555 10.3408421,9.98000099 L9.22320858,7.6512523 L8.87649383,11.1941895 L11.2066355,14.0043928 C11.6874663,14.4627809 12.9883918,13.5975366 12.3943074,12.8814894" id="Fill-1" fill="#FFFFFF" sketch:type="MSShapeGroup" mask="url(#mask-2)"></path>
                        <path d="M7.49658897,5.03736072 C8.36287913,5.09134646 9.0841253,4.73013275 9.31212254,3.84427577 C9.46163707,3.26270207 9.46461742,2.21439707 9.39457906,1.77514943 C9.27536481,1.17099987 8.96540778,0.825491107 8.54319067,0.637031782 C7.46231487,0.153613981 5.4252415,0.411763995 5.37308527,1.90618755 C5.35520313,2.41905212 5.55041645,3.63373137 5.8434848,4.09310097 C6.1643698,4.59762229 6.87071419,4.99907992 7.49658897,5.03736072" id="Fill-3" fill="#FFFFFF" sketch:type="MSShapeGroup" mask="url(#mask-2)"></path>
                        <path d="M10.4903566,22.7446848 C10.3572341,22.7113118 10.2896793,22.6214992 10.2916662,22.4708299 L10.5146962,17.8138233 C10.5310882,17.4751854 10.5251275,17.231268 10.3631948,16.9176599 C9.95985326,16.1353574 9.01557711,14.5727155 8.43689131,13.6794968 C8.34251336,13.5136133 8.29880148,13.3334973 8.3107229,13.1396394 C8.50295587,11.1382406 8.6792936,9.29732672 8.87152657,7.29641872 C8.97484558,5.22582004 6.11320702,4.59565917 4.7015117,6.16762589 L2.35050749,8.7162438 C2.06836711,8.99696967 1.82447464,9.27671398 1.65260744,9.63547379 L0.367080523,12.3156206 C0.183291898,12.6999009 -0.085436874,13.4404872 0.0263264786,13.8718824 C0.0715285457,14.0451275 0.18180172,14.1835273 0.399864439,14.2807017 C0.840460412,14.4770135 1.28006293,14.6100147 1.53041284,14.157516 L3.3017378,10.6661107 C3.37475652,10.5213308 3.47608863,10.3942189 3.60772102,10.2862474 C4.43874364,9.60897169 5.26777935,8.93709457 6.1012856,8.26080043 C6.24185906,8.1464488 6.4181968,8.35846555 6.27762333,8.47281717 L4.50878201,10.2087042 L4.3597642,12.8589135 C4.32499338,13.4880928 4.37963324,13.9204695 4.9002021,14.4770135 L7.84727753,17.7225383 C7.99679206,17.9021636 8.08620274,18.1195789 8.08570602,18.3934338 L8.09315691,23.3689563 C8.09415036,23.7115204 8.21485478,24.0403427 8.59932071,24.0403427 L11.9641427,24.0403427 C12.0729257,24.0349441 12.128559,23.9897924 12.1370034,23.8724961 L12.1578659,23.5137363 C12.1598528,23.2987749 12.0346778,23.1731353 11.8215823,23.1088432 L10.4903566,22.7446848 Z" id="Fill-4" fill="#FFFFFF" sketch:type="MSShapeGroup" mask="url(#mask-2)"></path>
                        <path d="M3.96834411,17.2562978 C3.92711585,17.4962889 3.90575663,17.6538291 3.79001947,17.8795877 L1.75145592,22.4487448 C1.59995448,22.7873826 1.48471405,22.9596462 1.46832209,23.3468713 C1.45193013,23.7066126 1.5219685,24.0481952 1.9536234,24.0481952 L5.53402449,24.0481952 C5.64280749,24.0427966 5.68850628,23.9986264 5.71234913,23.8813301 L5.73817889,23.5215888 C5.73966906,23.3066273 5.61449411,23.1809878 5.40189538,23.1166957 L4.17547885,22.7913089 C4.06719258,22.7589174 4.03639557,22.6956069 4.08805508,22.5984325 L6.25129686,18.7762418 C6.40428847,18.4660692 6.46389559,18.2781007 6.53840449,17.943389 L6.71821931,17.1321305 L4.41986805,14.6325906 L3.96834411,17.2562978" id="Fill-6" fill="#FFFFFF" sketch:type="MSShapeGroup" mask="url(#mask-2)"></path>
                    </g>
                </g>
            </g>
        </g>
    </g>
</svg>