<?xml version="1.0" encoding="UTF-8" standalone="no"?>
<svg width="25px" height="16px" viewBox="0 0 25 16" version="1.1" xmlns="http://www.w3.org/2000/svg" xmlns:xlink="http://www.w3.org/1999/xlink" xmlns:sketch="http://www.bohemiancoding.com/sketch/ns">
    <!-- Generator: Sketch 3.4.2 (15855) - http://www.bohemiancoding.com/sketch -->
    <title>Purchase Icon</title>
    <desc>Created with Sketch.</desc>
    <defs></defs>
    <g id="How-it-Works---Desktop-Illustrative" stroke="none" stroke-width="1" fill="none" fill-rule="evenodd" sketch:type="MSPage">
        <g id="How-it-Works-2" sketch:type="MSArtboardGroup" transform="translate(-454.000000, -910.000000)" fill="#FFFFFF">
            <g id="Sub-Nav" sketch:type="MSLayerGroup" transform="translate(-38.000000, 879.000000)">
                <g id="Icons" transform="translate(71.000000, 23.000000)" sketch:type="MSShapeGroup">
                    <path d="M443.990625,23.5009091 L422.13125,23.5009091 C421.50625,23.5009091 421,22.9970909 421,22.3742727 L421,13.4724545 L445.121875,13.4724545 L445.121875,22.3742727 C445.121875,22.9970909 444.615625,23.5009091 443.990625,23.5009091 L443.990625,23.5009091 Z M423.260938,21.2460909 L427.784375,21.2460909 L427.784375,20.1194545 L423.260938,20.1194545 L423.260938,21.2460909 Z M423.260938,18.9912727 L434.56875,18.9912727 L434.56875,17.8646364 L423.260938,17.8646364 L423.260938,18.9912727 Z M421,9.12663636 C421,8.50536364 421.50625,8 422.13125,8 L443.990625,8 C444.615625,8 445.121875,8.50536364 445.121875,9.12663636 L445.121875,10.9595455 L421,10.9595455 L421,9.12663636 L421,9.12663636 Z" id="Purchase-Icon"></path>
                </g>
            </g>
        </g>
    </g>
</svg>
