<?xml version="1.0" encoding="utf-8"?>
<!-- Generator: Adobe Illustrator 20.1.0, SVG Export Plug-In . SVG Version: 6.00 Build 0)  -->
<svg version="1.1" id="Layer_1" xmlns="http://www.w3.org/2000/svg" xmlns:xlink="http://www.w3.org/1999/xlink" x="0px" y="0px"
	 viewBox="0 0 51 51" style="enable-background:new 0 0 51 51;" xml:space="preserve">
<style type="text/css">
	.st0{fill:none;stroke:#FFFFFF;stroke-miterlimit:10;}
	.st1{fill:#FFFFFF;}
</style>
<ellipse id="Oval-26_1_" class="st0" cx="25.5" cy="25.5" rx="25" ry="25"/>
<path class="st1" d="M36.3,20c0,0.2,0,0.5,0,0.7c0,7.4-5.6,15.8-15.8,15.8c-3.2,0-6.1-0.9-8.5-2.5c0.4,0.1,0.9,0.1,1.3,0.1
	c2.6,0,5-0.9,6.9-2.4c-2.4-0.1-4.5-1.7-5.2-3.9c0.3,0.1,0.7,0.1,1.1,0.1c0.5,0,1-0.1,1.5-0.2C14.9,27.2,13,25,13,22.3
	c0,0,0-0.1,0-0.1c0.7,0.4,1.6,0.7,2.5,0.7c-1.5-1-2.5-2.7-2.5-4.6c0-1,0.3-2,0.8-2.8c2.7,3.4,6.9,5.6,11.5,5.8
	c-0.1-0.4-0.1-0.8-0.1-1.3c0-3.1,2.5-5.6,5.6-5.6c1.6,0,3,0.7,4.1,1.8c1.3-0.2,2.5-0.7,3.5-1.3c-0.4,1.3-1.3,2.4-2.4,3.1
	c1.1-0.1,2.2-0.4,3.2-0.9C38.3,18.2,37.4,19.2,36.3,20z"/>
</svg>
